<svg xmlns="http://www.w3.org/2000/svg" width="36.884" height="30.104" viewBox="0 0 36.884 30.104">
  <g id="depoimentos__aspas" transform="translate(-608.528 -5935.241)">
    <path id="path84" d="M537.852-278.97v-4.345a3.444,3.444,0,0,0-3.444-3.444H523.972a3.445,3.445,0,0,0-3.444,3.444v10.435a3.445,3.445,0,0,0,3.444,3.444h3.282a1.99,1.99,0,0,1,1.786,2.893,6.588,6.588,0,0,1-2.234,2.433,3.378,3.378,0,0,0-1.262,4.033l.462,1.222a3.371,3.371,0,0,0,4.826,1.752c4.071-2.373,7.019-6.544,7.019-11.3v-10.57h0" transform="translate(88 6221.999)" fill="#16213e"/>
    <path id="path86" d="M572.32-278.97v-4.345a3.445,3.445,0,0,0-3.444-3.444H558.44A3.444,3.444,0,0,0,555-283.314v10.435a3.444,3.444,0,0,0,3.444,3.444h3.282a1.99,1.99,0,0,1,1.786,2.893,6.6,6.6,0,0,1-2.235,2.433,3.378,3.378,0,0,0-1.262,4.033l.462,1.222A3.371,3.371,0,0,0,565.3-257.1c4.071-2.373,7.02-6.544,7.02-11.3v-10.57h0" transform="translate(73.092 6221.999)" fill="#16213e"/>
  </g>
</svg>
