<svg xmlns="http://www.w3.org/2000/svg" viewBox="0 0 575 575" preserveAspectRatio="xMidYMid meet" style="max-width: 575px;">
  <g id="e-crown__estrutura" transform="translate(-15974 -4609)">
    <g id="Grupo_39" data-name="Grupo 39" transform="translate(16038.885 4673.398)">
      <path id="criatividade_e_tecnologia" data-name="Caminho 43" d="M911,57l5.7.122,5.7.182,5.7.365,5.58.486,5.64.669,5.579.729,5.458.912,5.458,1.094,5.518,1.155,5.336,1.276,5.215,1.519,5.395,1.519,5.1,1.762,5.279,1.7,4.973,2.006,5.031,2.006,4.973,2.188,4.908,2.37,9.648,4.862,9.335,5.409,8.978,5.834,8.73,6.138,8.49,6.686,8.068,6.989,7.762,7.354,7.339,7.84,7.034,8.022,6.611,8.509,6.189,8.751,5.818,9,5.337,9.359,4.915,9.664,2.3,4.923,2.243,5.044,1.944,4.983,2,5.044,1.755,5.227,1.762,5.166,1.515,5.226,1.514,5.348,1.274,5.409,1.15,5.47,1.034,5.47.968,5.47.786,5.652.612,5.592.422,5.591.364,5.713.24,5.713.124,5.713-.124,7.354-.364,7.354-.546,7.232-.968,7.232-1.027,7.232-1.274,7.294-1.522,7.111-1.755,6.989-2,6.989-2.3,6.989-2.432,6.928-2.665,6.746-2.912,6.624-3.029,6.686-3.4,6.5-3.633,6.442L911,280.229Z" transform="translate(-688.195 -57)" fill="#727272" fill-rule="evenodd"/>
      <path id="operacao_logistica" data-name="Caminho 45" d="M1031.9,475.4l-5.941,9.758-6.371,9.334-6.793,8.97-7.223,8.486-7.58,8.122-7.886,7.7-8.191,7.213-8.49,6.788-8.854,6.243-8.978,5.818-4.609,2.788-4.675,2.728-4.791,2.425-4.791,2.425-4.849,2.363-4.915,2.061-4.915,2.122-4.973,1.879-5.155,1.818-4.973,1.637-5.158,1.637-5.1,1.394-5.277,1.394-5.1,1.151-5.277,1.091-5.338.909-5.216.789-5.4.727-5.216.607-5.4.424-5.338.363-5.338.121-5.4.122-5.459-.122-5.338-.242-5.4-.364-5.459-.424-5.338-.606-5.4-.667-5.338-.97-5.338-.909-5.4-1.152-5.338-1.333-5.338-1.394-5.278-1.515-5.338-1.7-5.216-1.758-5.277-2-5.1-2.061-5.277-2.364-5.095-2.3-5.035-2.545-5.1-2.728-5.034-2.788-6.308-3.7-6.126-3.939-5.944-4.243-5.824-4.3-5.7-4.546-5.641-4.728-5.338-4.909-5.217-4.97-5.034-5.273-4.913-5.334-4.731-5.576-4.549-5.7-4.307-5.879-4.246-5.88-3.943-6.182-3.7-6.3L839.012,364Z" transform="translate(-616.146 -140.467)" fill="#727272" fill-rule="evenodd"/>
      <path id="estrategia_e_gerenciamento" data-name="Caminho 47" d="M634.942,391.935l-2.788-5.044-2.728-5.1-2.545-5.106-2.3-5.166-2.363-5.1-2.061-5.288-2-5.1-1.758-5.409-1.7-5.227-1.515-5.287-1.394-5.349-1.333-5.348-1.152-5.409-.909-5.348-.97-5.348-.667-5.409-.606-5.47-.424-5.349-.364-5.409-.242-5.348-.122-5.47.122-5.348.121-5.409.363-5.349.424-5.348.607-5.409.727-5.226.789-5.409.909-5.226,1.091-5.226L611.3,227.6l1.394-5.106,1.394-5.166,1.637-5.1,1.637-5.166,1.818-4.983,1.879-5.044,2.122-4.923,2.061-4.862,2.363-4.923,2.425-4.8,2.425-4.741,2.727-4.68,2.788-4.68,5.818-9.116,6.243-8.752,6.788-8.509,7.213-8.266,7.7-7.84,8.122-7.6,8.486-7.232,8.97-6.746,9.334-6.442,9.758-6.077,6.425-3.464,6.485-3.4,6.667-3.16,6.607-2.917,6.788-2.553,6.849-2.553,6.849-2.249,6.97-2.006,7.152-1.7,7.092-1.519,7.091-1.276,7.213-1.094,7.334-.912,7.213-.608,7.334-.3L827.8,57V280.229Z" transform="translate(-605 -57)" fill="#727272" fill-rule="evenodd"/>
    </g>
    <path id="Subtração_1" data-name="Subtração 1" d="M287.5,575a289.629,289.629,0,0,1-57.941-5.841,285.924,285.924,0,0,1-102.8-43.26A288.339,288.339,0,0,1,22.593,399.408,286.062,286.062,0,0,1,5.841,345.441a290.3,290.3,0,0,1,0-115.883A285.925,285.925,0,0,1,49.1,126.756,288.339,288.339,0,0,1,175.592,22.593,286.06,286.06,0,0,1,229.558,5.841a290.3,290.3,0,0,1,115.883,0A285.926,285.926,0,0,1,448.244,49.1,288.34,288.34,0,0,1,552.407,175.592a286.061,286.061,0,0,1,16.752,53.967,290.305,290.305,0,0,1,0,115.883,285.926,285.926,0,0,1-43.26,102.8A288.339,288.339,0,0,1,399.408,552.407a286.062,286.062,0,0,1-53.967,16.752A289.631,289.631,0,0,1,287.5,575Zm0-529.557c-133.47,0-242.056,108.586-242.056,242.056S154.029,529.556,287.5,529.556,529.556,420.97,529.556,287.5,420.97,45.443,287.5,45.443Z" transform="translate(15974 4609)" fill="#444"/>
    <circle id="Elipse_12" data-name="Elipse 12" cx="110.5" cy="110.5" r="110.5" transform="translate(16151 4786)"/>
    <text id="Consultoria" transform="translate(16227 4948)" fill="#fff" font-size="12" font-family="OpenSans, Open Sans"><tspan x="0" y="0">Consultoria</tspan></text>
    <text id="FullCommerce" transform="translate(16218 4640)" fill="#fff" font-size="12" font-family="OpenSans, Open Sans"><tspan x="0" y="0">FullCommerce</tspan></text>
    <text id="Estratégia_e_Gerenciamento_" data-name="Estratégia e Gerenciamento" transform="translate(16090 4855)" fill="#fff" font-size="11" font-family="OpenSans, Open Sans"><tspan x="-31.362" y="0">Estratégia e </tspan><tspan x="-39.706" y="15">Gerenciamento</tspan><tspan x="0" y="30"></tspan></text>
    <text id="Operacão_Logística_" data-name="Operação Logística" transform="translate(16265 5051)" fill="#fff" font-size="11" font-family="OpenSans, Open Sans"><tspan x="-26.471" y="0">Operacão </tspan><tspan x="-22.215" y="15">Logística</tspan><tspan x="0" y="30"></tspan></text>
    <text id="Criatividade_e_tecnologia_" data-name="Desenvolvimento e tecnologia" transform="translate(16410 4855)" fill="#fff" font-size="11" font-family="OpenSans, Open Sans"><tspan x="-31.958" y="0">Desenvolvimento </tspan><tspan x="-31.034" y="15">e tecnologia</tspan><tspan x="0" y="30"></tspan></text>
    <g id="logotipo__ecrown-pb" transform="translate(16201.096 4839.383)">
      <g id="Grupo_3" data-name="Grupo 3" transform="translate(0 43.035)">
        <g id="Grupo_2" data-name="Grupo 2" transform="translate(19.4)">
          <g id="Grupo_1" data-name="Grupo 1" transform="translate(9.426)">
            <path id="Caminho_1" data-name="Caminho 1" d="M469.687,80.82a9.562,9.562,0,0,1,5.067,1.294l-.3,3.428a7.645,7.645,0,0,0-4.531-1.4c-2.975,0-6.123,1.574-6.467,5.528-.335,3.815,2.422,5.528,5.431,5.528A10.767,10.767,0,0,0,473.9,93.9l-.3,3.465a13.3,13.3,0,0,1-5.664,1.155c-4.479,0-8.825-2.729-8.3-8.713C460.173,83.549,465.207,80.82,469.687,80.82Z" transform="translate(-459.587 -80.82)" fill="#fff"/>
            <path id="Caminho_2" data-name="Caminho 2" d="M536.754,81.127l-.322,3.674a6.6,6.6,0,0,0-6.936,3.29l-.89,10.183H524.86l1.47-16.8h3.324l-.243,2.764A8.188,8.188,0,0,1,536.754,81.127Z" transform="translate(-508.679 -81.023)" fill="#fff"/>
            <path id="Caminho_3" data-name="Caminho 3" d="M581.045,80.82c4.725,0,8.832,3.044,8.324,8.855s-5.149,8.852-9.873,8.852c-4.69,0-8.832-3.044-8.324-8.852S576.357,80.82,581.045,80.82Zm-.3,3.428a5.635,5.635,0,0,0-5.793,5.424c-.288,3.289,1.7,5.424,4.844,5.424a5.626,5.626,0,0,0,5.758-5.424C585.842,86.383,583.859,84.248,580.745,84.248Z" transform="translate(-543.479 -80.82)" fill="#fff"/>
            <path id="Caminho_4" data-name="Caminho 4" d="M673.844,82.65l-7.033,16.8h-4.023l-2.937-12.038-5.042,12.038H650.82l-4.13-16.8h3.954l2.667,12.7,5.206-12.7h3.5l3.017,12.7,4.856-12.7Z" transform="translate(-600.309 -82.196)" fill="#fff"/>
            <path id="Caminho_5" data-name="Caminho 5" d="M772.679,80.82c4.234,0,6.678,2.871,6.329,6.859l-.91,10.394h-3.746l.868-9.9c.238-2.729-1.329-4.023-3.567-4.023a6.57,6.57,0,0,0-4.933,2.8l-.974,11.128H762l1.47-16.8h3.324l-.2,2.31A8.442,8.442,0,0,1,772.679,80.82Z" transform="translate(-687.035 -80.82)" fill="#fff"/>
          </g>
          <path id="Caminho_6" data-name="Caminho 6" d="M427.716,113.587h-5.6a.545.545,0,0,1-.55-.6l.134-1.522a.671.671,0,0,1,.654-.6h5.6a.545.545,0,0,1,.55.6l-.134,1.522A.671.671,0,0,1,427.716,113.587Z" transform="translate(-421.562 -103.413)" fill="#fff"/>
        </g>
        <path id="Caminho_7" data-name="Caminho 7" d="M352.625,80.82a9.355,9.355,0,0,0-9.279,8.855c-.518,5.915,3.6,8.852,8.743,8.852a15.107,15.107,0,0,0,6.12-1.155l.283-3.22a13.013,13.013,0,0,1-5.424,1.19c-3.079,0-5.91-1.259-6.066-4.269a14.459,14.459,0,0,1,.258-3.059,5.1,5.1,0,0,1,5.265-4.08c3.674,0,4.333,2.871,3.994,4.338H349.1a14.786,14.786,0,0,0-.243,2.8h10.776C361.145,86.209,359.308,80.82,352.625,80.82Z" transform="translate(-343.302 -80.82)" fill="#fff"/>
      </g>
      <g id="Grupo_7" data-name="Grupo 7" transform="translate(31.058 0)">
        <g id="Grupo_4" data-name="Grupo 4" transform="translate(19.057 18.489)">
          <path id="Caminho_8" data-name="Caminho 8" d="M163.744,131.37l-6.282,5.8a2.746,2.746,0,0,1-1.406.488,1.295,1.295,0,0,1-.392,0,2.769,2.769,0,0,1-1.406-.488l-6.4-5.684-2.486,3.148,8.914,7.325a2.755,2.755,0,0,0,1.381.476c.067,0,.131-.012.2-.022.064.01.131.017.2.022a2.746,2.746,0,0,0,1.381-.476l8.894-7.5Z" transform="translate(-145.37 -131.37)" fill="#fff"/>
          <path id="Caminho_9" data-name="Caminho 9" d="M235.62,143.812l.084-.062h0Z" transform="translate(-213.248 -140.681)" fill="#fff"/>
        </g>
        <path id="Caminho_10" data-name="Caminho 10" d="M103.131,70.279,80.02,89.805l9.189,5.954,14.155-18.232a4.843,4.843,0,0,1,6.755,0L124.273,95.76l9.189-5.954L110.349,70.279A6.666,6.666,0,0,0,103.131,70.279Z" transform="translate(-77.162 -66.136)" fill="#fff"/>
        <g id="Grupo_5" data-name="Grupo 5">
          <path id="Caminho_11" data-name="Caminho 11" d="M74.909,76.03,75,75.94l.821-.858L72.757,66.89c-.2-.54.411-1,.8-.6l5.873,5.082,3.128-3.223L70.995,57.227A1.492,1.492,0,0,0,68.5,58.613L70.911,80.2l4-4.174Z" transform="translate(-68.492 -56.785)" fill="#fff"/>
        </g>
        <g id="Grupo_6" data-name="Grupo 6" transform="translate(45.23 0.002)">
          <path id="Caminho_12" data-name="Caminho 12" d="M258.6,76.037l-.087-.089-.821-.858,3.061-8.193c.2-.54-.411-1-.8-.6l-5.872,5.082-3.128-3.223,11.564-10.92a1.492,1.492,0,0,1,2.491,1.386L262.6,80.214l-4-4.177Z" transform="translate(-250.95 -56.795)" fill="#fff"/>
        </g>
        <path id="Caminho_13" data-name="Caminho 13" d="M198.618,139.518l6-5.059-2.585-3.089-5.754,5.31Z" transform="translate(-164.603 -112.881)" fill="#fff" opacity="0.2"/>
        <path id="Caminho_14" data-name="Caminho 14" d="M153.932,137.241l-6.1-5.411-2.486,3.146,6.458,5.307Z" transform="translate(-126.298 -113.227)" fill="#fff" opacity="0.2"/>
      </g>
    </g>
    <text id="FullCommerce-2" data-name="FullCommerce" transform="translate(16218 5162)" fill="#fff" font-size="12" font-family="OpenSans, Open Sans"><tspan x="0" y="0">FullCommerce</tspan></text>
  </g>
</svg>
