<svg xmlns="http://www.w3.org/2000/svg" width="57.774" height="64.198" viewBox="0 0 57.774 64.198">
  <g id="icon__consultoria" transform="translate(-438.194 -1360)">
    <path id="goal" d="M57.313,8.63,54.57,6.214,57.313,3.8a1.354,1.354,0,0,0-.895-2.371H45.066V.941a.941.941,0,1,0-1.882,0V13.63l-7.727,4.2a2.977,2.977,0,0,0-.306-.988l-1.089-2.126a2.977,2.977,0,0,0-4-1.291l-.842.431a2.973,2.973,0,0,0-1.291,4l1.089,2.126a2.955,2.955,0,0,0,1.072,1.164,8.242,8.242,0,0,0-1.134,2.73l-.2.718a.941.941,0,0,0,.649,1.161.926.926,0,0,0,.256.036.941.941,0,0,0,.905-.685l.2-.717c.412-1.454.666-2.233,1.472-2.671l1.445-.785.178-.091c.059-.03.115-.065.171-.1l10.3-5.594a3.982,3.982,0,0,1-1.9,3.2l-6.7,4.07-.023.014L33.625,23.7a.941.941,0,0,0,.9,1.651l-1.582,4.782-1.156.474-3.144,1.289.906-3.2a.941.941,0,0,0-1.811-.512L26.3,33.239a.9.9,0,0,0-.034.2L25.9,40.327a3.149,3.149,0,0,1-.077,1.015L21.658,50.1H18.634a3.216,3.216,0,0,0-3.213,3.212v2.716a3.187,3.187,0,0,0-1.33-.289H6.412A3.215,3.215,0,0,0,3.2,58.947v3.37H.941a.941.941,0,0,0,0,1.882H56.417a.941.941,0,1,0,0-1.882H53.97V38.064a3.216,3.216,0,0,0-3.212-3.212H45.066V18.438a5.868,5.868,0,0,0,.945-5.029.941.941,0,0,0-.945-.691V11H56.418a1.354,1.354,0,0,0,.9-2.371ZM29.535,16.164a1.084,1.084,0,0,1,.541-.637l.842-.431a1.091,1.091,0,0,1,1.469.474L33.476,17.7a1.093,1.093,0,0,1-.362,1.4l-.307.166-.647.332a1.093,1.093,0,0,1-1.469-.474L29.6,17a1.085,1.085,0,0,1-.067-.833ZM27.644,50.386a3.194,3.194,0,0,0-1.033-.275l1.033-1.372ZM32.111,42.8a3.546,3.546,0,0,0,.678-1.686c.025-.121.49-2.658.49-2.658s.439.274.485.293a.1.1,0,0,1,.058.082l.512,5.2H31.181Zm5.564-5.193-.794,6.424h-.656L35.7,38.652a1.982,1.982,0,0,0-1.108-1.591l-.946-.6.63-3.494s2.656,3.155,2.717,3.235c.55.715.738,1,.687,1.408ZM27.512,42.164a5.1,5.1,0,0,0,.264-1.747l.342-6.277,4.352-1.783-.791,4.382c0,.012,0,.024-.006.036L31.018,40.4a3.584,3.584,0,0,1-.394,1.253L24.266,50.1h-.524ZM5.082,58.946a1.331,1.331,0,0,1,1.33-1.33h7.679a1.332,1.332,0,0,1,1.331,1.33v3.37H5.082Zm12.222,0V53.308a1.332,1.332,0,0,1,1.331-1.33h7.679a1.332,1.332,0,0,1,1.33,1.33v9.008H17.3v-3.37ZM52.088,38.064V62.317H41.748V56.675a.941.941,0,0,0-1.882,0v5.641H29.526V47.251a1.331,1.331,0,0,1,1.33-1.33h7.679a1.331,1.331,0,0,1,1.33,1.33v4.717a.941.941,0,0,0,1.882,0v-13.9a1.332,1.332,0,0,1,1.331-1.33h7.679a1.332,1.332,0,0,1,1.331,1.33Zm-9.01-3.212a3.216,3.216,0,0,0-3.212,3.212v6.264a3.185,3.185,0,0,0-1.091-.28l.768-6.207a3.634,3.634,0,0,0-1.063-2.787c-.063-.082-3.72-4.425-3.72-4.425L37,23.847l6.18-3.755v14.76ZM45.066,9.119V3.311H55.02L52.876,5.2a1.354,1.354,0,0,0,0,2.033L55.02,9.119H45.066Zm0,0" transform="translate(438.194 1360)" fill="#404040"/>
  </g>
</svg>
