<svg xmlns="http://www.w3.org/2000/svg" width="63.93" height="64.211" viewBox="0 0 63.93 64.211">
  <g id="icon__marketing" transform="translate(0)">
    <path id="Caminho_144" data-name="Caminho 144" d="M62.3,0h-.6A2.761,2.761,0,0,0,58.99,2.237L20,10.212a.937.937,0,0,0,.375,1.835L58.941,4.159V34.052L11.628,24.376V13.835l4.365-.893a.937.937,0,0,0-.375-1.835L11.4,11.97a2.76,2.76,0,0,0-2.527-1.656h-.6a2.761,2.761,0,0,0-2.627,1.921l-2.4.327A2.465,2.465,0,0,0,1.124,15v8.22a2.465,2.465,0,0,0,2.125,2.434l2.4.327A2.761,2.761,0,0,0,8.271,27.9h.6A2.76,2.76,0,0,0,11.4,26.241l4.618.944v15.89a5.36,5.36,0,0,0,3.427,4.993,6.949,6.949,0,0,0,5.019,5.275l2.253.6a2.207,2.207,0,0,1,1.634,2.134,1.4,1.4,0,0,0-1.057,1.359v5.369a1.4,1.4,0,0,0,1.4,1.4H40.8a1.4,1.4,0,0,0,1.4-1.4V57.441a1.4,1.4,0,0,0-1.108-1.371v-2.64a3.124,3.124,0,0,1,.6-1.86,7.779,7.779,0,0,0,1.415-3.2,5.359,5.359,0,0,0,4.555-5.292v-3a.936.936,0,0,0-1.873,0v3a3.485,3.485,0,0,1-2.542,3.35V32.755l2.542.52v2.478a.936.936,0,0,0,1.873,0v-2.1L58.99,35.974A2.761,2.761,0,0,0,61.7,38.211h.6a2.759,2.759,0,0,0,2.756-2.756V2.756A2.759,2.759,0,0,0,62.3,0ZM3,23.216V15a.585.585,0,0,1,.5-.578l2.014-.274v9.925L3.5,23.794A.585.585,0,0,1,3,23.216Zm5.875,2.808h-.6a.884.884,0,0,1-.883-.876c0-.014,0-12.072,0-12.085a.884.884,0,0,1,.883-.876h.6a.884.884,0,0,1,.883.876c0,.053,0,12.079,0,12.084A.884.884,0,0,1,8.872,26.024ZM17.89,43.076V27.569l2.542.52V42.483a1.531,1.531,0,0,0,1.529,1.529h1.808v2.3a.244.244,0,0,1-.244.244H21.368A3.482,3.482,0,0,1,17.89,43.076Zm22.3,7.373a5.008,5.008,0,0,0-.972,2.98v2.609H35.438a.936.936,0,1,0,0,1.873H40.33v4.427H29.165V57.911h1.9a.936.936,0,1,0,0-1.873h-.846a4.083,4.083,0,0,0-3.022-3.9l-2.253-.6A5.085,5.085,0,0,1,21.5,48.427h2.028a2.119,2.119,0,0,0,2.117-2.117V35.888a1,1,0,0,1,1-1h.714a1,1,0,0,1,1,.992V39.84a.936.936,0,1,0,1.873,0c0-6.315,0-2.069,0-4.666a1,1,0,0,1,1-1h.714a1,1,0,0,1,1,1V39.84a.936.936,0,0,0,1.873,0V35.888a1,1,0,0,1,1-1h.714a1,1,0,0,1,1,1V39.84a.936.936,0,1,0,1.873,0V37.705a.605.605,0,0,1,.6-.6h.784a.605.605,0,0,1,.6.6V46.88a5.925,5.925,0,0,1-1.183,3.569ZM41.377,35.3a2.477,2.477,0,0,0-.6-.075h-.784a2.47,2.47,0,0,0-.662.09,2.875,2.875,0,0,0-2.813-2.3H35.8a2.854,2.854,0,0,0-1.554.458A2.868,2.868,0,0,0,31.933,32.3h-.714a2.868,2.868,0,0,0-2.313,1.172,2.852,2.852,0,0,0-1.554-.458h-.714a2.873,2.873,0,0,0-2.87,2.87v6.251H22.3V28.471l19.073,3.9Zm21.8.153a.884.884,0,0,1-.883.883h-.6a.884.884,0,0,1-.883-.883V2.756a.884.884,0,0,1,.883-.883h.6a.884.884,0,0,1,.883.883Z" transform="translate(-1.124)" fill="#404040"/>
  </g>
</svg>
