<svg xmlns="http://www.w3.org/2000/svg" width="69.822" height="70.333" viewBox="0 0 69.822 70.333">
  <g id="icon__valores" transform="translate(-14351.945 -1376.065)">
    <path id="path14" d="M337.231-234.534h51.248l-7.585-8.832H344.816Zm53.877,2.415H334.6a1.207,1.207,0,0,1-1.1-.7,1.206,1.206,0,0,1,.181-1.291l9.659-11.245a1.2,1.2,0,0,1,.916-.421h37.187a1.21,1.21,0,0,1,.917.421l9.659,11.245a1.211,1.211,0,0,1,.181,1.291,1.21,1.21,0,0,1-1.1.7" transform="translate(14024 1639.607)" fill="#404040"/>
    <path id="path16" d="M345.667-243.366l1.232,8.016,12.439-8.016Zm.321,11.247a1.216,1.216,0,0,1-.5-.107,1.2,1.2,0,0,1-.7-.917l-1.727-11.247a1.2,1.2,0,0,1,.277-.969,1.2,1.2,0,0,1,.916-.421h19.18a1.209,1.209,0,0,1,1.159.867,1.208,1.208,0,0,1-.5,1.356l-17.455,11.245a1.205,1.205,0,0,1-.653.193" transform="translate(14024 1639.607)" fill="#404040"/>
    <path id="path18" d="M366.372-243.366l12.44,8.016,1.231-8.016Zm13.349,11.247a1.212,1.212,0,0,1-.653-.193l-17.453-11.245a1.209,1.209,0,0,1-.505-1.356,1.209,1.209,0,0,1,1.16-.867h19.179a1.21,1.21,0,0,1,.917.421,1.207,1.207,0,0,1,.277.969l-1.727,11.247a1.208,1.208,0,0,1-.7.917,1.222,1.222,0,0,1-.5.107" transform="translate(14024 1639.607)" fill="#404040"/>
    <path id="path20" d="M336.942-232.119l25.347,35.649,26.423-35.649Zm25.328,38.911a1.21,1.21,0,0,1-.985-.507l-27.667-38.912a1.209,1.209,0,0,1-.088-1.253,1.2,1.2,0,0,1,1.073-.653h56.505a1.2,1.2,0,0,1,1.077.664,1.2,1.2,0,0,1-.108,1.261L363.238-193.7a1.2,1.2,0,0,1-.968.488" transform="translate(14024 1639.607)" fill="#404040"/>
    <path id="path22" d="M347.813-232.119l14.716,34.668,15.34-34.668ZM362.5-193.209a1.209,1.209,0,0,1-1.111-.735l-16.516-38.912a1.207,1.207,0,0,1,.1-1.139,1.208,1.208,0,0,1,1.007-.54h33.733a1.212,1.212,0,0,1,1.013.548,1.213,1.213,0,0,1,.093,1.148L363.61-193.928a1.209,1.209,0,0,1-1.105.719" transform="translate(14024 1639.607)" fill="#404040"/>
    <path id="path24" d="M362.855-256.318a1.208,1.208,0,0,1-1.207-1.208v-4.809a1.206,1.206,0,0,1,1.207-1.207,1.206,1.206,0,0,1,1.207,1.207v4.809a1.208,1.208,0,0,1-1.207,1.208" transform="translate(14024 1639.607)" fill="#404040"/>
    <path id="path26" d="M372.915-254.543a1.218,1.218,0,0,1-.413-.073,1.209,1.209,0,0,1-.721-1.548l1.645-4.52a1.209,1.209,0,0,1,1.548-.721,1.208,1.208,0,0,1,.721,1.548l-1.644,4.52a1.211,1.211,0,0,1-1.136.795" transform="translate(14024 1639.607)" fill="#404040"/>
    <path id="path28" d="M381.762-249.435a1.209,1.209,0,0,1-.776-.283,1.209,1.209,0,0,1-.149-1.7l3.092-3.685a1.207,1.207,0,0,1,1.7-.148,1.207,1.207,0,0,1,.148,1.7l-3.091,3.684a1.208,1.208,0,0,1-.925.432" transform="translate(14024 1639.607)" fill="#404040"/>
    <path id="path30" d="M388.33-241.611a1.206,1.206,0,0,1-1.047-.6,1.206,1.206,0,0,1,.441-1.649l4.165-2.405a1.206,1.206,0,0,1,1.649.441,1.207,1.207,0,0,1-.441,1.649l-4.165,2.405a1.21,1.21,0,0,1-.6.161" transform="translate(14024 1639.607)" fill="#404040"/>
    <path id="path32" d="M396.559-220.962a1.154,1.154,0,0,1-.211-.019l-4.736-.835a1.209,1.209,0,0,1-.98-1.4,1.2,1.2,0,0,1,1.4-.979l4.737.835a1.208,1.208,0,0,1,.98,1.4,1.209,1.209,0,0,1-1.189,1" transform="translate(14024 1639.607)" fill="#404040"/>
    <path id="path34" d="M392.494-209.793a1.2,1.2,0,0,1-.6-.163l-4.165-2.4a1.208,1.208,0,0,1-.443-1.649,1.209,1.209,0,0,1,1.651-.443l4.165,2.405a1.209,1.209,0,0,1,.443,1.649,1.212,1.212,0,0,1-1.047.6" transform="translate(14024 1639.607)" fill="#404040"/>
    <path id="path36" d="M384.854-200.689a1.2,1.2,0,0,1-.925-.431l-3.092-3.684a1.208,1.208,0,0,1,.149-1.7,1.206,1.206,0,0,1,1.7.149l3.091,3.684a1.207,1.207,0,0,1-.148,1.7,1.207,1.207,0,0,1-.776.281" transform="translate(14024 1639.607)" fill="#404040"/>
    <path id="path38" d="M374.56-194.745a1.207,1.207,0,0,1-1.135-.795l-1.645-4.52a1.207,1.207,0,0,1,.721-1.547,1.208,1.208,0,0,1,1.549.721l1.644,4.519a1.208,1.208,0,0,1-.721,1.548,1.251,1.251,0,0,1-.413.073" transform="translate(14024 1639.607)" fill="#404040"/>
    <path id="path40" d="M351.151-194.745a1.253,1.253,0,0,1-.415-.073,1.208,1.208,0,0,1-.721-1.548l1.647-4.519a1.2,1.2,0,0,1,1.547-.721,1.207,1.207,0,0,1,.723,1.547l-1.647,4.52a1.2,1.2,0,0,1-1.133.795" transform="translate(14024 1639.607)" fill="#404040"/>
    <path id="path42" d="M340.856-200.689a1.2,1.2,0,0,1-.775-.281,1.207,1.207,0,0,1-.149-1.7l3.091-3.684a1.206,1.206,0,0,1,1.7-.149,1.208,1.208,0,0,1,.149,1.7l-3.092,3.684a1.2,1.2,0,0,1-.925.431" transform="translate(14024 1639.607)" fill="#404040"/>
    <path id="path44" d="M333.219-209.793a1.213,1.213,0,0,1-1.049-.6,1.21,1.21,0,0,1,.443-1.649l4.165-2.405a1.209,1.209,0,0,1,1.651.443,1.209,1.209,0,0,1-.441,1.649l-4.167,2.4a1.193,1.193,0,0,1-.6.163" transform="translate(14024 1639.607)" fill="#404040"/>
    <path id="path46" d="M329.152-220.962a1.208,1.208,0,0,1-1.189-1,1.206,1.206,0,0,1,.979-1.4l4.737-.835a1.2,1.2,0,0,1,1.4.979,1.207,1.207,0,0,1-.98,1.4l-4.736.835a1.14,1.14,0,0,1-.209.019" transform="translate(14024 1639.607)" fill="#404040"/>
    <path id="path48" d="M337.382-241.611a1.214,1.214,0,0,1-.6-.161l-4.165-2.405a1.209,1.209,0,0,1-.441-1.649,1.206,1.206,0,0,1,1.649-.441l4.167,2.405a1.209,1.209,0,0,1,.441,1.649,1.209,1.209,0,0,1-1.047.6" transform="translate(14024 1639.607)" fill="#404040"/>
    <path id="path50" d="M343.948-249.435a1.21,1.21,0,0,1-.925-.432l-3.091-3.684a1.207,1.207,0,0,1,.149-1.7,1.205,1.205,0,0,1,1.7.148l3.092,3.685a1.209,1.209,0,0,1-.149,1.7,1.209,1.209,0,0,1-.776.283" transform="translate(14024 1639.607)" fill="#404040"/>
    <path id="path52" d="M352.8-254.543a1.206,1.206,0,0,1-1.133-.795l-1.647-4.52a1.208,1.208,0,0,1,.721-1.548,1.208,1.208,0,0,1,1.548.721l1.647,4.52a1.209,1.209,0,0,1-.723,1.548,1.218,1.218,0,0,1-.413.073" transform="translate(14024 1639.607)" fill="#404040"/>
  </g>
</svg>
