<svg xmlns="http://www.w3.org/2000/svg" width="64.203" height="64.134" viewBox="0 0 64.203 64.134">
  <g id="icon__desenvolvimento" transform="translate(0)">
    <path id="Caminho_178" data-name="Caminho 178" d="M36.494,134.766a.94.94,0,0,0,1.329-1.329l-2.282-2.282,2.282-2.281a.94.94,0,1,0-1.329-1.329l-2.946,2.946a.94.94,0,0,0,0,1.329Zm0,0" transform="translate(-29.101 -111.374)" fill="#404040"/>
    <path id="Caminho_179" data-name="Caminho 179" d="M115.488,131.152l-2.282,2.282a.94.94,0,1,0,1.329,1.329l2.946-2.946a.939.939,0,0,0,0-1.328l-2.946-2.946a.94.94,0,1,0-1.328,1.329Zm0,0" transform="translate(-98.769 -111.37)" fill="#404040"/>
    <path id="Caminho_180" data-name="Caminho 180" d="M77.013,134.972a.939.939,0,0,0,1.218-.531l2.314-5.892a.939.939,0,1,0-1.749-.687l-2.315,5.892A.94.94,0,0,0,77.013,134.972Zm0,0" transform="translate(-66.835 -111.369)" fill="#404040"/>
    <path id="Caminho_181" data-name="Caminho 181" d="M38.455,220.094h6.33a.94.94,0,0,0,0-1.879h-6.33a.94.94,0,0,0,0,1.879Zm0,0" transform="translate(-32.811 -190.914)" fill="#404040"/>
    <path id="Caminho_182" data-name="Caminho 182" d="M127.58,218.215H116.451a.94.94,0,0,0,0,1.879H127.58a.94.94,0,1,0,0-1.879Zm0,0" transform="translate(-101.027 -190.914)" fill="#404040"/>
    <path id="Caminho_183" data-name="Caminho 183" d="M38.455,251.7h2.7a.94.94,0,0,0,0-1.88h-2.7a.94.94,0,0,0,0,1.88Zm0,0" transform="translate(-32.811 -218.557)" fill="#404040"/>
    <path id="Caminho_184" data-name="Caminho 184" d="M177.787,249.82a.94.94,0,0,0,0,1.88h1.642a.94.94,0,1,0,0-1.88Zm0,0" transform="translate(-154.671 -218.556)" fill="#404040"/>
    <path id="Caminho_185" data-name="Caminho 185" d="M95.257,250.76a.94.94,0,0,0-.939-.94H86.252a.94.94,0,0,0,0,1.88h8.066A.94.94,0,0,0,95.257,250.76Zm0,0" transform="translate(-74.614 -218.557)" fill="#404040"/>
    <path id="Caminho_186" data-name="Caminho 186" d="M213.7,250.76a.94.94,0,0,0,.939.94h3.076a.94.94,0,1,0,0-1.88h-3.076A.94.94,0,0,0,213.7,250.76Zm0,0" transform="translate(-186.905 -218.557)" fill="#404040"/>
    <path id="Caminho_187" data-name="Caminho 187" d="M166.339,151.157h3.244a.94.94,0,1,0,0-1.879h-3.244a.94.94,0,1,0,0,1.879Zm0,0" transform="translate(-144.658 -130.621)" fill="#404040"/>
    <path id="Caminho_188" data-name="Caminho 188" d="M221.186,151.157H240.98a.94.94,0,0,0,0-1.879H221.186a.94.94,0,1,0,0,1.879Zm0,0" transform="translate(-192.628 -130.621)" fill="#404040"/>
    <path id="Caminho_189" data-name="Caminho 189" d="M299.142,182.246h-8.019a.94.94,0,0,0,0,1.879h8.019a.94.94,0,0,0,0-1.879Zm0,0" transform="translate(-253.795 -159.456)" fill="#404040"/>
    <path id="Caminho_190" data-name="Caminho 190" d="M247.922,182.246h-2.756a.94.94,0,0,0,0,1.879h2.756a.94.94,0,0,0,0-1.879Zm0,0" transform="translate(-213.601 -159.456)" fill="#404040"/>
    <path id="Caminho_191" data-name="Caminho 191" d="M166.339,184.125h6.752a.94.94,0,0,0,0-1.879h-6.752a.94.94,0,1,0,0,1.879Zm0,0" transform="translate(-144.658 -159.455)" fill="#404040"/>
    <path id="Caminho_192" data-name="Caminho 192" d="M106.516,281.16h-6.33a.939.939,0,1,0,0,1.879h6.33a.939.939,0,1,0,0-1.879Zm0,0" transform="translate(-86.801 -245.966)" fill="#404040"/>
    <path id="Caminho_193" data-name="Caminho 193" d="M43.318,281.16H38.455a.939.939,0,1,0,0,1.879h4.863a.939.939,0,1,0,0-1.879Zm0,0" transform="translate(-32.811 -245.966)" fill="#404040"/>
    <path id="Caminho_194" data-name="Caminho 194" d="M184.5,281.16h-8.269a.939.939,0,1,0,0,1.879H184.5a.939.939,0,1,0,0-1.879Zm0,0" transform="translate(-153.308 -245.966)" fill="#404040"/>
    <path id="Caminho_195" data-name="Caminho 195" d="M299.808,242.668h-4.522a.94.94,0,0,0,0,1.88h4.522a.94.94,0,0,0,0-1.88Zm0,0" transform="translate(-257.437 -212.301)" fill="#404040"/>
    <path id="Caminho_196" data-name="Caminho 196" d="M393.916,244.547H400.3a.94.94,0,1,0,0-1.88h-6.383a.94.94,0,0,0,0,1.88Zm0,0" transform="translate(-343.698 -212.301)" fill="#404040"/>
    <path id="Caminho_197" data-name="Caminho 197" d="M358.258,242.668H356.8a.94.94,0,1,0,0,1.88h1.463a.94.94,0,0,0,0-1.88Zm0,0" transform="translate(-311.232 -212.301)" fill="#404040"/>
    <path id="Caminho_198" data-name="Caminho 198" d="M295.287,326.208h4.522a.94.94,0,0,0,0-1.879h-4.522a.94.94,0,0,0,0,1.879Zm0,0" transform="translate(-257.437 -283.721)" fill="#404040"/>
    <path id="Caminho_199" data-name="Caminho 199" d="M393.916,326.208H400.3a.94.94,0,1,0,0-1.879h-6.383a.94.94,0,0,0,0,1.879Zm0,0" transform="translate(-343.698 -283.721)" fill="#404040"/>
    <path id="Caminho_200" data-name="Caminho 200" d="M356.8,326.208h1.463a.94.94,0,1,0,0-1.879H356.8a.94.94,0,1,0,0,1.879Zm0,0" transform="translate(-311.236 -283.721)" fill="#404040"/>
    <path id="Caminho_201" data-name="Caminho 201" d="M299.808,405.988h-4.522a.939.939,0,1,0,0,1.879h4.522a.939.939,0,1,0,0-1.879Zm0,0" transform="translate(-257.437 -355.141)" fill="#404040"/>
    <path id="Caminho_202" data-name="Caminho 202" d="M400.3,405.988h-6.383a.939.939,0,1,0,0,1.879H400.3a.939.939,0,1,0,0-1.879Zm0,0" transform="translate(-343.698 -355.141)" fill="#404040"/>
    <path id="Caminho_203" data-name="Caminho 203" d="M358.258,405.988H356.8a.939.939,0,1,0,0,1.879h1.463a.939.939,0,0,0,0-1.879Zm0,0" transform="translate(-311.232 -355.141)" fill="#404040"/>
    <path id="Caminho_204" data-name="Caminho 204" d="M60.068.5H4.135A4.14,4.14,0,0,0,0,4.636V50.1a4.14,4.14,0,0,0,4.136,4.135H7.671a.939.939,0,1,0,0-1.879H4.135A2.259,2.259,0,0,1,1.879,50.1V46.536H36.112v1.619h-.745A1.85,1.85,0,0,0,33.519,50v2.353H13.384a.939.939,0,1,0,0,1.879h9.034v3.37H19.582a3.436,3.436,0,0,0-3.432,3.432v2.03a1.568,1.568,0,0,0,1.566,1.566h28.7a1.568,1.568,0,0,0,1.566-1.566v-2.03a3.436,3.436,0,0,0-3.432-3.432H41.712V56.418H59.083a1.85,1.85,0,0,0,1.848-1.848v-.442a4.141,4.141,0,0,0,3.2-4.027L64.2,4.635A4.139,4.139,0,0,0,60.068.5ZM35.4,44.3v-4.5H59.052v4.5Zm2.593-6.384V35.938H56.459v1.977Zm18.468,8.262v1.977H37.991V46.178ZM24.3,54.235h9.221v.335a1.85,1.85,0,0,0,1.848,1.848h4.466v1.188H24.3Zm20.252,5.25A1.554,1.554,0,0,1,46.1,61.038v1.717H18.028V61.038a1.555,1.555,0,0,1,1.553-1.553Zm14.5-4.947H35.4v-4.5H59.052Zm3.2-4.438a2.257,2.257,0,0,1-1.321,2.05V50a1.85,1.85,0,0,0-1.848-1.848h-.745V46.536h3.914Zm0-5.444H60.9c.019-.106.031-4.893.031-4.893a1.85,1.85,0,0,0-1.848-1.848h-.745V35.938h.745a1.851,1.851,0,0,0,1.848-1.848V29.523a1.851,1.851,0,0,0-1.848-1.848H53.776a.94.94,0,0,0,0,1.879h5.276v4.5H35.4v-4.5H47.929a.94.94,0,0,0,0-1.879H35.367a1.85,1.85,0,0,0-1.848,1.848V34.09a1.85,1.85,0,0,0,1.848,1.848h.745v1.977h-.745a1.85,1.85,0,0,0-1.848,1.848s.012,4.787.031,4.893H1.879V13.282H62.252Zm0-33.255H1.948V4.635A2.258,2.258,0,0,1,4.2,2.379H60a2.259,2.259,0,0,1,2.256,2.256Zm0,0" transform="translate(0.001 -0.5)" fill="#404040"/>
    <path id="Caminho_205" data-name="Caminho 205" d="M36.031,29.262a2.758,2.758,0,1,0,2.758,2.757A2.76,2.76,0,0,0,36.031,29.262Zm0,3.636a.878.878,0,1,1,.878-.878A.879.879,0,0,1,36.031,32.9Zm0,0" transform="translate(-29.101 -25.655)" fill="#404040"/>
    <path id="Caminho_206" data-name="Caminho 206" d="M92.016,29.262a2.758,2.758,0,1,0,2.757,2.757A2.761,2.761,0,0,0,92.016,29.262Zm0,3.636a.878.878,0,1,1,.878-.878A.879.879,0,0,1,92.016,32.9Zm0,0" transform="translate(-78.065 -25.655)" fill="#404040"/>
    <path id="Caminho_207" data-name="Caminho 207" d="M148,29.262a2.758,2.758,0,1,0,2.758,2.757A2.76,2.76,0,0,0,148,29.262Zm0,3.636a.878.878,0,1,1,.878-.878A.879.879,0,0,1,148,32.9Zm0,0" transform="translate(-127.032 -25.655)" fill="#404040"/>
  </g>
</svg>
