<svg id="icon__logistica" xmlns="http://www.w3.org/2000/svg" width="60.179" height="64.199" viewBox="0 0 60.179 64.199">
  <g id="Grupo_68" data-name="Grupo 68" transform="translate(0 0)">
    <g id="Grupo_67" data-name="Grupo 67" transform="translate(0)">
      <path id="Caminho_175" data-name="Caminho 175" d="M75.679,14.165,46.53.093a.941.941,0,0,0-.818,0L16.564,14.165a.94.94,0,0,0-.532.847V49.186a.94.94,0,0,0,.532.847L45.712,64.105a.94.94,0,0,0,.818,0L75.679,50.033a.94.94,0,0,0,.532-.847V15.012A.941.941,0,0,0,75.679,14.165ZM46.121,1.984,73.107,15.012l-7.823,3.776a.932.932,0,0,0-.159-.1L38.323,5.749ZM36.2,6.812,63.145,19.821l-5.519,2.664-26.935-13ZM63.776,21.6v9.849l-5.155,2.489V24.094ZM74.33,48.6,47.062,61.76V29.674l6.5-3.14a.94.94,0,1,0-.818-1.694l-6.627,3.2L43.514,26.78a.94.94,0,1,0-.818,1.694l2.485,1.2V61.76L17.913,48.6V16.51L38.677,26.534a.94.94,0,0,0,.818-1.694L19.135,15.012l9.342-4.51L56.727,24.139l.013.017V35.441a.94.94,0,0,0,1.349.847l7.036-3.4a.94.94,0,0,0,.532-.847V20.7L74.33,16.51V48.6Z" transform="translate(-16.032 0.001)" fill="#404040"/>
    </g>
  </g>
  <g id="Grupo_70" data-name="Grupo 70" transform="translate(4.014 42.79)">
    <g id="Grupo_69" data-name="Grupo 69">
      <path id="Caminho_176" data-name="Caminho 176" d="M53.675,343.42,49.4,341.355a.94.94,0,0,0-.818,1.694l4.278,2.065a.94.94,0,0,0,.818-1.694Z" transform="translate(-48.048 -341.261)" fill="#404040"/>
    </g>
  </g>
  <g id="Grupo_72" data-name="Grupo 72" transform="translate(4.02 38.33)">
    <g id="Grupo_71" data-name="Grupo 71">
      <path id="Caminho_177" data-name="Caminho 177" d="M57.654,309.747l-8.209-3.963a.94.94,0,1,0-.818,1.694l8.209,3.963a.94.94,0,0,0,.818-1.694Z" transform="translate(-48.096 -305.69)" fill="#404040"/>
    </g>
  </g>
</svg>
