<svg xmlns="http://www.w3.org/2000/svg" width="67.35" height="58.833" viewBox="0 0 67.35 58.833">
  <g id="icon__fiscal" transform="translate(0)">
    <path id="Caminho_154" data-name="Caminho 154" d="M1.64,47.807H11.7v2.519a.987.987,0,1,0,1.974,0V39.19a6.819,6.819,0,0,0-2.036-4.864h13.8a4.87,4.87,0,0,1,4.864,4.864V72.471h-.063a6.835,6.835,0,0,0-1.571.182A.987.987,0,0,0,28,70.941H25.1a.987.987,0,1,0,0,1.974H27.82a6.863,6.863,0,0,0-2.6,1.763H25.1a.988.988,0,0,0-.89,1.415,6.8,6.8,0,0,0-.8,3.217v5.035a4.864,4.864,0,1,1-9.729,0V54.933a.987.987,0,0,0-1.974,0V84.345a6.847,6.847,0,0,0,6.839,6.839h18.6a6.792,6.792,0,0,0,2.4-.434,6.805,6.805,0,0,0,2.4.434H53.271a.987.987,0,1,0,0-1.974h-6.5a6.8,6.8,0,0,0,1.948-3.877h16.6a4.872,4.872,0,0,1-4.764,3.877H57.878a.987.987,0,1,0,0,1.974h2.674a6.848,6.848,0,0,0,6.784-5.969,1.654,1.654,0,0,0-.4-1.3,1.636,1.636,0,0,0-1.227-.554H55.688V79.31a6.846,6.846,0,0,0-6.839-6.839H42.312a.987.987,0,0,0,0,1.974h6.537a4.87,4.87,0,0,1,4.864,4.864v4.048h-5.3a1.633,1.633,0,0,0-1.63,1.476,4.865,4.865,0,0,1-9.7-.489V79.31a6.819,6.819,0,0,0-2.036-4.864h2.659a.987.987,0,0,0,0-1.974H32.282V39.19a6.847,6.847,0,0,0-6.839-6.839H6.839A6.847,6.847,0,0,0,0,39.19v6.977a1.642,1.642,0,0,0,1.64,1.64Zm33.469,31.5v5.036a6.819,6.819,0,0,0,2.036,4.864h-13.8a6.818,6.818,0,0,0,2.036-4.864V79.31a4.864,4.864,0,0,1,9.729,0ZM1.974,39.19a4.864,4.864,0,0,1,9.729,0v6.643H1.974Z" transform="translate(0 -32.351)" fill="#404040"/>
    <path id="Caminho_155" data-name="Caminho 155" d="M147.231,77.66a.987.987,0,0,0-.987.987v.286a2.651,2.651,0,0,0,.628,5.227h.718a.677.677,0,0,1,0,1.353h-.718a.673.673,0,0,1-.631-.431.987.987,0,0,0-1.84.717,2.633,2.633,0,0,0,1.842,1.614V87.7a.987.987,0,1,0,1.974,0v-.286a2.651,2.651,0,0,0-.628-5.227h-.718a.677.677,0,0,1,0-1.353h.718a.673.673,0,0,1,.631.431.987.987,0,1,0,1.84-.717,2.633,2.633,0,0,0-1.842-1.614v-.285A.987.987,0,0,0,147.231,77.66Z" transform="translate(-125.238 -71.696)" fill="#404040"/>
    <path id="Caminho_156" data-name="Caminho 156" d="M187.091,183.567h-2.9a.987.987,0,0,0,0,1.974h2.9a.987.987,0,0,0,0-1.974Z" transform="translate(-159.087 -163.663)" fill="#404040"/>
    <path id="Caminho_157" data-name="Caminho 157" d="M113.913,184.554a.987.987,0,0,0,.987.987h5.829a.987.987,0,0,0,0-1.974H114.9A.987.987,0,0,0,113.913,184.554Z" transform="translate(-98.92 -163.663)" fill="#404040"/>
    <path id="Caminho_158" data-name="Caminho 158" d="M187.091,211.961h-2.9a.987.987,0,0,0,0,1.974h2.9a.987.987,0,1,0,0-1.974Z" transform="translate(-159.087 -188.32)" fill="#404040"/>
    <path id="Caminho_159" data-name="Caminho 159" d="M114.9,213.935h5.829a.987.987,0,0,0,0-1.974H114.9a.987.987,0,1,0,0,1.974Z" transform="translate(-98.92 -188.32)" fill="#404040"/>
    <path id="Caminho_160" data-name="Caminho 160" d="M187.091,240.355h-2.9a.987.987,0,0,0,0,1.974h2.9a.987.987,0,0,0,0-1.974Z" transform="translate(-159.087 -212.977)" fill="#404040"/>
    <path id="Caminho_161" data-name="Caminho 161" d="M114.9,242.329h5.829a.987.987,0,0,0,0-1.974H114.9a.987.987,0,0,0,0,1.974Z" transform="translate(-98.92 -212.977)" fill="#404040"/>
    <path id="Caminho_162" data-name="Caminho 162" d="M187.091,268.749h-2.9a.987.987,0,0,0,0,1.974h2.9a.987.987,0,0,0,0-1.974Z" transform="translate(-159.087 -237.634)" fill="#404040"/>
    <path id="Caminho_163" data-name="Caminho 163" d="M114.9,270.723h5.829a.987.987,0,0,0,0-1.974H114.9a.987.987,0,1,0,0,1.974Z" transform="translate(-98.92 -237.634)" fill="#404040"/>
    <path id="Caminho_164" data-name="Caminho 164" d="M187.091,297.143h-2.9a.987.987,0,0,0,0,1.974h2.9a.987.987,0,1,0,0-1.974Z" transform="translate(-159.087 -262.29)" fill="#404040"/>
    <path id="Caminho_165" data-name="Caminho 165" d="M114.9,299.117h5.829a.987.987,0,0,0,0-1.974H114.9a.987.987,0,1,0,0,1.974Z" transform="translate(-98.92 -262.29)" fill="#404040"/>
    <path id="Caminho_166" data-name="Caminho 166" d="M359.949,362.163h-.708a.987.987,0,1,0,0,1.974h.708a.987.987,0,1,0,0-1.974Z" transform="translate(-311.1 -318.752)" fill="#404040"/>
    <path id="Caminho_167" data-name="Caminho 167" d="M295.782,362.163h-5.829a.987.987,0,1,0,0,1.974h5.829a.987.987,0,0,0,0-1.974Z" transform="translate(-250.931 -318.752)" fill="#404040"/>
    <path id="Caminho_168" data-name="Caminho 168" d="M362.244,391.544a.987.987,0,0,0,.987.987h2.743a.987.987,0,0,0,0-1.974h-2.743A.987.987,0,0,0,362.244,391.544Z" transform="translate(-314.564 -343.409)" fill="#404040"/>
    <path id="Caminho_169" data-name="Caminho 169" d="M300.76,391.544a.987.987,0,0,0-.987-.987h-5.829a.987.987,0,1,0,0,1.974h5.829A.987.987,0,0,0,300.76,391.544Z" transform="translate(-254.396 -343.409)" fill="#404040"/>
    <path id="Caminho_170" data-name="Caminho 170" d="M298.95,418.951h-5.005a.987.987,0,1,0,0,1.974h5.005a.987.987,0,0,0,0-1.974Z" transform="translate(-254.397 -368.065)" fill="#404040"/>
    <path id="Caminho_171" data-name="Caminho 171" d="M114.9,327.511h5.829a.987.987,0,1,0,0-1.974H114.9a.987.987,0,1,0,0,1.974Z" transform="translate(-98.92 -286.947)" fill="#404040"/>
    <path id="Caminho_172" data-name="Caminho 172" d="M114.9,355.9h5.829a.987.987,0,0,0,0-1.974H114.9a.987.987,0,1,0,0,1.974Z" transform="translate(-98.92 -311.603)" fill="#404040"/>
    <path id="Caminho_173" data-name="Caminho 173" d="M114.9,384.3h5.829a.987.987,0,0,0,0-1.974H114.9a.987.987,0,1,0,0,1.974Z" transform="translate(-98.92 -336.259)" fill="#404040"/>
    <path id="Caminho_174" data-name="Caminho 174" d="M114.9,412.692h5.829a.987.987,0,0,0,0-1.974H114.9a.987.987,0,1,0,0,1.974Z" transform="translate(-98.92 -360.916)" fill="#404040"/>
  </g>
</svg>
