<svg xmlns="http://www.w3.org/2000/svg" width="63.886" height="63.886" viewBox="0 0 63.886 63.886">
  <g id="icon__gestao" transform="translate(0)">
    <path id="Caminho_208" data-name="Caminho 208" d="M63.887,12.365V6.183H48.144L46.083,0H30.171L28.11,6.183H12.366v6.183h2.061v7.213a7.222,7.222,0,0,0-7.213,7.213v3.091a7.2,7.2,0,0,0,3.091,5.91v1.566l-6.633,1.99A5.128,5.128,0,0,0,0,44.308V55.643A2.063,2.063,0,0,0,2.062,57.7h1.03v6.183H25.762v-10.3H37.1v4.311a3.091,3.091,0,1,0,2.061,0V53.582h24.73V47.4H61.827V12.365ZM38.127,61.826a1.03,1.03,0,1,1,1.03-1.03A1.032,1.032,0,0,1,38.127,61.826ZM14.427,8.243H29.6l2.061-6.183H44.6l2.061,6.183H61.827V10.3h-47.4ZM9.275,29.882V26.791a5.152,5.152,0,0,1,10.3,0v3.091a5.152,5.152,0,0,1-10.3,0ZM14.427,37.1a7.169,7.169,0,0,0,2.061-.3v1.053a2.648,2.648,0,0,1-2.061,1.312,2.635,2.635,0,0,1-2.061-1.314V36.791A7.17,7.17,0,0,0,14.427,37.1ZM2.062,53.582H13.4a1.03,1.03,0,1,1,0,2.061H2.062Zm17.517,8.243H9.275V57.7H13.4a3.091,3.091,0,1,0,0-6.183H9.275V47.4h10.3ZM5.153,57.7H7.214v4.122H5.153ZM23.7,61.826H21.64V45.339H7.214v6.183H2.062V44.285a3.073,3.073,0,0,1,2.2-2.961L10.9,39.332a4.481,4.481,0,0,0,3.527,1.885,4.555,4.555,0,0,0,3.658-2.061H28.853v4.122H23.7Zm38.126-10.3H25.762V49.46H61.826ZM59.766,47.4h-34V45.339h5.152v-1.03h9.274a3.091,3.091,0,0,0,0-6.183H30.914V37.1H18.549v-1.3a7.205,7.205,0,0,0,3.091-5.91V26.791a7.262,7.262,0,0,0-.083-1.03H35.035V23.7H32.975V15.456H30.914V23.7H28.853V17.517H26.792V23.7H24.731V20.609H22.67V23.7H20.934a7.24,7.24,0,0,0-4.446-3.818V12.365H59.766ZM30.914,40.187h9.274a1.03,1.03,0,0,1,0,2.061H30.914Zm0,0" transform="translate(-0.001)" fill="#404040"/>
    <path id="Caminho_209" data-name="Caminho 209" d="M256,32h10.3v2.061H256Zm0,0" transform="translate(-223.026 -27.878)" fill="#404040"/>
    <path id="Caminho_210" data-name="Caminho 210" d="M298.3,132.609A10.3,10.3,0,1,0,288,122.3,10.316,10.316,0,0,0,298.3,132.609Zm-8.172-9.274h4.2a4.116,4.116,0,0,0,2.945,2.945v4.2A8.253,8.253,0,0,1,290.132,123.335Zm8.172-3.091a2.061,2.061,0,1,1-2.061,2.061A2.063,2.063,0,0,1,298.3,120.243Zm1.03,10.233v-4.2a4.116,4.116,0,0,0,2.945-2.945h4.2a8.253,8.253,0,0,1-7.142,7.142Zm7.142-9.2h-4.2a4.115,4.115,0,0,0-2.945-2.945v-4.2A8.253,8.253,0,0,1,306.477,121.274Zm-9.2-7.142v4.2a4.116,4.116,0,0,0-2.945,2.945h-4.2a8.253,8.253,0,0,1,7.142-7.142Zm0,0" transform="translate(-250.905 -97.574)" fill="#404040"/>
    <path id="Caminho_211" data-name="Caminho 211" d="M184,256h2.061v2.061H184Zm0,0" transform="translate(-160.3 -223.026)" fill="#404040"/>
    <path id="Caminho_212" data-name="Caminho 212" d="M216,256h2.061v2.061H216Zm0,0" transform="translate(-188.179 -223.026)" fill="#404040"/>
    <path id="Caminho_213" data-name="Caminho 213" d="M248,256h2.061v2.061H248Zm0,0" transform="translate(-216.057 -223.026)" fill="#404040"/>
    <path id="Caminho_214" data-name="Caminho 214" d="M184,224h10.3v2.061H184Zm0,0" transform="translate(-160.3 -195.148)" fill="#404040"/>
    <path id="Caminho_215" data-name="Caminho 215" d="M360,336h2.061v2.061H360Zm0,0" transform="translate(-313.631 -292.722)" fill="#404040"/>
    <path id="Caminho_216" data-name="Caminho 216" d="M392,336h2.061v2.061H392Zm0,0" transform="translate(-341.509 -292.722)" fill="#404040"/>
    <path id="Caminho_217" data-name="Caminho 217" d="M424,336h2.061v2.061H424Zm0,0" transform="translate(-369.387 -292.722)" fill="#404040"/>
    <path id="Caminho_218" data-name="Caminho 218" d="M352,304h12.365v2.061H352Zm0,0" transform="translate(-306.661 -264.844)" fill="#404040"/>
  </g>
</svg>
