<svg xmlns="http://www.w3.org/2000/svg" width="62.991" height="76.149" viewBox="0 0 62.991 76.149">
  <g id="icon__missao" transform="translate(-14571.856 -1278)">
    <path id="path482" d="M609.64-332.859a1.113,1.113,0,0,1-.209-.019l-4.259-.751a1.206,1.206,0,0,1-.979-1.4,1.2,1.2,0,0,1,1.4-.979l4.256.751a1.21,1.21,0,0,1,.981,1.4,1.21,1.21,0,0,1-1.189,1" transform="translate(14024 1639.607)" fill="#404040"/>
    <path id="path484" d="M605.985-322.823a1.189,1.189,0,0,1-.6-.161l-3.743-2.161a1.205,1.205,0,0,1-.441-1.649,1.206,1.206,0,0,1,1.648-.441l3.743,2.161a1.206,1.206,0,0,1,.441,1.649,1.205,1.205,0,0,1-1.045.6" transform="translate(14024 1639.607)" fill="#404040"/>
    <path id="path486" d="M599.12-314.641a1.2,1.2,0,0,1-.925-.432l-2.777-3.311a1.207,1.207,0,0,1,.148-1.7,1.209,1.209,0,0,1,1.7.148l2.777,3.312a1.207,1.207,0,0,1-.149,1.7,1.2,1.2,0,0,1-.776.283" transform="translate(14024 1639.607)" fill="#404040"/>
    <path id="path488" d="M559.581-314.641a1.2,1.2,0,0,1-.775-.283,1.206,1.206,0,0,1-.148-1.7l2.777-3.312a1.207,1.207,0,0,1,1.7-.148,1.206,1.206,0,0,1,.148,1.7l-2.777,3.311a1.2,1.2,0,0,1-.927.432" transform="translate(14024 1639.607)" fill="#404040"/>
    <path id="path490" d="M552.719-322.823a1.209,1.209,0,0,1-1.048-.6,1.209,1.209,0,0,1,.441-1.649l3.745-2.161a1.208,1.208,0,0,1,1.649.441,1.209,1.209,0,0,1-.443,1.649l-3.743,2.161a1.2,1.2,0,0,1-.6.161" transform="translate(14024 1639.607)" fill="#404040"/>
    <path id="path492" d="M549.063-332.859a1.209,1.209,0,0,1-1.188-1,1.207,1.207,0,0,1,.98-1.4l4.256-.751a1.2,1.2,0,0,1,1.4.979,1.207,1.207,0,0,1-.979,1.4l-4.257.751a1.144,1.144,0,0,1-.211.019" transform="translate(14024 1639.607)" fill="#404040"/>
    <path id="path494" d="M579.352-322.382a17.044,17.044,0,0,1-17.025-17.025,17.044,17.044,0,0,1,17.025-17.025,16.865,16.865,0,0,1,7.3,1.639,1.205,1.205,0,0,1,.572,1.608,1.2,1.2,0,0,1-1.608.572,14.477,14.477,0,0,0-6.26-1.4,14.628,14.628,0,0,0-14.612,14.611A14.628,14.628,0,0,0,579.352-324.8a14.626,14.626,0,0,0,14.609-14.611,14.511,14.511,0,0,0-2.768-8.561,1.207,1.207,0,0,1,.269-1.685,1.208,1.208,0,0,1,1.687.269,16.9,16.9,0,0,1,3.228,9.977,17.045,17.045,0,0,1-17.025,17.025" transform="translate(14024 1639.607)" fill="#404040"/>
    <path id="path496" d="M573.78-317.918v2.02a.23.23,0,0,0,.229.229h1.817a1.207,1.207,0,0,1,1.207,1.208v3.021a2.018,2.018,0,0,0,.607,1.457,2.34,2.34,0,0,0,1.648.661,2.43,2.43,0,0,0,1.775-.661,2.017,2.017,0,0,0,.607-1.457v-3.021a1.209,1.209,0,0,1,1.208-1.208h1.816a.229.229,0,0,0,.229-.229v-2.02A22.274,22.274,0,0,1,573.78-317.918Zm5.635,11.012a4.861,4.861,0,0,1-3.477-1.363,4.443,4.443,0,0,1-1.319-3.171v-1.815h-.609a2.647,2.647,0,0,1-2.644-2.644v-3.643a1.207,1.207,0,0,1,.505-.983,1.2,1.2,0,0,1,1.091-.16,19.857,19.857,0,0,0,12.779,0,1.2,1.2,0,0,1,1.092.161,1.2,1.2,0,0,1,.505.981v3.643a2.646,2.646,0,0,1-2.644,2.644h-.609v1.815a4.443,4.443,0,0,1-1.319,3.171,4.778,4.778,0,0,1-3.351,1.363" transform="translate(14024 1639.607)" fill="#404040"/>
    <path id="path498" d="M579.352-317.207a22.224,22.224,0,0,1-18.264-9.576,1.207,1.207,0,0,1,.3-1.68,1.209,1.209,0,0,1,1.681.307,19.809,19.809,0,0,0,16.279,8.535,19.807,19.807,0,0,0,19.785-19.785,19.807,19.807,0,0,0-19.785-19.785,19.807,19.807,0,0,0-19.785,19.785,20.06,20.06,0,0,0,.237,3.075,1.208,1.208,0,0,1-1.008,1.377,1.212,1.212,0,0,1-1.379-1.008,22.493,22.493,0,0,1-.265-3.444,22.225,22.225,0,0,1,22.2-22.2,22.225,22.225,0,0,1,22.2,22.2,22.225,22.225,0,0,1-22.2,22.2" transform="translate(14024 1639.607)" fill="#404040"/>
    <path id="path500" d="M579.083-313.254h-3.256a1.207,1.207,0,0,1-1.208-1.207,1.209,1.209,0,0,1,1.208-1.208h3.256a1.207,1.207,0,0,1,1.207,1.208,1.206,1.206,0,0,1-1.207,1.207" transform="translate(14024 1639.607)" fill="#404040"/>
    <path id="path502" d="M575.619-308.447v16.841a3.737,3.737,0,0,0,3.733,3.733,3.737,3.737,0,0,0,3.732-3.733v-16.841c-.088.036-.179.073-.269.108a4.773,4.773,0,0,1-3.431,1.433,4.8,4.8,0,0,1-3.5-1.433C575.8-308.374,575.708-308.411,575.619-308.447Zm3.733,22.989a6.154,6.154,0,0,1-6.147-6.148v-18.9a1.2,1.2,0,0,1,.66-1.076,1.206,1.206,0,0,1,1.256.1,7.275,7.275,0,0,0,1.865.976,1.192,1.192,0,0,1,.528.368,2.3,2.3,0,0,0,1.791.819,2.355,2.355,0,0,0,1.881-.819,1.211,1.211,0,0,1,.531-.368,7.237,7.237,0,0,0,1.863-.976,1.206,1.206,0,0,1,1.257-.1,1.2,1.2,0,0,1,.66,1.076v18.9a6.153,6.153,0,0,1-6.145,6.148" transform="translate(14024 1639.607)" fill="#404040"/>
    <path id="path504" d="M584.291-292.073h-9.879a1.207,1.207,0,0,1-1.207-1.208,1.206,1.206,0,0,1,1.207-1.207h9.879a1.206,1.206,0,0,1,1.207,1.207,1.207,1.207,0,0,1-1.207,1.208" transform="translate(14024 1639.607)" fill="#404040"/>
    <path id="path506" d="M574.355-323.5a.967.967,0,0,1-.967-.967v-8.844a.967.967,0,0,1,.967-.967.967.967,0,0,1,.967.967v8.844a.967.967,0,0,1-.967.967" transform="translate(14024 1639.607)" fill="#404040"/>
    <path id="path508" d="M584.349-323.438a.965.965,0,0,1-.965-.965v-8.911a.965.965,0,0,1,.965-.967.966.966,0,0,1,.967.967v8.911a.965.965,0,0,1-.967.965" transform="translate(14024 1639.607)" fill="#404040"/>
    <path id="path510" d="M579.325-342.22c.917.041,1.664-.555,2.285-1.724a6.692,6.692,0,0,0,.744-3.157,1.417,1.417,0,0,0-.641-1.2,4.57,4.57,0,0,0-2.381-.807,4.767,4.767,0,0,0-2.261.621,1.421,1.421,0,0,0-.724,1.248v.133a6.719,6.719,0,0,0,.733,3.135C577.705-342.783,578.491-342.2,579.325-342.22Zm.111,1.932c-.076,0-.145,0-.217,0-1.084,0-2.644-.5-3.847-2.775a8.653,8.653,0,0,1-.956-4.039v-.133a3.351,3.351,0,0,1,1.721-2.939,6.7,6.7,0,0,1,3.195-.863,6.487,6.487,0,0,1,3.432,1.117,3.34,3.34,0,0,1,1.523,2.817,8.661,8.661,0,0,1-.971,4.068c-1.2,2.251-2.755,2.745-3.88,2.745" transform="translate(14024 1639.607)" fill="#404040"/>
    <path id="path512" d="M571.141-327.046a14.722,14.722,0,0,0,8.211,2.491,14.714,14.714,0,0,0,8.208-2.491v-7.376a3.214,3.214,0,0,0-3.211-3.209h-9.995a3.216,3.216,0,0,0-3.213,3.212Zm8.211,4.423a16.673,16.673,0,0,1-9.739-3.129.97.97,0,0,1-.4-.787v-7.88a5.149,5.149,0,0,1,5.144-5.144h9.995a5.149,5.149,0,0,1,5.144,5.141v7.883a.969.969,0,0,1-.405.787,16.662,16.662,0,0,1-9.736,3.129" transform="translate(14024 1639.607)" fill="#404040"/>
  </g>
</svg>
