<svg xmlns="http://www.w3.org/2000/svg" width="76.222" height="42.865" viewBox="0 0 76.222 42.865">
  <g id="icon__visao" transform="translate(-14024 -1484.957)">
    <path id="path310" d="M38.111-111.785c-16.873,0-31.785-8.205-37.988-20.9a1.2,1.2,0,0,1,0-1.06c6.2-12.7,21.115-20.9,37.988-20.9a50.024,50.024,0,0,1,11.27,1.273,1.209,1.209,0,0,1,.9,1.449,1.208,1.208,0,0,1-1.449.9,47.541,47.541,0,0,0-10.725-1.211c-15.719,0-29.6,7.445-35.553,19.017C8.516-121.645,22.393-114.2,38.111-114.2s29.6-7.445,35.552-19.017c-3.278-6.355-9.193-11.7-16.72-15.084a1.208,1.208,0,0,1-.6-1.6,1.208,1.208,0,0,1,1.6-.605c8.248,3.711,14.7,9.663,18.164,16.755a1.206,1.206,0,0,1,0,1.06c-6.2,12.7-21.115,20.9-37.988,20.9" transform="translate(14024 1639.607)" fill="#404040"/>
    <path id="path312" d="M2.7-133.217c6.007,7.856,20.07,13.084,35.411,13.084s29.4-5.228,35.411-13.084c-6.007-7.856-20.07-13.085-35.411-13.085S8.707-141.073,2.7-133.217Zm35.411,15.5c-16.8,0-31.674-5.816-37.9-14.815a1.208,1.208,0,0,1,0-1.372c6.222-9,21.1-14.812,37.9-14.812s31.675,5.813,37.9,14.812a1.207,1.207,0,0,1,0,1.372c-6.222,9-21.1,14.815-37.9,14.815" transform="translate(14024 1639.607)" fill="#404040"/>
    <path id="path314" d="M38.111-146.244a13.041,13.041,0,0,0-13.027,13.027A13.043,13.043,0,0,0,38.111-120.19a13.043,13.043,0,0,0,13.027-13.026A13.041,13.041,0,0,0,38.111-146.244Zm0,28.469A15.461,15.461,0,0,1,22.67-133.217,15.46,15.46,0,0,1,38.111-148.66a15.46,15.46,0,0,1,15.442,15.443,15.461,15.461,0,0,1-15.442,15.443" transform="translate(14024 1639.607)" fill="#404040"/>
    <path id="path316" d="M38.111-125.464a7.762,7.762,0,0,1-7.754-7.753,1.208,1.208,0,0,1,1.207-1.208,1.208,1.208,0,0,1,1.207,1.208,5.345,5.345,0,0,0,5.34,5.339,5.345,5.345,0,0,0,5.339-5.339,5.345,5.345,0,0,0-5.339-5.339,1.208,1.208,0,0,1-1.207-1.209,1.207,1.207,0,0,1,1.207-1.207,7.762,7.762,0,0,1,7.754,7.755,7.762,7.762,0,0,1-7.754,7.753" transform="translate(14024 1639.607)" fill="#404040"/>
    <path id="path318" d="M35.911-132.011a1.207,1.207,0,0,1-1.208-1.206,3.411,3.411,0,0,1,3.408-3.408,1.207,1.207,0,0,1,1.207,1.208,1.207,1.207,0,0,1-1.207,1.207.994.994,0,0,0-.993.993,1.206,1.206,0,0,1-1.207,1.206" transform="translate(14024 1639.607)" fill="#404040"/>
  </g>
</svg>
