<svg id="logo-yapay" xmlns="http://www.w3.org/2000/svg" width="105.655" height="29.776" viewBox="0 0 105.655 29.776">
  <path id="Caminho_99" data-name="Caminho 99" d="M134.313,29.269h-2.549s-.018-24.044-.018-27.712c0-.844.238-1.118,1.082-1.082A3.46,3.46,0,0,1,136.055,2.2c4.6-3.686,11.132-2.384,14.507,1.523a11.022,11.022,0,0,1,.349,14.1,10.708,10.708,0,0,1-14.4,2.329v6.932a2.191,2.191,0,0,1-2.2,2.182Zm7.959-12.013a6.282,6.282,0,1,0-6.254-6.29A6.282,6.282,0,0,0,142.272,17.257Z" transform="translate(-89.692 -0.012)" fill="#224178"/>
  <path id="Caminho_100" data-name="Caminho 100" d="M120.779,2.207A3.467,3.467,0,0,1,124.245.483c.624,0,.825.184.807.788-.018,2-.018,4-.018,6,0,4.383.018,12.434.018,13.15s-.147,1.082-1.009,1.064a3.5,3.5,0,0,1-3.3-1.76,9.908,9.908,0,0,1-9,1.889,10.677,10.677,0,0,1-6.181-4.273,11.055,11.055,0,0,1,1.027-14.011,10.659,10.659,0,0,1,14.195-1.119Zm-6.309,15.038a6.282,6.282,0,0,0,.183-12.563,6.282,6.282,0,1,0-.183,12.563ZM76.764,2.207A3.538,3.538,0,0,1,80.249.464c.624,0,.825.2.807.807-.018,2-.018,14.763,0,19.165,0,.77-.147,1.082-1.009,1.064a3.505,3.505,0,0,1-3.3-1.761,9.908,9.908,0,0,1-9,1.889,10.675,10.675,0,0,1-6.181-4.273A11.055,11.055,0,0,1,62.588,3.344,10.616,10.616,0,0,1,76.764,2.207ZM70.455,17.245a6.282,6.282,0,0,0,.183-12.563,6.282,6.282,0,1,0-.183,12.563Z" transform="translate(-40.525 0)" fill="#224178"/>
  <path id="Caminho_101" data-name="Caminho 101" d="M88.2,29.766c.917-2.109,2.164-4.915,2.806-6.309a4.011,4.011,0,0,0-.018-3.76C88.4,13.957,85.9,8.162,83.372,2.367c-.11-.238.183-.972.183-.972h1.064c3.723,0,3.356-.11,4.823,3.173,1.632,3.668,3.228,7.336,4.9,11.151.935-2.146,1.834-4.145,2.714-6.162C97.787,7.869,99.107,4.751,99.9,2.9a2.461,2.461,0,0,1,2.274-1.5h3.484s-7.941,18.34-11.682,26.849c-1.1,2.568-3.3,3.173-5.777,1.523Zm-82.9,0c.917-2.109,2.182-4.842,2.806-6.309a4.061,4.061,0,0,0-.018-3.76C5.5,13.958,0,1.34,0,1.34H1.614c3.723,0,3.485-.055,4.952,3.246,1.632,3.668,3.228,7.335,4.9,11.15.935-2.146,1.834-4.145,2.714-6.162.734-1.687,2.054-4.8,2.843-6.657a2.461,2.461,0,0,1,2.274-1.5h3.484S14.837,19.753,11.1,28.262c-1.119,2.549-3.32,3.154-5.8,1.5Z" transform="translate(0 -0.912)" fill="#224178"/>
</svg>
