<svg xmlns="http://www.w3.org/2000/svg" width="108.078" height="61.818" viewBox="0 0 108.078 61.818">
  <path id="logo-allin" d="M162.736,133.52a2.7,2.7,0,0,1,2.748-2.818,2.795,2.795,0,0,1,0,5.586,2.684,2.684,0,0,1-2.748-2.767m-.857-.037a3.539,3.539,0,0,0,3.6,3.6,3.146,3.146,0,0,0,2.612-1.359h.019v1.2h.856v-9.233h-.856v3.578h-.025a3.126,3.126,0,0,0-2.612-1.348,3.548,3.548,0,0,0-3.6,3.566m-6.314-3.391h-.86v3.767a3.521,3.521,0,0,0,.59,2.194,2.863,2.863,0,0,0,2.3,1.023,2.292,2.292,0,0,0,2.146-1.223h.025v1.059h.809v-6.82h-.859V133.7a2.593,2.593,0,0,1-.7,2.044,1.9,1.9,0,0,1-1.423.548c-1.533,0-2.035-1.034-2.035-2.444Zm-19.55,3.418a3.622,3.622,0,0,0,6.94,1.395h-.944a2.577,2.577,0,0,1-2.366,1.384,2.793,2.793,0,0,1,.007-5.584,2.645,2.645,0,0,1,2.366,1.447h.93a3.536,3.536,0,0,0-3.335-2.232,3.6,3.6,0,0,0-3.6,3.6m-8.485,2.779a2.711,2.711,0,0,1-2.647-2.779,2.66,2.66,0,1,1,2.653,2.775m2.612-.623v.6a2.328,2.328,0,0,1-2.429,2.547,2.589,2.589,0,0,1-2.513-1.72h-.906a3.4,3.4,0,0,0,3.434,2.507,3.343,3.343,0,0,0,2.659-1.26,3.956,3.956,0,0,0,.613-2.493V130.09h-.859v1.223h-.022a3,3,0,0,0-2.589-1.4,3.554,3.554,0,0,0-3.506,3.615,3.508,3.508,0,0,0,3.506,3.542,2.873,2.873,0,0,0,2.589-1.41Zm-14.856-5.574h-.859v6.82h.859Zm-22.1,0h-.859v6.82h.859v-3.99a1.944,1.944,0,0,1,1.912-2.083v-.923a1.9,1.9,0,0,0-1.888,1.16h-.024ZM84.51,133.52a2.706,2.706,0,0,1,2.748-2.818,2.795,2.795,0,0,1,0,5.586,2.684,2.684,0,0,1-2.748-2.767m-.859-.037a3.541,3.541,0,0,0,3.606,3.6,3.063,3.063,0,0,0,2.612-1.359H89.9v1.2h.856V130.09H89.9v1.2h-.025a2.987,2.987,0,0,0-2.612-1.371,3.549,3.549,0,0,0-3.606,3.566M73.3,130.09H72.44v6.82H73.3v-3.951c0-1.211.5-2.258,1.828-2.258s1.828,1.049,1.828,2.258v3.951h.859v-3.951c0-1.211.5-2.258,1.826-2.258s1.826,1.049,1.826,2.258v3.951h.859v-4.045a2.658,2.658,0,0,0-2.685-2.943,2.554,2.554,0,0,0-2.258,1.309,2.5,2.5,0,0,0-2.247-1.31,2.089,2.089,0,0,0-1.828.96Zm12.941-17.451H81.475l2.336-7.906H83.9Zm2.643,8.025h6.3L86.146,97.546H81.568L72.44,120.664h6.239l1.2-3.343h7.9Zm8.432,13.587h-.024v-6.566h-.859v9.225h.859v-1.3l1.079-1.4,2.207,2.7h1.1l-2.785-3.383,2.65-3.446h-1.1ZM97.3,120.664h5.1V97.546H97.3Zm10.771,12.364h-5.235a2.635,2.635,0,0,1,5.235,0m-2.635-3.116a3.582,3.582,0,0,0,.012,7.162,3.519,3.519,0,0,0,3.3-2.4h-.906a2.532,2.532,0,0,1-2.4,1.608,2.674,2.674,0,0,1-2.6-2.468h6.1c0-.087.015-.162.015-.25a3.607,3.607,0,0,0-3.52-3.653m.644-9.249h5.1V97.546h-5.1Zm5.813,10.208h1.606v-.787h-1.6v-2.4h-.859v2.4h-1.41v.787h1.41v6.034h.859Zm3.377-3.191h-.859v1.57h.859Zm-.4-26.195h5.1V97.546h-5.1Zm0,19.178h5.1V103.327h-5.1Zm7.042,16.242h.859v-3.749c0-1.882-1.031-3.241-2.953-3.241a2.416,2.416,0,0,0-2.062,1.049h-.025v-.874h-.866v6.82h.859V133.1a2.549,2.549,0,0,1,.626-1.808,2.111,2.111,0,0,1,2.919,0,2.639,2.639,0,0,1,.637,1.87Zm16.1-16.242h5.039V97.546H137.5l.246,14.468-.061.063-8.789-14.533h-5.009v23.122h5.562l-.15-14.03.061-.031Zm6.222,16.242h.859v-9.221h-.859Zm5.68-6.2a2.8,2.8,0,1,1-2.647,2.83,2.722,2.722,0,0,1,2.647-2.83m-.012-.785a3.579,3.579,0,1,0,3.52,3.578,3.573,3.573,0,0,0-3.52-3.578m21.682-25.829a6.346,6.346,0,1,1-12.691,0V93.61a6.346,6.346,0,1,1,12.691,0Zm1.741,0V93.611a8.092,8.092,0,1,0-16.182,0v10.479a8.092,8.092,0,1,0,16.182,0m1.713.234a9.792,9.792,0,1,1-19.581,0V93.359a9.792,9.792,0,1,1,19.581,0Zm1.74,0V93.359a11.538,11.538,0,1,0-23.074,0v10.963a11.538,11.538,0,1,0,23.074,0m1.993.15a13.617,13.617,0,0,1-13.485,13.714,13.3,13.3,0,0,1-7.192-2.128.85.85,0,0,0-.877-.033l-7.018,3.83,3.759-7.123a.9.9,0,0,0-.033-.9,13.834,13.834,0,0,1-2.123-7.366v-11.2a13.487,13.487,0,1,1,26.969,0Zm1.74,0V93.266a15.232,15.232,0,1,0-30.459,0v11.2a15.612,15.612,0,0,0,2.128,7.872l-3.944,7.471a1.507,1.507,0,0,0,.256,1.768,1.447,1.447,0,0,0,1.737.259l7.364-4.023a14.983,14.983,0,0,0,7.689,2.132,15.375,15.375,0,0,0,15.229-15.485" transform="translate(-72.44 -77.78)" fill="#ef4924"/>
</svg>
