<svg xmlns="http://www.w3.org/2000/svg" width="140.771" height="22.053" viewBox="0 0 140.771 22.053">
  <g id="logo-google-cloud" transform="translate(0.008 -0.003)">
    <g id="Grupo_63" data-name="Grupo 63" transform="translate(-0.008 0.004)">
      <path id="Caminho_123" data-name="Caminho 123" d="M214.312,5.787h.8l2.268-2.268.111-.963A10.2,10.2,0,0,0,200.9,7.53a1.228,1.228,0,0,1,.8-.047l4.536-.749s.23-.382.351-.359a5.658,5.658,0,0,1,7.744-.589Z" transform="translate(-197.753 -0.004)" fill="#ea4335"/>
      <path id="Caminho_124" data-name="Caminho 124" d="M804.318,168.465a10.21,10.21,0,0,0-3.08-4.965l-3.183,3.183a5.66,5.66,0,0,1,2.077,4.489v.565a2.834,2.834,0,0,1,0,5.667h-5.667l-.565.573v3.4l.565.565h5.667a7.372,7.372,0,0,0,4.185-13.477Z" transform="translate(-781.464 -160.939)" fill="#4285f4"/>
      <path id="Caminho_125" data-name="Caminho 125" d="M188.149,1037.492h5.667v-4.536h-5.667a2.819,2.819,0,0,1-1.17-.255l-.8.247-2.284,2.268-.2.8A7.315,7.315,0,0,0,188.149,1037.492Z" transform="translate(-180.822 -1016.524)" fill="#34a853"/>
      <path id="Caminho_126" data-name="Caminho 126" d="M7.318,399.2A7.369,7.369,0,0,0,2.87,412.407l3.286-3.286A2.833,2.833,0,1,1,9.9,405.373l3.286-3.286A7.353,7.353,0,0,0,7.318,399.2Z" transform="translate(0.008 -392.943)" fill="#fbbc05"/>
    </g>
    <g id="Grupo_66" data-name="Grupo 66" transform="translate(33.718 3.071)">
      <g id="Grupo_64" data-name="Grupo 64">
        <path id="Caminho_127" data-name="Caminho 127" d="M2160.521,210.593a7.248,7.248,0,0,1-5.252-2.157,7.211,7.211,0,0,1,0-10.379,7.246,7.246,0,0,1,5.252-2.2,7.035,7.035,0,0,1,5.037,2.03l-1.416,1.441a5.107,5.107,0,0,0-3.622-1.433,5.05,5.05,0,0,0-3.741,1.591,5.36,5.36,0,0,0,0,7.512,5.34,5.34,0,0,0,7.45.088,4.228,4.228,0,0,0,1.09-2.475h-4.776v-2.036h6.758a6.625,6.625,0,0,1,.08,1.242,6.373,6.373,0,0,1-1.743,4.7A6.778,6.778,0,0,1,2160.521,210.593Zm15.711-1.353a4.872,4.872,0,0,1-6.742,0,4.842,4.842,0,0,1,0-6.764,4.881,4.881,0,0,1,6.742,0,4.832,4.832,0,0,1-.008,6.764Zm-5.254-1.328a2.578,2.578,0,0,0,3.645.119c.04-.039.081-.078.119-.119a3.058,3.058,0,0,0,0-4.115,2.62,2.62,0,0,0-3.7-.078c-.027.025-.053.052-.078.078a3.047,3.047,0,0,0,.008,4.115Zm15.615,1.328a4.872,4.872,0,0,1-6.742,0,4.842,4.842,0,0,1,0-6.764,4.872,4.872,0,0,1,6.742,0,4.84,4.84,0,0,1,0,6.764Zm-5.252-1.328a2.577,2.577,0,0,0,3.645.119c.041-.039.082-.078.119-.119a3.057,3.057,0,0,0,0-4.115,2.618,2.618,0,0,0-3.7-.078c-.026.025-.053.052-.078.078a3.046,3.046,0,0,0,.008,4.115Zm12.064,6.931a4.175,4.175,0,0,1-2.651-.844,4.886,4.886,0,0,1-1.544-1.958l1.814-.757a3.048,3.048,0,0,0,.9,1.186,2.268,2.268,0,0,0,1.488.5,2.39,2.39,0,0,0,1.855-.716,2.91,2.91,0,0,0,.661-2.069V209.5h-.072a3.037,3.037,0,0,1-2.49,1.075,4.321,4.321,0,0,1-3.183-1.385,4.581,4.581,0,0,1-1.361-3.335,4.629,4.629,0,0,1,1.361-3.358,4.312,4.312,0,0,1,3.183-1.393,3.429,3.429,0,0,1,1.465.326,2.942,2.942,0,0,1,1.035.757h.072v-.757h1.973v8.476a4.942,4.942,0,0,1-1.265,3.7A4.457,4.457,0,0,1,2193.405,214.843Zm.145-6.112a2.316,2.316,0,0,0,1.8-.8,2.944,2.944,0,0,0,.724-2.038,3.008,3.008,0,0,0-.724-2.077,2.311,2.311,0,0,0-1.8-.8,2.462,2.462,0,0,0-1.863.8,2.906,2.906,0,0,0-.8,2.061,2.851,2.851,0,0,0,.8,2.038A2.467,2.467,0,0,0,2193.55,208.73Zm7.87-12.335v13.911h-2.077V196.4Zm5.7,14.2a4.515,4.515,0,0,1-3.351-1.361,4.609,4.609,0,0,1-1.346-3.374,4.674,4.674,0,0,1,1.3-3.407,4.276,4.276,0,0,1,3.183-1.33,4.02,4.02,0,0,1,1.591.31,3.754,3.754,0,0,1,1.217.8,5.526,5.526,0,0,1,.8.963,5.779,5.779,0,0,1,.47.93l.215.542-6.366,2.619a2.389,2.389,0,0,0,2.292,1.433,2.717,2.717,0,0,0,2.333-1.313l1.591,1.075a5.229,5.229,0,0,1-1.529,1.449A4.334,4.334,0,0,1,2207.119,210.593Zm-2.658-4.879,4.234-1.759a1.461,1.461,0,0,0-.661-.724,2.158,2.158,0,0,0-1.09-.279,2.458,2.458,0,0,0-1.71.757A2.522,2.522,0,0,0,2204.461,205.714Z" transform="translate(-2153.063 -195.86)" fill="#5f6368"/>
      </g>
      <g id="Grupo_65" data-name="Grupo 65" transform="translate(62.339 1.31)">
        <path id="Caminho_128" data-name="Caminho 128" d="M6139.5,292.938a6.558,6.558,0,0,1-6.669-6.444c0-.088,0-.177,0-.265a6.558,6.558,0,0,1,6.4-6.709c.087,0,.177,0,.264,0a5.94,5.94,0,0,1,4.72,2.1l-1.146,1.114a4.33,4.33,0,0,0-3.566-1.632,4.866,4.866,0,0,0-3.541,1.416,5.492,5.492,0,0,0,0,7.418,4.86,4.86,0,0,0,3.541,1.416,5.061,5.061,0,0,0,3.979-1.862l1.146,1.147a6.259,6.259,0,0,1-2.2,1.679A6.7,6.7,0,0,1,6139.5,292.938Z" transform="translate(-6132.834 -279.516)" fill="#5f6368"/>
        <path id="Caminho_129" data-name="Caminho 129" d="M6979.448,310.354H6977.8V297.5h1.648Z" transform="translate(-6964.564 -297.218)" fill="#5f6368"/>
        <path id="Caminho_130" data-name="Caminho 130" d="M7174.639,540.113a4.61,4.61,0,0,1,6.5,0,5.027,5.027,0,0,1,0,6.685,4.61,4.61,0,0,1-6.5,0,5.027,5.027,0,0,1,0-6.685Zm1.225,5.652a2.778,2.778,0,0,0,3.927.108c.038-.034.074-.072.108-.108a3.549,3.549,0,0,0,0-4.615,2.777,2.777,0,0,0-3.926-.108c-.039.034-.074.072-.109.108a3.528,3.528,0,0,0,.008,4.607Z" transform="translate(-7157.065 -534.714)" fill="#5f6368"/>
        <path id="Caminho_131" data-name="Caminho 131" d="M7843.908,565.986h-1.592v-1.217h-.047a3.071,3.071,0,0,1-1.163,1.1,3.24,3.24,0,0,1-1.632.437,3.1,3.1,0,0,1-2.5-1,3.982,3.982,0,0,1-.852-2.69V557.2h1.648v5.11q0,2.46,2.172,2.459a2.023,2.023,0,0,0,1.672-.8,3,3,0,0,0,.645-1.9V557.2h1.648v8.786Z" transform="translate(-7809.438 -552.85)" fill="#5f6368"/>
        <path id="Caminho_132" data-name="Caminho 132" d="M8427.871,310.641a3.866,3.866,0,0,1-2.945-1.346,5.122,5.122,0,0,1,0-6.67,3.871,3.871,0,0,1,2.945-1.345,3.743,3.743,0,0,1,1.8.429,3.04,3.04,0,0,1,1.192,1.075h.073l-.073-1.217V297.5h1.649v12.854h-1.593v-1.217h-.071a3.036,3.036,0,0,1-1.193,1.075A3.736,3.736,0,0,1,8427.871,310.641Zm.271-1.5a2.626,2.626,0,0,0,1.981-.86,3.773,3.773,0,0,0,0-4.633,2.689,2.689,0,0,0-3.8-.179c-.062.056-.122.118-.178.179a3.735,3.735,0,0,0,0,4.615A2.618,2.618,0,0,0,8428.143,309.137Z" transform="translate(-8387.806 -297.218)" fill="#5f6368"/>
      </g>
    </g>
  </g>
</svg>
