<svg xmlns="http://www.w3.org/2000/svg" xmlns:xlink="http://www.w3.org/1999/xlink" width="121.153" height="24.934" viewBox="0 0 121.153 24.934">
  <defs>
    <linearGradient id="linear-gradient" x1="-4.464" y1="25.553" x2="-4.432" y2="25.553" gradientUnits="objectBoundingBox">
      <stop offset="0" stop-color="#d09910"/>
      <stop offset="1" stop-color="#a65718"/>
    </linearGradient>
    <linearGradient id="linear-gradient-2" x1="-2.287" y1="13.279" x2="-2.267" y2="13.279" gradientUnits="objectBoundingBox">
      <stop offset="0" stop-color="#fd0"/>
      <stop offset="0.9" stop-color="#d09910"/>
      <stop offset="1" stop-color="#fd0"/>
    </linearGradient>
    <linearGradient id="linear-gradient-3" x1="-5.081" y1="27.564" x2="-5.05" y2="27.564" gradientUnits="objectBoundingBox">
      <stop offset="0" stop-color="#00416b"/>
      <stop offset="1" stop-color="#002447"/>
    </linearGradient>
    <linearGradient id="linear-gradient-4" x1="-3.057" y1="13.782" x2="-3.038" y2="13.782" gradientUnits="objectBoundingBox">
      <stop offset="0" stop-color="#00416b"/>
      <stop offset="0.9" stop-color="#00b1eb"/>
      <stop offset="1" stop-color="#0083ca"/>
    </linearGradient>
  </defs>
  <g id="logo-correios" transform="translate(-7613.182 -2250.089)">
    <g id="g4005" transform="translate(7620.73 2266.709)">
      <g id="g4007" transform="translate(0 0)">
        <g id="g4013">
          <g id="g4015">
            <path id="path4023" d="M419.726-1745.614a1.363,1.363,0,0,0-.3.857h0a1.379,1.379,0,0,0,1.382,1.378h10.012l-6.415-8.314Z" transform="translate(-419.427 1751.692)" fill="url(#linear-gradient)"/>
          </g>
        </g>
      </g>
    </g>
    <g id="g4025" transform="translate(7613.182 2258.399)">
      <g id="g4027" transform="translate(0 0)">
        <g id="g4033">
          <g id="g4035">
            <path id="path4045" d="M364.748-1820.217a2.882,2.882,0,0,0-2.3,1.139h0l-5.052,6.561a.985.985,0,0,0-.214.61h0a.979.979,0,0,0,.2.606h0l5.054,6.556.034.046a2.892,2.892,0,0,0,2.219,1.105h1.42a1.379,1.379,0,0,1-1.382-1.378h0a1.363,1.363,0,0,1,.3-.856h0l4.681-6.079,6.415-8.31H364.748Z" transform="translate(-357.182 1820.217)" fill="url(#linear-gradient-2)"/>
          </g>
        </g>
      </g>
    </g>
    <g id="g4047" transform="translate(7627.785 2250.089)">
      <g id="g4049" transform="translate(0)">
        <g id="g4055">
          <g id="g4057">
            <path id="path4065" d="M477.6-1888.738l6.418,8.31,4.685-6.07a1.427,1.427,0,0,0,.3-.859h0a1.383,1.383,0,0,0-1.383-1.382H477.6Z" transform="translate(-477.597 1888.738)" fill="url(#linear-gradient-3)"/>
          </g>
        </g>
      </g>
    </g>
    <g id="g4067" transform="translate(7627.785 2250.089)">
      <g id="g4069" transform="translate(0)">
        <g id="g4075">
          <g id="g4077">
            <path id="path4087" d="M488.4-1888.738h-.791a1.382,1.382,0,0,1,1.383,1.382h0a1.427,1.427,0,0,1-.3.859h0l-4.685,6.07-6.417,8.31h11.376a2.91,2.91,0,0,0,2.308-1.133h0l5.047-6.562a.988.988,0,0,0,.213-.613h0a.981.981,0,0,0-.2-.6h0l-5.053-6.562-.033-.05a2.918,2.918,0,0,0-2.22-1.1h0a.2.2,0,0,0-.039,0H488.4Z" transform="translate(-477.597 1888.738)" fill="url(#linear-gradient-4)"/>
          </g>
        </g>
      </g>
    </g>
    <g id="g4097" transform="translate(7627.785 2250.089)">
      <path id="path4099" d="M-83-16.233a1.381,1.381,0,0,0,.3-.859,1.379,1.379,0,0,0-1.38-1.381h-.357a1.382,1.382,0,0,1,1.383,1.381,1.428,1.428,0,0,1-.3.859l-4.685,6.07-6.418,8.31Z" transform="translate(94.456 18.473)" fill="#00c0f3"/>
    </g>
    <g id="g4101" transform="translate(7620.373 2258.399)">
      <path id="path4103" d="M-2.144-104.258a1.4,1.4,0,0,0-.3.856,1.382,1.382,0,0,0,1.38,1.378H-.7A1.38,1.38,0,0,1-2.083-103.4a1.364,1.364,0,0,1,.3-.856L2.9-110.337l6.415-8.31Z" transform="translate(2.44 118.647)" fill="#ffd400"/>
    </g>
    <g id="g4105" transform="translate(7725.108 2261.584)">
      <path id="path4107" d="M-49.625-41.262a10.831,10.831,0,0,0-1.721-.511c-.963-.24-1.856-.293-2.189-.81a.962.962,0,0,1,.274-1.329,3.144,3.144,0,0,1,2.946-.061c.119.052.648.356.648.356a.472.472,0,0,0,.254.074.487.487,0,0,0,.4-.2c.007-.015,1.349-1.758,1.349-1.758l-.226-.179a5.819,5.819,0,0,0-.513-.341,6.749,6.749,0,0,0-3.408-.933h-.157c-3.9.093-4.442,2.85-4.442,3.823a3.553,3.553,0,0,0,1.905,3.2,18.9,18.9,0,0,0,3.531,1.083,1.445,1.445,0,0,1,.923.767,1.158,1.158,0,0,1,.095.434,1.333,1.333,0,0,1-1.015,1.33,3.827,3.827,0,0,1-3.367-.795,1.546,1.546,0,0,0-.215-.15.488.488,0,0,0-.183-.031.49.49,0,0,0-.4.221l-1.336,1.718s.464.384.618.5a6.53,6.53,0,0,0,3.9,1.339h.068c3.75-.013,4.643-2.675,4.643-4.143a4.006,4.006,0,0,0-2.378-3.6" transform="translate(56.474 46.957)" fill="#00416b"/>
    </g>
    <g id="g4109" transform="translate(7685.471 2261.794)">
      <path id="path4111" d="M-33.136,0A6.2,6.2,0,0,0-34.86.245a3.949,3.949,0,0,0-2.027,1.406,4.379,4.379,0,0,0-.822,2.41V13.2h2.443a.287.287,0,0,0,.284-.284V4.228a1.583,1.583,0,0,1,.364-1.081,1.869,1.869,0,0,1,.988-.412,3.57,3.57,0,0,1,.947-.006.507.507,0,0,0,.062.006.494.494,0,0,0,.418-.24l1.25-2.151A6.2,6.2,0,0,0-33.136,0" transform="translate(37.709 0.005)" fill="#00416b"/>
    </g>
    <g id="g4113" transform="translate(7678.25 2261.794)">
      <path id="path4115" d="M-33.128,0A6.133,6.133,0,0,0-34.85.245a3.948,3.948,0,0,0-2.033,1.406,4.33,4.33,0,0,0-.818,2.41V13.2h2.441a.287.287,0,0,0,.281-.284V4.228a1.558,1.558,0,0,1,.365-1.081,1.868,1.868,0,0,1,.99-.412,3.531,3.531,0,0,1,.942-.006s.044.006.062.006a.5.5,0,0,0,.422-.24l1.25-2.151A6.222,6.222,0,0,0-33.128,0" transform="translate(37.7 0.005)" fill="#00416b"/>
    </g>
    <g id="g4117" transform="translate(7649.5 2258.414)">
      <path id="path4119" d="M-85.66-95.629a.5.5,0,0,0-.4-.2.467.467,0,0,0-.255.07l-.013,0a5.492,5.492,0,0,1-2.85.785,5.563,5.563,0,0,1-5.555-5.559,5.565,5.565,0,0,1,5.555-5.559,5.575,5.575,0,0,1,2.847.781.46.46,0,0,0,.27.08.533.533,0,0,0,.4-.19l1.387-1.807a8.237,8.237,0,0,0-4.906-1.607,8.312,8.312,0,0,0-8.3,8.3,8.314,8.314,0,0,0,8.3,8.307,8.3,8.3,0,0,0,4.912-1.607Z" transform="translate(97.482 108.827)" fill="#00416b"/>
    </g>
    <g id="g4121" transform="translate(7691.845 2261.603)">
      <path id="path4123" d="M-48.549-19.018a4.079,4.079,0,0,1,3.869,2.793h-7.731a4.077,4.077,0,0,1,3.862-2.793m0-2.625a6.708,6.708,0,0,0-6.7,6.7,6.764,6.764,0,0,0,6.707,6.7h.2a6.828,6.828,0,0,0,4.172-1.2l.25-.162s-1.374-1.78-1.388-1.8a.488.488,0,0,0-.393-.19.475.475,0,0,0-.246.064,6.069,6.069,0,0,1-2.6.665,4.082,4.082,0,0,1-3.838-2.708h9.175l1.059-.007a.284.284,0,0,0,.288-.28l.015-.785c0-.1.011-.2.011-.3a6.711,6.711,0,0,0-6.71-6.7" transform="translate(55.249 21.643)" fill="#00416b"/>
    </g>
    <g id="g4125" transform="translate(7706.813 2262.037)">
      <path id="path4127" d="M-2.065-94.089a.282.282,0,0,1-.285-.274v-12.431a.286.286,0,0,1,.272-.28H.089a.284.284,0,0,1,.286.283v12.422a.285.285,0,0,1-.286.281Z" transform="translate(2.35 107.074)" fill="#00416b"/>
    </g>
    <g id="g4129" transform="translate(7663.152 2261.455)">
      <path id="path4131" d="M-49.158-19.828A4.051,4.051,0,0,0-53.2-15.784a4.048,4.048,0,0,0,4.044,4.046,4.048,4.048,0,0,0,4.049-4.046,4.051,4.051,0,0,0-4.049-4.044m0,10.831a6.794,6.794,0,0,1-6.784-6.788,6.79,6.79,0,0,1,6.784-6.78,6.788,6.788,0,0,1,6.785,6.78A6.792,6.792,0,0,1-49.158-9" transform="translate(55.943 22.564)" fill="#00416b"/>
    </g>
    <g id="g4133" transform="translate(7710.897 2261.579)">
      <path id="path4135" d="M-48.631-19.651a4.005,4.005,0,0,0-4,4,4.008,4.008,0,0,0,4,4,4.009,4.009,0,0,0,4-4,4.005,4.005,0,0,0-4-4m0,10.714a6.721,6.721,0,0,1-6.712-6.713,6.718,6.718,0,0,1,6.712-6.713,6.72,6.72,0,0,1,6.715,6.713,6.723,6.723,0,0,1-6.715,6.713" transform="translate(55.342 22.363)" fill="#00416b"/>
    </g>
  </g>
</svg>
