<svg xmlns="http://www.w3.org/2000/svg" width="105.5" height="38.373" viewBox="0 0 105.5 38.373">
  <g id="logo-vtex" transform="translate(-193.248 -186.14)">
    <path id="Caminho_48" data-name="Caminho 48" d="M234.768,186.14H201.254a3.446,3.446,0,0,0-3.047,5.059l3.352,6.348h-6.077a2.235,2.235,0,0,0-1.977,3.276l10.783,20.409a2.235,2.235,0,0,0,3.95,0l2.928-5.513,3.674,6.956a3.448,3.448,0,0,0,6.094.007l16.8-31.611A3.357,3.357,0,0,0,234.768,186.14Zm-15.055,13.506L212.47,213.28a1.488,1.488,0,0,1-2.628,0L202.669,199.7a1.488,1.488,0,0,1,1.31-2.184h14.457a1.447,1.447,0,0,1,1.278,2.126Zm50.7,1.159H266.75v12.564a.433.433,0,0,1-.432.432H263.49a.433.433,0,0,1-.432-.432V200.8h-3.687a.415.415,0,0,1-.432-.41v-2.222a.415.415,0,0,1,.432-.41h11.044a.434.434,0,0,1,.453.41V200.4A.434.434,0,0,1,270.416,200.8Zm11.769,12.906a28.312,28.312,0,0,1-4.357.28c-2.784,0-5.244-.712-5.244-4.64v-7.169c0-3.928,2.482-4.619,5.266-4.619a27.957,27.957,0,0,1,4.335.28c.3.043.432.151.432.432v2.01a.433.433,0,0,1-.432.432h-4.55c-1.014,0-1.381.345-1.381,1.468v1.964h5.759a.433.433,0,0,1,.432.432v2.05a.433.433,0,0,1-.432.432h-5.759v2.288c0,1.122.367,1.468,1.381,1.468h4.55a.433.433,0,0,1,.432.432v2.007C282.616,213.538,282.486,213.668,282.184,213.711Zm16.283.086h-3.431a.573.573,0,0,1-.561-.323L291.5,208.75l-2.7,4.619c-.151.259-.3.432-.538.432h-3.194a.285.285,0,0,1-.323-.28.4.4,0,0,1,.043-.151l4.675-7.8-4.723-7.4a.307.307,0,0,1-.043-.13.311.311,0,0,1,.323-.281H288.5c.237,0,.41.216.538.41l2.761,4.36,2.672-4.36a.7.7,0,0,1,.538-.41H298.2a.311.311,0,0,1,.323.28.306.306,0,0,1-.043.13l-4.7,7.448,4.9,7.75a.482.482,0,0,1,.065.216C298.749,213.711,298.641,213.8,298.468,213.8Zm-44.7-15.992a.333.333,0,0,0-.326.269l-3.133,11.595c-.043.237-.108.324-.3.324s-.259-.09-.3-.324l-3.136-11.6a.333.333,0,0,0-.326-.269h-3.084a.333.333,0,0,0-.324.409s3.826,13.3,3.869,13.428a3.248,3.248,0,0,0,3.327,2.342,3.349,3.349,0,0,0,3.325-2.337c.061-.179,3.8-13.434,3.8-13.434a.333.333,0,0,0-.324-.408Z" transform="translate(0 0)" fill="#f71963"/>
    <path id="Caminho_49" data-name="Caminho 49" d="M234.768,186.14H201.254a3.446,3.446,0,0,0-3.047,5.059l3.352,6.348h-6.077a2.235,2.235,0,0,0-1.977,3.276l10.783,20.409a2.235,2.235,0,0,0,3.95,0l2.928-5.513,3.674,6.956a3.448,3.448,0,0,0,6.094.007l16.8-31.611A3.357,3.357,0,0,0,234.768,186.14Zm-15.055,13.506L212.47,213.28a1.488,1.488,0,0,1-2.628,0L202.669,199.7a1.488,1.488,0,0,1,1.31-2.184h14.457a1.447,1.447,0,0,1,1.278,2.126Z" transform="translate(0 0)" fill="#f71963"/>
  </g>
</svg>
