<svg xmlns="http://www.w3.org/2000/svg" width="132.292" height="34.468" viewBox="0 0 132.292 34.468">
  <g id="logo-mercado-pago" transform="translate(-8830.708 -3277.068)">
    <path id="path148" d="M395.154-638.754c0-8.728-10.845-15.843-24.222-15.843s-24.221,7.115-24.221,15.843c0,.225,0,.849,0,.927,0,9.259,9.478,16.759,24.221,16.759,14.834,0,24.225-7.5,24.225-16.757v-.929" transform="translate(8484 3931.665)" fill="#2a3980"/>
    <path id="path150" d="M396.874-636.124c0,8.228-10.427,14.9-23.29,14.9S350.3-627.9,350.3-636.124s10.427-14.9,23.289-14.9,23.29,6.67,23.29,14.9" transform="translate(8481.352 3929.027)" fill="#469edd"/>
    <path id="path152" d="M409.331-627.262c-.012.023-.245.264-.094.457a2.911,2.911,0,0,0,2.65.481,7.69,7.69,0,0,0,2.409-1.524,9.626,9.626,0,0,1,2.75-1.753,3.141,3.141,0,0,1,2-.052,6.174,6.174,0,0,1,1.827,1.066c1.594,1.2,8,6.791,9.108,7.758a55.291,55.291,0,0,1,10.24-3.3,12.691,12.691,0,0,0-4.863-7.648c-3.691,1.551-8.2,2.359-12.614.2a12.206,12.206,0,0,0-4.765-1.084c-3.5.081-5.017,1.6-6.621,3.2l-2.032,2.19" transform="translate(8437.872 3915.464)" fill="#fff"/>
    <path id="path154" d="M386.74-619.123c-.075-.067-7.534-6.594-9.224-7.864a4.135,4.135,0,0,0-2.093-.993,2.855,2.855,0,0,0-1,.1,9.013,9.013,0,0,0-2.727,1.625,7.775,7.775,0,0,1-2.662,1.646,4.306,4.306,0,0,1-2.935-.44,1.3,1.3,0,0,1-.487-.534.9.9,0,0,1,.249-.975l2.059-2.227c.239-.239.48-.478.727-.713a13.355,13.355,0,0,0-1.876.422,8.18,8.18,0,0,1-2.189.409,20.823,20.823,0,0,1-2.234-.35,33.37,33.37,0,0,1-5.94-2.146,13.163,13.163,0,0,0-5.449,7.9c.42.111,1.1.313,1.382.376,6.623,1.472,8.685,2.989,9.059,3.306a2.2,2.2,0,0,1,1.642-.736,2.2,2.2,0,0,1,1.795.938,2.5,2.5,0,0,1,1.578-.555,2.954,2.954,0,0,1,.947.166,2.175,2.175,0,0,1,1.333,1.2,2.211,2.211,0,0,1,.922-.2,2.779,2.779,0,0,1,1.1.243,2.352,2.352,0,0,1,1.3,2.627,2.268,2.268,0,0,1,.263-.014,2.628,2.628,0,0,1,2.625,2.626,2.6,2.6,0,0,1-.314,1.239,4.163,4.163,0,0,0,2.28.611,1.458,1.458,0,0,0,1.067-.465c.066-.093.135-.2.07-.28l-1.869-2.076s-.308-.291-.206-.4.3.05.43.163c.951.794,2.112,1.993,2.112,1.993.02.013.1.165.526.242a1.943,1.943,0,0,0,1.477-.344,2.232,2.232,0,0,0,.324-.332.122.122,0,0,1-.021.017.994.994,0,0,0-.053-1.23l-2.182-2.449s-.312-.288-.206-.4c.095-.1.3.051.432.165.691.578,1.667,1.557,2.6,2.473a1.777,1.777,0,0,0,2.093-.073,1.5,1.5,0,0,0,.775-1.367,1.561,1.561,0,0,0-.461-.91l-2.98-3s-.314-.269-.2-.4c.091-.114.3.05.43.162.949.795,3.519,3.151,3.519,3.151a1.808,1.808,0,0,0,2.022-.04,1.351,1.351,0,0,0,.664-1.068,1.577,1.577,0,0,0-.5-1.215" transform="translate(8480.857 3914.367)" fill="#fff"/>
    <path id="path156" d="M401.786-583.079a6.614,6.614,0,0,0-1.034.229c-.037-.024.028-.21.072-.317s.653-1.937-.83-2.573a1.748,1.748,0,0,0-2.067.309c-.063.065-.091.06-.1-.023a1.637,1.637,0,0,0-1.15-1.521,2.244,2.244,0,0,0-2.529.9,1.62,1.62,0,0,0-1.6-1.418,1.626,1.626,0,0,0-1.627,1.624,1.625,1.625,0,0,0,1.625,1.625,1.614,1.614,0,0,0,1.124-.453c.009.008.013.024.008.055a2.138,2.138,0,0,0,1.335,2.457,1.593,1.593,0,0,0,1.568-.242c.129-.091.15-.052.132.069a1.525,1.525,0,0,0,1.142,1.637,1.449,1.449,0,0,0,1.7-.315c.145-.132.185-.111.192.093a2.038,2.038,0,0,0,2.041,1.951,2.042,2.042,0,0,0,2.046-2.042,2.051,2.051,0,0,0-2.043-2.046" transform="translate(8451.358 3882.121)" fill="#fff"/>
    <path id="path158" d="M371.9-614.665A1.884,1.884,0,0,1,370-616.476c0-.087-.012-.318-.207-.318a.36.36,0,0,0-.231.121,1.334,1.334,0,0,1-.931.421,1.638,1.638,0,0,1-.613-.133c-1.081-.438-1.1-1.181-1.052-1.479a.27.27,0,0,0-.039-.227l-.066-.06H366.8a.329.329,0,0,0-.188.076,1.578,1.578,0,0,1-.918.326,1.418,1.418,0,0,1-.512-.1,1.986,1.986,0,0,1-1.242-2.3.2.2,0,0,0-.062-.188l-.1-.083-.094.09a1.465,1.465,0,0,1-1.022.414,1.48,1.48,0,0,1-1.478-1.479,1.479,1.479,0,0,1,1.48-1.477,1.477,1.477,0,0,1,1.458,1.29l.051.4.218-.336a2.168,2.168,0,0,1,1.72-.941,2.168,2.168,0,0,1,.642.1,1.494,1.494,0,0,1,1.047,1.392c.016.193.152.2.179.2a.243.243,0,0,0,.171-.089,1.492,1.492,0,0,1,1.088-.459,2.1,2.1,0,0,1,.815.184c1.391.6.76,2.365.753,2.384-.12.293-.125.423-.012.5l.055.026h.04a.987.987,0,0,0,.27-.071,2.381,2.381,0,0,1,.742-.163h0a1.916,1.916,0,0,1,1.9,1.9A1.9,1.9,0,0,1,371.9-614.665Zm14.742-8.522c-2.3-2.005-7.608-6.622-9.047-7.7a6.329,6.329,0,0,0-1.874-1.091,3.109,3.109,0,0,0-.921-.143,3.877,3.877,0,0,0-1.169.2,9.584,9.584,0,0,0-2.751,1.742l-.046.037a7.593,7.593,0,0,1-2.349,1.5,3.968,3.968,0,0,1-.87.1,2.231,2.231,0,0,1-1.633-.526c-.041-.052-.015-.136.08-.257l.013-.016,2.021-2.179c1.583-1.583,3.079-3.078,6.521-3.157l.172,0a12.2,12.2,0,0,1,4.525,1.072,14.006,14.006,0,0,0,6.167,1.479,16.1,16.1,0,0,0,6.771-1.622c-.263-.222-.537-.437-.819-.648a14.9,14.9,0,0,1-5.946,1.351,13.126,13.126,0,0,1-5.771-1.389,12.99,12.99,0,0,0-4.925-1.164l-.194,0a8.552,8.552,0,0,0-5.615,1.994,11.107,11.107,0,0,0-2.8.511,7.586,7.586,0,0,1-1.974.378c-.253,0-.709-.023-.75-.025a38.422,38.422,0,0,1-7.1-1.967c-.289.2-.567.416-.838.632a35.078,35.078,0,0,0,7.7,2.225c.316.021.653.057.99.057a8.418,8.418,0,0,0,2.228-.414c.428-.121.9-.252,1.4-.347q-.2.2-.4.4l-2.054,2.222a1.032,1.032,0,0,0-.281,1.135,1.441,1.441,0,0,0,.54.6,4.278,4.278,0,0,0,2.18.553,3.962,3.962,0,0,0,.87-.091,7.869,7.869,0,0,0,2.72-1.673,9.052,9.052,0,0,1,2.674-1.6,3.047,3.047,0,0,1,.745-.1,1.519,1.519,0,0,1,.193.012,4.018,4.018,0,0,1,2.023.965c1.686,1.266,9.146,7.793,9.219,7.857a1.435,1.435,0,0,1,.448,1.1,1.2,1.2,0,0,1-.6.952,1.815,1.815,0,0,1-.979.3,1.609,1.609,0,0,1-.864-.251c-.028-.022-2.584-2.366-3.524-3.153a.791.791,0,0,0-.442-.236.243.243,0,0,0-.2.092c-.148.182.018.435.213.6l2.986,3a1.416,1.416,0,0,1,.412.809,1.364,1.364,0,0,1-.709,1.238,1.924,1.924,0,0,1-1.058.35,1.538,1.538,0,0,1-.851-.259l-.428-.422c-.783-.77-1.591-1.566-2.183-2.06a.793.793,0,0,0-.445-.231.253.253,0,0,0-.188.08c-.068.075-.114.21.053.434a1.49,1.49,0,0,0,.151.168l2.179,2.447a.834.834,0,0,1,.049,1.044l-.077.1a2.288,2.288,0,0,1-.2.2,1.745,1.745,0,0,1-1.065.338,1.667,1.667,0,0,1-.294-.026.739.739,0,0,1-.429-.181l-.026-.028c-.119-.123-1.218-1.244-2.126-2a.752.752,0,0,0-.424-.227.259.259,0,0,0-.2.088c-.18.2.09.491.2.6l1.859,2.049a.435.435,0,0,1-.071.125c-.066.092-.292.318-.966.4a1.815,1.815,0,0,1-.247.015,4.248,4.248,0,0,1-1.819-.54,2.762,2.762,0,0,0,.264-1.178,2.776,2.776,0,0,0-2.771-2.775l-.1,0a2.46,2.46,0,0,0-1.406-2.6,2.918,2.918,0,0,0-1.159-.255,2.356,2.356,0,0,0-.85.154,2.331,2.331,0,0,0-1.357-1.152,3.04,3.04,0,0,0-.995-.175,2.622,2.622,0,0,0-1.549.5,2.347,2.347,0,0,0-1.823-.88,2.356,2.356,0,0,0-1.655.685c-.579-.442-2.873-1.9-9.014-3.294-.3-.067-.98-.263-1.4-.385a9.859,9.859,0,0,0-.157,1.008s1.133.271,1.355.321c6.274,1.393,8.346,2.842,8.7,3.116a2.364,2.364,0,0,0-.181.9,2.354,2.354,0,0,0,2.35,2.352,2.37,2.37,0,0,0,.431-.039,2.741,2.741,0,0,0,1.773,2.048,2.336,2.336,0,0,0,.838.162,2.147,2.147,0,0,0,.535-.067,2.46,2.46,0,0,0,1.459,1.365,2.477,2.477,0,0,0,.923.191,2.069,2.069,0,0,0,.718-.128,2.773,2.773,0,0,0,2.562,1.72,2.767,2.767,0,0,0,1.986-.841,5.223,5.223,0,0,0,2.347.7,3.015,3.015,0,0,0,.355-.023,2.149,2.149,0,0,0,1.592-.779,1.181,1.181,0,0,0,.1-.159,2.686,2.686,0,0,0,.752.118,2.533,2.533,0,0,0,1.517-.543,2.089,2.089,0,0,0,.894-1.3c0-.006,0-.012,0-.019a2.5,2.5,0,0,0,.507.052,2.818,2.818,0,0,0,1.558-.494,2.247,2.247,0,0,0,1.118-2,2.5,2.5,0,0,0,.514.053,2.69,2.69,0,0,0,1.46-.449,2.133,2.133,0,0,0,1.014-1.651,2.229,2.229,0,0,0-.322-1.334,60.343,60.343,0,0,1,9.677-3.03,9.881,9.881,0,0,0-.135-1,55.52,55.52,0,0,0-10.192,3.311" transform="translate(8481.248 3917.649)" fill="#2a3980"/>
    <path id="path160" d="M818.88-630.983a2.146,2.146,0,0,1-1.824.845,2.16,2.16,0,0,1-1.829-.845,3.9,3.9,0,0,1-.641-2.4,3.882,3.882,0,0,1,.641-2.4,2.166,2.166,0,0,1,1.829-.84,2.151,2.151,0,0,1,1.824.84,3.908,3.908,0,0,1,.636,2.4A3.928,3.928,0,0,1,818.88-630.983Zm2.167-6.284a4.787,4.787,0,0,0-3.983-1.643,4.784,4.784,0,0,0-3.98,1.643,6.031,6.031,0,0,0-1.313,3.883,6,6,0,0,0,1.313,3.9,4.823,4.823,0,0,0,3.98,1.618,4.826,4.826,0,0,0,3.983-1.618,6,6,0,0,0,1.311-3.9,6.029,6.029,0,0,0-1.311-3.883" transform="translate(8140.643 3920.083)" fill="#2a3980"/>
    <path id="path162" d="M738.286-632.12a2.177,2.177,0,0,1-.779,1.878,2.837,2.837,0,0,1-1.639.516,1.494,1.494,0,0,1-.955-.31,1.207,1.207,0,0,1-.391-1.006,1.241,1.241,0,0,1,.641-1.153,4.051,4.051,0,0,1,1.25-.37l.619-.115a4.559,4.559,0,0,0,.728-.188,2.731,2.731,0,0,0,.526-.261Zm1.377-5.921a6.637,6.637,0,0,0-3.044-.677,4.469,4.469,0,0,0-3.715,1.373,3.988,3.988,0,0,0-.767,2.24h2.622a1.964,1.964,0,0,1,.387-.953,1.728,1.728,0,0,1,1.38-.476,2.82,2.82,0,0,1,1.321.244.913.913,0,0,1,.449.881.817.817,0,0,1-.586.773,4.287,4.287,0,0,1-1.086.238l-.93.114a6.621,6.621,0,0,0-2.4.668,2.957,2.957,0,0,0-1.489,2.774,2.861,2.861,0,0,0,.926,2.283,3.673,3.673,0,0,0,2.345.806c5.93.265,5.863-3.125,5.918-3.831v-3.9a2.6,2.6,0,0,0-1.33-2.555" transform="translate(8199.683 3919.941)" fill="#2a3980"/>
    <path id="path164" d="M695.365-636.3a1.767,1.767,0,0,1,1.5.628,2.333,2.333,0,0,1,.412,1.046H700.2a4,4,0,0,0-1.549-3.09,5.964,5.964,0,0,0-3.365-.874A4.913,4.913,0,0,0,691.5-637.1a5.872,5.872,0,0,0-1.374,4.148,5.785,5.785,0,0,0,1.243,3.845,4.786,4.786,0,0,0,3.88,1.483,4.678,4.678,0,0,0,3.983-1.778,4.386,4.386,0,0,0,.942-2.338h-2.916a2.458,2.458,0,0,1-.512,1.331,1.752,1.752,0,0,1-1.426.513,1.9,1.9,0,0,1-1.929-1.293,4.948,4.948,0,0,1-.282-1.828,5.4,5.4,0,0,1,.282-1.916,1.965,1.965,0,0,1,1.978-1.359" transform="translate(8230.458 3919.844)" fill="#2a3980"/>
    <path id="path166" d="M671.162-638.586c-6.009,0-5.654,5.32-5.654,5.32v5.4h2.727v-5.069a4.17,4.17,0,0,1,.313-1.846,2.247,2.247,0,0,1,2.2-1.064c.082,0,.19,0,.323.01s.284.018.457.038v-2.775c-.121-.008-.2-.012-.234-.015s-.078-.005-.129-.005" transform="translate(8248.632 3919.844)" fill="#2a3980"/>
    <path id="path168" d="M624.919-635.765a2.152,2.152,0,0,1,1.617-.591,2.372,2.372,0,0,1,1.607.558,2.261,2.261,0,0,1,.721,1.636H624.2A2.812,2.812,0,0,1,624.919-635.765Zm3.666,5.078a1.989,1.989,0,0,1-.374.412,2.327,2.327,0,0,1-1.524.414,2.586,2.586,0,0,1-1.452-.349,2.457,2.457,0,0,1-1.1-2.165h7.546a13.713,13.713,0,0,0-.091-2.056,5.1,5.1,0,0,0-.825-2.142,4.232,4.232,0,0,0-1.791-1.534,5.916,5.916,0,0,0-2.434-.484,5,5,0,0,0-3.7,1.435,5.612,5.612,0,0,0-1.429,4.128,5.018,5.018,0,0,0,1.582,4.148,5.648,5.648,0,0,0,3.649,1.275,5.031,5.031,0,0,0,3.9-1.512,3.671,3.671,0,0,0,.946-1.572h-2.892" transform="translate(8281.192 3919.846)" fill="#2a3980"/>
    <path id="path170" d="M575.188-627.964H572.7v-6.272a1.75,1.75,0,0,0-1.833-1.936,1.835,1.835,0,0,0-1.888,1.936v6.272h-2.493v-6.272a1.734,1.734,0,0,0-1.812-1.936,1.826,1.826,0,0,0-1.889,1.936v6.272h-2.492v-6.213a4.275,4.275,0,0,1,4.381-4.548,3.836,3.836,0,0,1,3.1,1.445,3.97,3.97,0,0,1,3.1-1.445c2.719,0,4.324,1.879,4.324,4.548v6.213" transform="translate(8326.313 3919.947)" fill="#2a3980"/>
    <path id="path172" d="M776.927-640a2,2,0,0,1-1.748.856,1.912,1.912,0,0,1-1.715-.86,4.392,4.392,0,0,1-.564-2.366,4.159,4.159,0,0,1,.555-2.229,1.9,1.9,0,0,1,1.743-.9,2.069,2.069,0,0,1,1.369.494,3.566,3.566,0,0,1,.96,2.789,3.781,3.781,0,0,1-.6,2.215Zm3.271-11.14s-2.747-.293-2.747,1.913l0,2.922a3.274,3.274,0,0,0-1.187-1.145,3.34,3.34,0,0,0-1.673-.414,3.974,3.974,0,0,0-3.263,1.521A6.7,6.7,0,0,0,770.1-642.1a5.644,5.644,0,0,0,1.24,3.77,5.253,5.253,0,0,0,3.888,1.407c5.021,0,4.964-4.306,4.964-4.306l0-9.91" transform="translate(8171.405 3929.121)" fill="#2a3980"/>
    <path id="path174" d="M633.261-575.284a4,4,0,0,0-.6-2.373,2,2,0,0,0-1.723-.831,1.97,1.97,0,0,0-1.685.831,4.013,4.013,0,0,0-.559,2.373,3.553,3.553,0,0,0,.6,2.255,2,2,0,0,0,1.723.831,1.918,1.918,0,0,0,1.643-.831,3.759,3.759,0,0,0,.6-2.255m-4.57,7.378a1.283,1.283,0,0,1-.4.949,1.316,1.316,0,0,1-.962.4h-1.362v-9.476a4.369,4.369,0,0,1,1.643-3.777,5.48,5.48,0,0,1,3.567-1.008,4.784,4.784,0,0,1,3.57,1.476,5.827,5.827,0,0,1,1.281,3.942,6.381,6.381,0,0,1-1.2,4.035,3.775,3.775,0,0,1-3.087,1.5,4.148,4.148,0,0,1-1.763-.355,3,3,0,0,1-1.283-1.227v3.541" transform="translate(8277.823 3877.196)" fill="#469edd"/>
    <path id="path176" d="M708.749-575.393q0,2.726,1.575,3.024a2.149,2.149,0,0,0,2.323-.733,2.939,2.939,0,0,0,.511-1.362,5.767,5.767,0,0,0,.021-1.838,3.658,3.658,0,0,0-.65-1.622,1.728,1.728,0,0,0-1.5-.711,1.816,1.816,0,0,0-1.811.987,5.145,5.145,0,0,0-.473,2.255m4.489,4.544v-.67a3.014,3.014,0,0,1-1.91,1.383,3.9,3.9,0,0,1-2.38-.2,4.422,4.422,0,0,1-2.03-1.757,6.073,6.073,0,0,1-.845-3.382,6.535,6.535,0,0,1,1.121-3.971,4.3,4.3,0,0,1,3.6-1.522,5,5,0,0,1,3.5,1.028,4.4,4.4,0,0,1,1.614,3.794v5.575a4.654,4.654,0,0,1-5.118,4.783,4.487,4.487,0,0,1-4.489-3.4h2.874a2.031,2.031,0,0,0,.966.847,2.013,2.013,0,0,0,1.3.159,2.154,2.154,0,0,0,1.184-.77,3.245,3.245,0,0,0,.609-1.9" transform="translate(8218.681 3877.306)" fill="#469edd"/>
    <path id="path178" d="M673.613-574.069a2.175,2.175,0,0,1-.778,1.878,2.835,2.835,0,0,1-1.639.515,1.492,1.492,0,0,1-.954-.31,1.206,1.206,0,0,1-.393-1.007,1.241,1.241,0,0,1,.642-1.153,4.04,4.04,0,0,1,1.249-.37l.619-.115a4.409,4.409,0,0,0,.727-.188,2.711,2.711,0,0,0,.526-.261Zm1.379-5.921a6.653,6.653,0,0,0-3.043-.676,4.471,4.471,0,0,0-3.716,1.372,3.991,3.991,0,0,0-.767,2.241h2.624a1.947,1.947,0,0,1,.387-.953,1.728,1.728,0,0,1,1.379-.477,2.824,2.824,0,0,1,1.321.243.915.915,0,0,1,.449.882.818.818,0,0,1-.586.773,4.3,4.3,0,0,1-1.086.238l-.93.113a6.641,6.641,0,0,0-2.4.669,2.954,2.954,0,0,0-1.49,2.773,2.858,2.858,0,0,0,.925,2.283,3.671,3.671,0,0,0,2.345.807c5.929.265,5.863-3.126,5.917-3.831v-3.9a2.6,2.6,0,0,0-1.329-2.555" transform="translate(8247.429 3877.081)" fill="#469edd"/>
    <path id="path180" d="M754.762-573.152a2.141,2.141,0,0,1-1.823.845,2.156,2.156,0,0,1-1.829-.845,3.888,3.888,0,0,1-.642-2.4,3.869,3.869,0,0,1,.642-2.4,2.16,2.16,0,0,1,1.829-.839,2.146,2.146,0,0,1,1.823.839,3.9,3.9,0,0,1,.637,2.4,3.914,3.914,0,0,1-.637,2.4m2.168-6.282a4.79,4.79,0,0,0-3.984-1.643,4.784,4.784,0,0,0-3.98,1.643,6.027,6.027,0,0,0-1.312,3.882,6,6,0,0,0,1.312,3.9,4.827,4.827,0,0,0,3.98,1.618,4.833,4.833,0,0,0,3.984-1.618,6,6,0,0,0,1.309-3.9,6.033,6.033,0,0,0-1.309-3.882" transform="translate(8187.98 3877.385)" fill="#469edd"/>
  </g>
</svg>
