<svg id="logo-shopify" xmlns="http://www.w3.org/2000/svg" width="130.649" height="37.267" viewBox="0 0 130.649 37.267">
  <path id="Caminho_53" data-name="Caminho 53" d="M28.089,7.086a.317.317,0,0,0-.32-.277c-.128,0-2.924-.213-2.924-.213S22.9,4.653,22.668,4.461a.9.9,0,0,0-.79-.107c-.021,0-.427.128-1.089.342C20.128,2.8,19,1.067,16.969,1.067h-.192A2.481,2.481,0,0,0,14.9,0C10.2,0,7.94,5.87,7.236,8.858,5.4,9.434,4.1,9.818,3.949,9.882c-1.025.32-1.046.342-1.174,1.3C2.668,11.91,0,32.55,0,32.55l20.768,3.885L32.038,34c.021-.043-3.927-26.723-3.949-26.915ZM19.637,4.995c-.512.149-1.131.342-1.75.555V5.165a8.2,8.2,0,0,0-.427-2.839c1.067.128,1.729,1.3,2.177,2.668ZM16.158,2.561a8.941,8.941,0,0,1,.47,3.159v.213C15.475,6.3,14.258,6.659,13,7.065c.7-2.689,2.049-4.013,3.159-4.5ZM14.792,1.238a1.02,1.02,0,0,1,.6.213c-1.515.7-3.116,2.476-3.778,6.062-1,.32-1.964.6-2.882.9.768-2.732,2.689-7.172,6.062-7.172Z" transform="translate(0 0)" fill="#95bf47"/>
  <path id="Caminho_54" data-name="Caminho 54" d="M104.537,22.576c-.128,0-2.924-.213-2.924-.213s-1.942-1.942-2.177-2.134a.413.413,0,0,0-.277-.128L97.6,52.245l11.27-2.433S104.921,23.088,104.9,22.9A.577.577,0,0,0,104.537,22.576Z" transform="translate(-76.768 -15.81)" fill="#5e8e3e"/>
  <path id="Caminho_55" data-name="Caminho 55" d="M35.217,58.931l-1.366,4.119a6.42,6.42,0,0,0-2.711-.662c-2.2,0-2.305,1.387-2.305,1.729,0,1.878,4.909,2.6,4.909,7.022,0,3.479-2.2,5.72-5.165,5.72a7.111,7.111,0,0,1-5.379-2.22l.961-3.159S26.039,73.1,27.618,73.1A1.4,1.4,0,0,0,29.091,71.7c0-2.455-4.013-2.561-4.013-6.617,0-3.394,2.433-6.681,7.364-6.681A5.7,5.7,0,0,1,35.217,58.931Z" transform="translate(-18.248 -45.933)" fill="#fff"/>
  <path id="Caminho_56" data-name="Caminho 56" d="M182.2,47.49c-1.131-.6-1.708-1.131-1.708-1.836,0-.9.811-1.473,2.07-1.473a7.484,7.484,0,0,1,2.775.6l1.025-3.138s-.939-.726-3.714-.726c-3.863,0-6.553,2.22-6.553,5.336,0,1.772,1.259,3.116,2.924,4.077,1.366.747,1.836,1.3,1.836,2.113,0,.832-.683,1.515-1.942,1.515a8.727,8.727,0,0,1-3.629-.96L174.2,56.134a8.33,8.33,0,0,0,4.354,1.089c3.97,0,6.852-1.964,6.852-5.486-.043-1.921-1.473-3.244-3.2-4.248Zm15.838-6.617a5.955,5.955,0,0,0-4.674,2.348l-.043-.021,1.708-8.879h-4.418L186.3,56.945h4.418l1.473-7.727c.576-2.924,2.092-4.738,3.5-4.738,1,0,1.387.683,1.387,1.644a8.755,8.755,0,0,1-.192,1.964l-1.665,8.858h4.418l1.729-9.135a16.5,16.5,0,0,0,.32-2.9C201.67,42.367,200.368,40.873,198.042,40.873Zm13.639,0c-5.336,0-8.858,4.8-8.858,10.16,0,3.415,2.113,6.19,6.083,6.19,5.229,0,8.751-4.674,8.751-10.16C217.679,43.882,215.843,40.873,211.681,40.873ZM209.5,53.85c-1.515,0-2.134-1.281-2.134-2.9,0-2.54,1.3-6.659,3.714-6.659,1.558,0,2.092,1.366,2.092,2.668C213.175,49.667,211.83,53.85,209.5,53.85Zm19.488-12.977a6.027,6.027,0,0,0-4.674,2.647h-.043l.256-2.369H220.6c-.192,1.6-.555,4.055-.9,5.87l-3.052,16.2h4.418l1.238-6.553h.107a5.176,5.176,0,0,0,2.583.576c5.208,0,8.6-5.336,8.6-10.715C233.58,43.541,232.236,40.873,228.991,40.873Zm-4.226,13.02a2.786,2.786,0,0,1-1.836-.662l.726-4.119c.512-2.775,1.964-4.589,3.5-4.589,1.366,0,1.772,1.259,1.772,2.433.021,2.86-1.686,6.937-4.162,6.937ZM239.9,34.534a2.537,2.537,0,0,0-2.54,2.561,2.053,2.053,0,0,0,2.092,2.22h.043a2.481,2.481,0,0,0,2.583-2.561A2.073,2.073,0,0,0,239.9,34.534Zm-6.19,22.39h4.418l2.988-15.71h-4.44m15.71-.021h-3.074l.149-.726c.256-1.515,1.153-2.839,2.647-2.839a4.394,4.394,0,0,1,1.409.235l.854-3.479A5.739,5.739,0,0,0,251.958,34a6.627,6.627,0,0,0-4.333,1.473,8.273,8.273,0,0,0-2.561,5.016l-.128.726h-2.07l-.662,3.351h2.07l-2.348,12.38h4.418l2.348-12.38h3.052Zm10.651.021s-2.775,6.98-3.991,10.8H259c-.085-1.238-1.089-10.8-1.089-10.8H253.26L255.928,55.6a1,1,0,0,1-.107.726,7.534,7.534,0,0,1-2.412,2.668,9.9,9.9,0,0,1-2.519,1.259l1.238,3.757a10.1,10.1,0,0,0,4.333-2.412c2.006-1.878,3.885-4.8,5.806-8.773l5.4-11.633h-4.632Z" transform="translate(-137.018 -26.743)"/>
</svg>
