<svg width="400" height="400" viewBox="0 0 400 400" xmlns="http://www.w3.org/2000/svg" xmlns:xlink="http://www.w3.org/1999/xlink" id="svg" overflow="hidden"><g id="svgg"><path d="M182.6 0.204C182.16 0.276 179.19 0.554 176 0.821 172.81 1.088 170.02 1.437 169.8 1.597 169.58 1.756 167.69 2.106 165.6 2.375 163.51 2.643 160.36 3.197 158.6 3.605 156.84 4.013 154.545 4.469 153.5 4.619 152.455 4.768 151.6 5.026 151.6 5.191 151.6 5.356 150.753 5.607 149.717 5.749 147.982 5.987 146.436 6.42 141 8.191 139.9 8.549 137.875 9.118 136.5 9.454 135.125 9.79 134 10.231 134 10.433 134 10.635 133.631 10.8 133.181 10.8 132.73 10.8 131.616 11.16 130.706 11.6 129.795 12.04 128.87 12.4 128.651 12.4 128.432 12.4 127.521 12.736 126.626 13.148 125.732 13.559 124.37 14.126 123.6 14.408 119.386 15.95 104.898 22.814 103.844 23.768 103.581 24.006 101.979 24.918 100.283 25.797 98.587 26.675 97.2 27.51 97.2 27.653 97.2 27.796 96.795 28.015 96.3 28.14 95.805 28.265 95.04 28.649 94.6 28.994 94.16 29.34 92.81 30.245 91.6 31.008 87.977 33.289 78.132 40.259 77.2 41.202 77.09 41.314 76.28 41.926 75.4 42.564 74.52 43.202 73.44 44.047 73 44.443 72.56 44.839 71.825 45.5 71.367 45.914 70.909 46.327 69.379 47.648 67.967 48.85 66.555 50.051 64.567 51.837 63.549 52.817 62.53 53.798 60.46 55.789 58.949 57.243 55.469 60.588 48.829 67.814 46.163 71.157 45.743 71.683 44.995 72.481 44.5 72.929 44.005 73.377 43.6 73.877 43.6 74.038 43.6 74.2 43.24 74.752 42.801 75.266 40.671 77.755 40.001 78.624 40 78.9 40 79.065 39.685 79.539 39.3 79.952 38.335 80.99 37.466 82.142 35.192 85.4 34.117 86.94 33.084 88.38 32.896 88.6 32.709 88.82 32.297 89.585 31.98 90.3 31.664 91.015 31.266 91.6 31.096 91.6 30.926 91.6 30.487 92.23 30.119 93 29.752 93.77 29.327 94.4 29.174 94.4 29.022 94.4 28.66 94.985 28.371 95.7 28.082 96.415 27.745 97.09 27.623 97.2 27.271 97.516 26.049 99.634 25.084 101.6 24.598 102.59 23.975 103.638 23.7 103.929 23.425 104.219 23.2 104.701 23.2 105 23.2 105.299 22.967 105.781 22.683 106.071 22.105 106.662 19.861 111.253 19.394 112.8 19.228 113.35 18.966 113.89 18.813 114 18.327 114.348 15.173 121.343 14.393 123.8 14.114 124.68 13.642 125.755 13.343 126.189 13.044 126.623 12.8 127.218 12.8 127.511 12.8 127.804 12.435 128.844 11.99 129.822 11.544 130.8 11.072 132.14 10.94 132.8 10.808 133.46 10.557 134 10.383 134 10.106 134 8.819 138.533 8.707 139.9 8.685 140.175 8.54 140.4 8.385 140.4 8.231 140.4 7.884 141.525 7.614 142.9 7.345 144.275 6.969 145.589 6.779 145.82 6.59 146.052 6.205 147.447 5.926 148.92 5.646 150.394 5.299 151.6 5.154 151.6 5.009 151.6 4.768 152.455 4.619 153.5 4.469 154.545 4.013 156.84 3.605 158.6 3.197 160.36 2.643 163.51 2.375 165.6 2.106 167.69 1.758 169.58 1.6 169.8-0.325 172.488-0.318 225.765 1.608 230.2 1.799 230.64 2.235 233.125 2.576 235.723 2.917 238.321 3.353 240.751 3.545 241.123 3.737 241.495 4.119 243.285 4.396 245.1 4.672 246.915 5.033 248.4 5.197 248.4 5.362 248.4 5.622 249.343 5.775 250.495 5.928 251.648 6.298 253.133 6.598 253.795 6.898 254.458 7.365 256.035 7.635 257.3 7.906 258.565 8.249 259.6 8.397 259.6 8.545 259.6 8.688 259.825 8.714 260.1 8.817 261.192 10.079 265.815 10.378 266.195 10.553 266.418 10.919 267.292 11.192 268.139 11.464 268.985 11.937 270.155 12.241 270.739 12.546 271.322 12.796 272.073 12.798 272.406 12.799 272.739 13.135 273.639 13.544 274.406 13.953 275.173 14.422 276.25 14.585 276.8 14.913 277.903 15.736 279.78 18.005 284.6 21.356 291.718 22.213 293.423 22.695 293.929 22.973 294.219 23.2 294.627 23.2 294.836 23.2 295.226 27.161 302.445 27.571 302.8 27.698 302.91 28.071 303.54 28.4 304.2 28.729 304.86 29.109 305.49 29.244 305.6 29.378 305.71 29.788 306.385 30.154 307.1 30.521 307.815 30.952 308.4 31.113 308.4 31.273 308.4 31.664 308.985 31.98 309.7 32.568 311.027 32.869 311.472 34.1 312.829 34.485 313.253 34.8 313.688 34.8 313.795 34.8 314.212 37.787 318.4 38.085 318.4 38.258 318.4 38.4 318.668 38.4 318.997 38.4 319.325 38.76 319.818 39.2 320.093 39.64 320.368 40 320.774 40 320.996 40.001 321.218 40.406 321.881 40.9 322.47 41.395 323.058 42.25 324.115 42.8 324.819 43.35 325.522 44.16 326.511 44.6 327.017 45.04 327.522 45.673 328.265 46.008 328.668 50.383 333.939 54.906 338.867 59 342.823 64.155 347.806 65.386 348.943 68 351.145 70.561 353.301 71.105 353.778 72.896 355.438 73.393 355.899 74.52 356.798 75.4 357.436 76.28 358.074 77.09 358.686 77.2 358.798 78.114 359.722 85.795 365.2 86.177 365.2 86.3 365.2 86.73 365.515 87.134 365.9 87.934 366.663 88.317 366.927 91.6 368.986 92.81 369.745 93.98 370.518 94.2 370.705 94.42 370.892 95.185 371.303 95.9 371.62 96.615 371.936 97.2 372.288 97.2 372.401 97.2 372.514 98.595 373.325 100.3 374.203 102.005 375.082 103.49 375.908 103.6 376.039 103.963 376.474 111.797 380.417 117 382.785 118.54 383.486 120.25 384.293 120.8 384.578 121.35 384.863 122.52 385.323 123.4 385.601 124.28 385.878 125.182 386.247 125.405 386.423 125.628 386.598 126.663 386.955 127.705 387.218 128.747 387.48 129.6 387.814 129.6 387.96 129.6 388.106 130.455 388.461 131.5 388.748 132.545 389.036 133.94 389.516 134.6 389.814 136.157 390.517 141.829 392.257 143.729 392.613 144.543 392.766 145.297 393.034 145.406 393.209 145.514 393.384 146.907 393.753 148.501 394.028 150.096 394.303 151.583 394.666 151.807 394.836 152.032 395.006 153.472 395.349 155.007 395.598 156.543 395.848 158.16 396.22 158.6 396.426 159.04 396.631 161.83 397.165 164.8 397.612 167.77 398.059 172.18 398.722 174.6 399.085 181.044 400.052 218.902 400.057 225.4 399.092 236 397.517 246.732 395.511 248.2 394.83 248.64 394.626 250.215 394.245 251.7 393.984 253.185 393.723 254.4 393.373 254.4 393.207 254.4 393.04 255.525 392.685 256.9 392.417 258.275 392.15 259.94 391.687 260.6 391.389 261.26 391.091 262.61 390.646 263.6 390.4 264.59 390.154 265.971 389.692 266.668 389.373 267.366 389.054 268.491 388.682 269.168 388.546 269.846 388.411 270.4 388.177 270.4 388.026 270.4 387.875 271.3 387.521 272.4 387.239 273.5 386.957 274.4 386.585 274.4 386.413 274.4 386.241 274.971 385.986 275.67 385.846 276.908 385.598 277.771 385.228 284.8 381.93 290.989 379.026 293.398 377.804 293.533 377.5 293.607 377.335 293.85 377.2 294.073 377.2 294.635 377.2 302.568 372.739 302.733 372.33 302.807 372.149 303.014 372 303.193 372 303.373 372 304.663 371.282 306.06 370.405 307.457 369.528 309.14 368.514 309.8 368.151 310.46 367.788 311.144 367.246 311.32 366.946 311.496 366.646 311.892 366.4 312.2 366.4 312.508 366.4 312.904 366.175 313.08 365.9 313.256 365.625 314.03 365.049 314.8 364.62 315.57 364.191 316.38 363.694 316.6 363.516 316.82 363.338 318.26 362.25 319.8 361.098 321.34 359.946 322.69 358.906 322.8 358.788 322.91 358.67 323.932 357.899 325.071 357.074 326.21 356.249 327.2 355.442 327.271 355.28 327.342 355.119 328.293 354.269 329.384 353.393 330.475 352.517 331.664 351.53 332.027 351.2 341.537 342.555 342.555 341.537 351.2 332.027 351.53 331.664 352.515 330.475 353.389 329.384 354.263 328.293 355.298 327.165 355.689 326.877 356.08 326.59 356.4 326.2 356.4 326.011 356.4 325.822 356.76 325.248 357.199 324.734 359.42 322.139 359.999 321.366 360 320.996 360 320.774 360.36 320.368 360.8 320.093 361.24 319.818 361.6 319.415 361.6 319.197 361.6 318.978 361.915 318.453 362.3 318.029 363.429 316.785 363.795 316.279 364.62 314.826 365.049 314.071 365.67 313.147 366 312.774 367.298 311.305 368.043 310.16 368.26 309.3 368.385 308.805 368.63 308.4 368.805 308.4 369.078 308.4 371.486 304.583 371.96 303.4 372.048 303.18 372.241 302.91 372.39 302.8 372.798 302.498 376.8 295.27 376.8 294.836 376.8 294.627 377.031 294.219 377.314 293.929 377.81 293.419 379.286 290.484 382.005 284.6 385.194 277.701 386.68 274.127 387.288 271.9 387.513 271.075 387.833 270.4 387.999 270.4 388.164 270.4 388.411 269.846 388.546 269.168 388.682 268.491 389.054 267.366 389.373 266.668 389.692 265.971 390.154 264.59 390.4 263.6 390.646 262.61 391.091 261.26 391.389 260.6 391.687 259.94 392.15 258.275 392.417 256.9 392.685 255.525 393.044 254.4 393.216 254.4 393.387 254.4 393.752 253.095 394.027 251.5 394.302 249.905 394.663 248.42 394.829 248.2 394.994 247.98 395.333 246.63 395.581 245.2 395.828 243.77 396.203 242.15 396.413 241.6 396.762 240.685 397.098 238.647 399.085 225.4 399.634 221.739 399.745 217.471 399.745 200 399.745 182.529 399.634 178.261 399.085 174.6 398.722 172.18 398.059 167.77 397.612 164.8 397.165 161.83 396.631 159.04 396.426 158.6 396.22 158.16 395.848 156.543 395.598 155.007 395.349 153.472 395 152.032 394.823 151.807 394.646 151.583 394.373 150.5 394.216 149.4 394.059 148.3 393.693 146.86 393.403 146.2 393.112 145.54 392.568 143.693 392.193 142.096 391.819 140.499 391.368 139.104 391.191 138.994 391.014 138.885 390.747 138.032 390.596 137.098 390.446 136.164 390.097 135.04 389.821 134.6 389.546 134.16 389.079 132.855 388.784 131.7 388.49 130.545 388.121 129.6 387.964 129.6 387.808 129.6 387.464 128.699 387.2 127.599 386.936 126.498 386.571 125.506 386.389 125.393 386.207 125.281 385.845 124.516 385.585 123.694 385.104 122.175 384.514 120.8 382.2 115.8 379.403 109.757 377.806 106.577 377.314 106.071 377.031 105.781 376.8 105.299 376.8 105 376.8 104.701 376.575 104.219 376.3 103.929 376.025 103.638 375.085 102.005 374.211 100.3 373.338 98.595 372.516 97.2 372.386 97.2 372.256 97.2 371.902 96.57 371.6 95.8 371.298 95.03 370.938 94.4 370.799 94.4 370.661 94.4 370.248 93.77 369.881 93 369.513 92.23 369.074 91.6 368.904 91.6 368.734 91.6 368.336 91.015 368.02 90.3 367.432 88.973 367.131 88.528 365.9 87.171 365.515 86.747 365.2 86.312 365.2 86.205 365.2 85.788 362.213 81.6 361.915 81.6 361.742 81.6 361.6 81.332 361.6 81.003 361.6 80.675 361.24 80.182 360.8 79.907 360.36 79.632 360 79.226 360 79.004 359.999 78.634 359.42 77.861 357.199 75.266 356.76 74.752 356.4 74.178 356.4 73.989 356.4 73.8 356.085 73.41 355.7 73.123 355.315 72.835 353.961 71.34 352.69 69.8 347.122 63.05 339.104 54.925 332.033 48.865 330.621 47.655 329.091 46.327 328.633 45.914 327.307 44.718 326.713 44.229 324.814 42.771 323.832 42.017 322.673 41.085 322.238 40.7 321.804 40.315 321.232 40 320.967 40 320.702 40 320.397 39.769 320.289 39.487 320.181 39.205 318.946 38.191 317.546 37.234 312.346 33.678 311.397 32.993 311.267 32.7 311.193 32.535 310.964 32.4 310.757 32.4 310.446 32.4 307.315 30.443 305.8 29.301 305.58 29.136 304.86 28.73 304.2 28.401 303.54 28.071 302.91 27.697 302.8 27.569 302.434 27.143 294.487 22.8 294.073 22.8 293.85 22.8 293.607 22.659 293.533 22.486 293.403 22.181 287.207 19.068 282.8 17.095 281.59 16.553 279.732 15.718 278.671 15.239 277.609 14.76 276.214 14.263 275.571 14.134 274.927 14.005 274.4 13.757 274.4 13.582 274.4 13.407 273.815 13.139 273.1 12.986 272.385 12.834 271.045 12.37 270.122 11.955 269.199 11.54 268.334 11.2 268.2 11.2 268.066 11.2 267.201 10.856 266.278 10.436 265.355 10.016 263.88 9.542 263 9.383 262.12 9.223 260.95 8.871 260.4 8.6 259.85 8.329 258.41 7.887 257.2 7.619 255.99 7.35 254.458 6.887 253.795 6.591 253.133 6.295 251.648 5.928 250.495 5.775 249.343 5.622 248.4 5.359 248.4 5.19 248.4 5.021 246.825 4.656 244.9 4.379 242.975 4.102 241.201 3.723 240.957 3.536 240.714 3.35 238.284 2.9 235.557 2.536 232.831 2.173 230.51 1.759 230.4 1.617 229.66 0.661 187.422-0.588 182.6 0.204M185 108.189C203.595 111.216 214.632 124.682 214.517 144.2 214.447 156.059 212.578 159.549 194.34 181.866 168.574 213.395 162.401 221.016 162.401 221.297 162.4 221.461 174.145 221.641 188.5 221.697L214.6 221.8 214.708 229.902 214.817 238.004 177.108 237.902 139.4 237.8 139.292 229.756 139.184 221.712 150.51 207.956C185.194 165.832 190.379 159.488 191.847 157.388 196.631 150.541 197.401 140.639 193.72 133.296 187.392 120.674 166.238 121.074 160.156 133.93 159.226 135.896 158.894 137.344 158.145 142.7L157.964 144 148.722 144 139.48 144 139.731 140.5C141.322 118.307 160.976 104.279 185 108.189M102.511 113.289C120.235 118.14 129.938 132.119 127.96 149.954 126.875 159.737 120.135 169.7 112.7 172.51 111.68 172.896 111.843 173.56 113.073 174.028 119.607 176.512 127.071 185.415 128.978 193 133.585 211.321 125.565 228.686 109.6 234.962 102.325 237.821 103.349 237.744 70.7 237.899L41.2 238.038 41.2 175.002 41.2 111.965 69.9 112.092 98.6 112.219 102.511 113.289M237.033 115.8C237.519 117.78 239.098 124.26 240.542 130.2 241.986 136.14 244.088 144.78 245.213 149.4 246.338 154.02 248.573 163.2 250.18 169.8 251.787 176.4 254.128 186.03 255.382 191.2 256.636 196.37 257.801 200.743 257.97 200.919 258.139 201.094 259.107 198.304 260.121 194.719 264.699 178.526 268.926 163.507 273.213 148.2 274.568 143.36 276.894 135.08 278.382 129.8 279.869 124.52 281.597 118.355 282.22 116.1L283.354 112 291.034 112C297.724 112 298.746 112.083 298.961 112.644 299.097 112.998 301.109 120.063 303.431 128.344 308.877 147.764 310.69 154.204 313.805 165.2 315.208 170.15 317.527 178.43 318.958 183.6 322.34 195.812 323.916 201.249 324.138 201.472 324.237 201.57 324.803 199.615 325.396 197.126 325.989 194.637 327.884 186.84 329.607 179.8 331.331 172.76 333.308 164.66 334 161.8 334.693 158.94 336.136 153 337.207 148.6 338.278 144.2 340.424 135.38 341.975 129 343.526 122.62 345.101 116.185 345.475 114.7L346.154 112 356.077 112C364.91 112 366 112.07 366 112.641 366 112.993 364.764 117.988 363.253 123.741 361.742 129.493 358.933 140.23 357.01 147.6 355.087 154.97 352.196 166.04 350.586 172.2 348.976 178.36 346.129 189.25 344.26 196.4 342.391 203.55 339.391 215.07 337.595 222 335.798 228.93 334.104 235.32 333.831 236.2L333.333 237.8 324.983 237.8 316.632 237.8 314.954 232C312.125 222.219 307.305 205.598 306.196 201.8 305.618 199.82 304.362 195.5 303.406 192.2 302.45 188.9 301.037 184.04 300.265 181.4 298.543 175.507 294.817 162.664 292.954 156.2 291.098 149.762 291.219 150.068 290.818 150.8 290.638 151.13 289.304 155.54 287.855 160.6 286.405 165.66 284.33 172.86 283.242 176.6 282.155 180.34 279.553 189.34 277.46 196.6 270.659 220.188 268.367 228.118 266.972 232.886 266.217 235.463 265.6 237.668 265.6 237.786 265.6 238.46 248.848 237.979 248.649 237.3 248.536 236.915 247.626 233.45 246.626 229.6 244.283 220.573 239.642 202.791 235.403 186.6 233.56 179.56 230.408 167.5 228.399 159.8 223.936 142.697 218.3 121.115 216.978 116.064 216.44 114.01 216 112.252 216 112.157 216 112.063 220.534 112.034 226.075 112.093L236.151 112.2 237.033 115.8M60.4 147.177 60.4 165.2 76.336 165.2C93.751 165.2 95.673 164.996 100.299 162.651 111.297 157.078 112.211 139.21 101.835 132.613 96.759 129.386 97.039 129.425 77.7 129.281L60.4 129.154 60.4 147.177M60.4 201.574 60.4 220.8 77.316 220.8C95.518 220.8 96.486 220.711 101.101 218.603 113.459 212.959 114.526 193.079 102.869 185.653 98.205 182.682 97.775 182.627 78.1 182.48L60.4 182.348 60.4 201.574M183.788 270.814C186.535 271.86 191.6 276.425 191.6 277.855 191.6 278.365 190.679 279.481 189.186 280.78L186.771 282.88 185.181 281.073C178.684 273.692 167.178 278.438 167.209 288.487 167.237 297.935 178.487 303.366 184.201 296.69 186.338 294.193 186.174 294.001 181.9 293.994 177.068 293.986 177.141 294.05 177.283 289.966L177.4 286.6 185.8 286.6 194.2 286.6 194.316 289.665C195.005 307.839 169.785 313.995 161.112 297.77 152.859 282.333 167.701 264.691 183.788 270.814M125.6 270.424C144.429 273.451 144.715 302.851 125.95 306.409 124.818 306.624 120.675 306.8 116.745 306.8L109.6 306.8 109.6 288.667C109.6 278.693 109.72 270.413 109.867 270.267 110.293 269.84 122.744 269.965 125.6 270.424M153.504 288.5 153.608 306.8 149.604 306.8 145.6 306.8 145.6 288.667C145.6 278.693 145.726 270.407 145.881 270.253 146.035 270.098 147.79 270.023 149.781 270.086L153.4 270.2 153.504 288.5M207.504 288.515 207.608 306.829 203.704 306.715 199.8 306.6 199.696 288.8C199.638 279.01 199.68 270.768 199.789 270.485 199.935 270.104 200.953 270 203.693 270.085L207.4 270.2 207.504 288.515M237 274 237 277.8 232.9 277.914 228.8 278.028 228.8 292.414 228.8 306.8 224.8 306.8 220.8 306.8 220.8 292.414 220.8 278.028 216.7 277.914 212.6 277.8 212.483 274.433C212.418 272.582 212.459 270.824 212.572 270.528 212.741 270.088 215.026 270.008 224.89 270.094L237 270.2 237 274M260.796 278.8C262.72 283.53 265.956 291.45 267.987 296.4 270.018 301.35 271.773 305.715 271.886 306.1 272.074 306.734 271.716 306.8 268.105 306.8L264.118 306.8 262.728 303.3 261.338 299.8 254.234 299.8 247.13 299.8 245.801 303.2 244.471 306.6 240.448 306.714 236.425 306.828 237.382 304.314C238.783 300.633 250.842 270.655 251.072 270.284 251.179 270.11 252.624 270.02 254.282 270.084L257.297 270.2 260.796 278.8M285.6 284.4 285.8 298.6 291.1 298.712 296.4 298.823 296.4 302.819 296.4 306.815 287.1 306.707 277.8 306.6 277.696 288.626C277.577 268.044 277.133 269.952 282 270.098L285.4 270.2 285.6 284.4M117.6 288.345 117.6 299.6 120.385 299.6C128.062 299.6 131.939 295.353 131.522 287.401 131.173 280.762 128.014 277.683 121.148 277.291L117.6 277.089 117.6 288.345M253.626 283.639C253.399 284.168 252.565 286.22 251.771 288.2 250.978 290.18 250.236 292.025 250.122 292.3 249.963 292.682 250.928 292.8 254.2 292.8 257.471 292.8 258.437 292.682 258.28 292.3 258.167 292.025 257.311 289.91 256.378 287.6 254.388 282.673 254.173 282.364 253.626 283.639" id="path1" fill="#04EBC3" fill-rule="evenodd"/><path d="M41.2 175.002 41.2 238.038 70.7 237.899C103.349 237.744 102.325 237.821 109.6 234.962 125.565 228.686 133.585 211.321 128.978 193 127.071 185.415 119.607 176.512 113.073 174.028 111.843 173.56 111.68 172.896 112.7 172.51 120.135 169.7 126.875 159.737 127.96 149.954 129.938 132.119 120.235 118.14 102.511 113.289L98.6 112.219 69.9 112.092 41.2 111.965 41.2 175.002M216 112.157C216 112.252 216.44 114.01 216.978 116.064 218.3 121.115 223.936 142.697 228.399 159.8 230.408 167.5 233.56 179.56 235.403 186.6 239.642 202.791 244.283 220.573 246.626 229.6 247.626 233.45 248.536 236.915 248.649 237.3 248.848 237.979 265.6 238.46 265.6 237.786 265.6 237.668 266.217 235.463 266.972 232.886 268.367 228.118 270.659 220.188 277.46 196.6 279.553 189.34 282.155 180.34 283.242 176.6 284.33 172.86 286.405 165.66 287.855 160.6 289.304 155.54 290.638 151.13 290.818 150.8 291.219 150.068 291.098 149.762 292.954 156.2 294.817 162.664 298.543 175.507 300.265 181.4 301.037 184.04 302.45 188.9 303.406 192.2 304.362 195.5 305.618 199.82 306.196 201.8 307.305 205.598 312.125 222.219 314.954 232L316.632 237.8 324.983 237.8 333.333 237.8 333.831 236.2C334.104 235.32 335.798 228.93 337.595 222 339.391 215.07 342.391 203.55 344.26 196.4 346.129 189.25 348.976 178.36 350.586 172.2 352.196 166.04 355.087 154.97 357.01 147.6 358.933 140.23 361.742 129.493 363.253 123.741 364.764 117.988 366 112.993 366 112.641 366 112.07 364.91 112 356.077 112L346.154 112 345.475 114.7C345.101 116.185 343.526 122.62 341.975 129 340.424 135.38 338.278 144.2 337.207 148.6 336.136 153 334.693 158.94 334 161.8 333.308 164.66 331.331 172.76 329.607 179.8 327.884 186.84 325.989 194.637 325.396 197.126 324.803 199.615 324.237 201.57 324.138 201.472 323.916 201.249 322.34 195.812 318.958 183.6 317.527 178.43 315.208 170.15 313.805 165.2 310.69 154.204 308.877 147.764 303.431 128.344 301.109 120.063 299.097 112.998 298.961 112.644 298.746 112.083 297.724 112 291.034 112L283.354 112 282.22 116.1C281.597 118.355 279.869 124.52 278.382 129.8 276.894 135.08 274.568 143.36 273.213 148.2 268.926 163.507 264.699 178.526 260.121 194.719 259.107 198.304 258.139 201.094 257.97 200.919 257.801 200.743 256.636 196.37 255.382 191.2 254.128 186.03 251.787 176.4 250.18 169.8 248.573 163.2 246.338 154.02 245.213 149.4 244.088 144.78 241.986 136.14 240.542 130.2 239.098 124.26 237.519 117.78 237.033 115.8L236.151 112.2 226.075 112.093C220.534 112.034 216 112.063 216 112.157M97.4 130.364C114.369 137.116 112.963 159.908 95.298 164.426 92.555 165.128 90.783 165.2 76.336 165.2L60.4 165.2 60.4 147.177 60.4 129.154 77.7 129.281C94.853 129.408 95.02 129.418 97.4 130.364M98.4 183.537C116.391 189.939 115.153 215.369 96.616 220.181 94.647 220.692 91.287 220.8 77.316 220.8L60.4 220.8 60.4 201.574 60.4 182.348 78.1 182.48C95.412 182.609 95.857 182.632 98.4 183.537M171.919 270.347C160.531 274.116 155.411 287.107 161.112 297.77 169.785 313.995 195.005 307.839 194.316 289.665L194.2 286.6 185.8 286.6 177.4 286.6 177.283 289.966C177.141 294.05 177.068 293.986 181.9 293.994 186.174 294.001 186.338 294.193 184.201 296.69 178.487 303.366 167.237 297.935 167.209 288.487 167.178 278.438 178.684 273.692 185.181 281.073L186.771 282.88 189.186 280.78C192.277 278.091 192.258 277.674 188.888 274.377 184.456 270.04 177.695 268.435 171.919 270.347M109.867 270.267C109.72 270.413 109.6 278.693 109.6 288.667L109.6 306.8 116.745 306.8C120.675 306.8 124.818 306.624 125.95 306.409 144.715 302.851 144.429 273.451 125.6 270.424 122.744 269.965 110.293 269.84 109.867 270.267M145.881 270.253C145.726 270.407 145.6 278.693 145.6 288.667L145.6 306.8 149.604 306.8 153.608 306.8 153.504 288.5 153.4 270.2 149.781 270.086C147.79 270.023 146.035 270.098 145.881 270.253M199.789 270.485C199.68 270.768 199.638 279.01 199.696 288.8L199.8 306.6 203.704 306.715 207.608 306.829 207.504 288.515 207.4 270.2 203.693 270.085C200.953 270 199.935 270.104 199.789 270.485M212.572 270.528C212.459 270.824 212.418 272.582 212.483 274.433L212.6 277.8 216.7 277.914 220.8 278.028 220.8 292.414 220.8 306.8 224.8 306.8 228.8 306.8 228.8 292.414 228.8 278.028 232.9 277.914 237 277.8 237 274 237 270.2 224.89 270.094C215.026 270.008 212.741 270.088 212.572 270.528M251.072 270.284C250.842 270.655 238.783 300.633 237.382 304.314L236.425 306.828 240.448 306.714 244.471 306.6 245.801 303.2 247.13 299.8 254.234 299.8 261.338 299.8 262.728 303.3 264.118 306.8 268.105 306.8C271.716 306.8 272.074 306.734 271.886 306.1 271.773 305.715 270.018 301.35 267.987 296.4 265.956 291.45 262.72 283.53 260.796 278.8L257.297 270.2 254.282 270.084C252.624 270.02 251.179 270.11 251.072 270.284M278.096 270.324C277.7 270.582 277.614 274.516 277.696 288.626L277.8 306.6 287.1 306.707 296.4 306.815 296.4 302.819 296.4 298.823 291.1 298.712 285.8 298.6 285.6 284.4 285.4 270.2 282 270.098C280.13 270.042 278.373 270.144 278.096 270.324M126.812 278.647C129.866 280.311 131.289 282.956 131.522 287.401 131.939 295.353 128.062 299.6 120.385 299.6L117.6 299.6 117.6 288.345 117.6 277.089 121.148 277.291C124.066 277.458 125.072 277.698 126.812 278.647M256.378 287.6C257.311 289.91 258.167 292.025 258.28 292.3 258.437 292.682 257.471 292.8 254.2 292.8 250.928 292.8 249.963 292.682 250.122 292.3 250.236 292.025 250.978 290.18 251.771 288.2 253.931 282.809 254.012 282.648 254.36 283.039 254.537 283.238 255.445 285.29 256.378 287.6" id="path2" fill="#171918" fill-rule="evenodd"/><path d="M169 108.235C152.537 111.131 140.918 123.939 139.731 140.5L139.48 144 148.722 144 157.964 144 158.145 142.7C158.894 137.344 159.226 135.896 160.156 133.93 166.238 121.074 187.392 120.674 193.72 133.296 197.401 140.639 196.631 150.541 191.847 157.388 190.379 159.488 185.194 165.832 150.51 207.956L139.184 221.712 139.292 229.756 139.4 237.8 177.108 237.902 214.817 238.004 214.708 229.902 214.6 221.8 188.5 221.697C174.145 221.641 162.4 221.461 162.401 221.297 162.401 221.016 168.574 213.395 194.34 181.866 212.578 159.549 214.447 156.059 214.517 144.2 214.665 119.2 194.998 103.661 169 108.235" id="path0" fill="#F9FBFB" fill-rule="evenodd"/><path d="M182.6 0.204C182.16 0.276 179.19 0.554 176 0.821 172.81 1.088 170.02 1.437 169.8 1.597 169.58 1.756 167.69 2.106 165.6 2.375 163.51 2.643 160.36 3.197 158.6 3.605 156.84 4.013 154.545 4.469 153.5 4.619 152.455 4.768 151.6 5.026 151.6 5.191 151.6 5.356 150.753 5.607 149.717 5.749 147.982 5.987 146.436 6.42 141 8.191 139.9 8.549 137.875 9.118 136.5 9.454 135.125 9.79 134 10.231 134 10.433 134 10.635 133.631 10.8 133.181 10.8 132.73 10.8 131.616 11.16 130.706 11.6 129.795 12.04 128.87 12.4 128.651 12.4 128.432 12.4 127.521 12.736 126.626 13.148 125.732 13.559 124.37 14.126 123.6 14.408 119.386 15.95 104.898 22.814 103.844 23.768 103.581 24.006 101.979 24.918 100.283 25.797 98.587 26.675 97.2 27.51 97.2 27.653 97.2 27.796 96.795 28.015 96.3 28.14 95.805 28.265 95.04 28.649 94.6 28.994 94.16 29.34 92.81 30.245 91.6 31.008 87.977 33.289 78.132 40.259 77.2 41.202 77.09 41.314 76.28 41.926 75.4 42.564 74.52 43.202 73.44 44.047 73 44.443 72.56 44.839 71.825 45.5 71.367 45.914 70.909 46.327 69.379 47.648 67.967 48.85 66.555 50.051 64.567 51.837 63.549 52.817 62.53 53.798 60.46 55.789 58.949 57.243 55.469 60.588 48.829 67.814 46.163 71.157 45.743 71.683 44.995 72.481 44.5 72.929 44.005 73.377 43.6 73.877 43.6 74.038 43.6 74.2 43.24 74.752 42.801 75.266 40.671 77.755 40.001 78.624 40 78.9 40 79.065 39.685 79.539 39.3 79.952 38.335 80.99 37.466 82.142 35.192 85.4 34.117 86.94 33.084 88.38 32.896 88.6 32.709 88.82 32.297 89.585 31.98 90.3 31.664 91.015 31.266 91.6 31.096 91.6 30.926 91.6 30.487 92.23 30.119 93 29.752 93.77 29.327 94.4 29.174 94.4 29.022 94.4 28.66 94.985 28.371 95.7 28.082 96.415 27.745 97.09 27.623 97.2 27.271 97.516 26.049 99.634 25.084 101.6 24.598 102.59 23.975 103.638 23.7 103.929 23.425 104.219 23.2 104.701 23.2 105 23.2 105.299 22.967 105.781 22.683 106.071 22.105 106.662 19.861 111.253 19.394 112.8 19.228 113.35 18.966 113.89 18.813 114 18.327 114.348 15.173 121.343 14.393 123.8 14.114 124.68 13.642 125.755 13.343 126.189 13.044 126.623 12.8 127.218 12.8 127.511 12.8 127.804 12.435 128.844 11.99 129.822 11.544 130.8 11.072 132.14 10.94 132.8 10.808 133.46 10.557 134 10.383 134 10.106 134 8.819 138.533 8.707 139.9 8.685 140.175 8.54 140.4 8.385 140.4 8.231 140.4 7.884 141.525 7.614 142.9 7.345 144.275 6.969 145.589 6.779 145.82 6.59 146.052 6.205 147.447 5.926 148.92 5.646 150.394 5.299 151.6 5.154 151.6 5.009 151.6 4.768 152.455 4.619 153.5 4.469 154.545 4.013 156.84 3.605 158.6 3.197 160.36 2.643 163.51 2.375 165.6 2.106 167.69 1.758 169.58 1.6 169.8-0.325 172.488-0.318 225.765 1.608 230.2 1.799 230.64 2.235 233.125 2.576 235.723 2.917 238.321 3.353 240.751 3.545 241.123 3.737 241.495 4.119 243.285 4.396 245.1 4.672 246.915 5.033 248.4 5.197 248.4 5.362 248.4 5.622 249.343 5.775 250.495 5.928 251.648 6.298 253.133 6.598 253.795 6.898 254.458 7.365 256.035 7.635 257.3 7.906 258.565 8.249 259.6 8.397 259.6 8.545 259.6 8.688 259.825 8.714 260.1 8.817 261.192 10.079 265.815 10.378 266.195 10.553 266.418 10.919 267.292 11.192 268.139 11.464 268.985 11.937 270.155 12.241 270.739 12.546 271.322 12.796 272.073 12.798 272.406 12.799 272.739 13.135 273.639 13.544 274.406 13.953 275.173 14.422 276.25 14.585 276.8 14.913 277.903 15.736 279.78 18.005 284.6 21.356 291.718 22.213 293.423 22.695 293.929 22.973 294.219 23.2 294.627 23.2 294.836 23.2 295.226 27.161 302.445 27.571 302.8 27.698 302.91 28.071 303.54 28.4 304.2 28.729 304.86 29.109 305.49 29.244 305.6 29.378 305.71 29.788 306.385 30.154 307.1 30.521 307.815 30.952 308.4 31.113 308.4 31.273 308.4 31.664 308.985 31.98 309.7 32.568 311.027 32.869 311.472 34.1 312.829 34.485 313.253 34.8 313.688 34.8 313.795 34.8 314.212 37.787 318.4 38.085 318.4 38.258 318.4 38.4 318.668 38.4 318.997 38.4 319.325 38.76 319.818 39.2 320.093 39.64 320.368 40 320.774 40 320.996 40.001 321.218 40.406 321.881 40.9 322.47 41.395 323.058 42.25 324.115 42.8 324.819 43.35 325.522 44.16 326.511 44.6 327.017 45.04 327.522 45.673 328.265 46.008 328.668 50.383 333.939 54.906 338.867 59 342.823 64.155 347.806 65.386 348.943 68 351.145 70.561 353.301 71.105 353.778 72.896 355.438 73.393 355.899 74.52 356.798 75.4 357.436 76.28 358.074 77.09 358.686 77.2 358.798 78.114 359.722 85.795 365.2 86.177 365.2 86.3 365.2 86.73 365.515 87.134 365.9 87.934 366.663 88.317 366.927 91.6 368.986 92.81 369.745 93.98 370.518 94.2 370.705 94.42 370.892 95.185 371.303 95.9 371.62 96.615 371.936 97.2 372.288 97.2 372.401 97.2 372.514 98.595 373.325 100.3 374.203 102.005 375.082 103.49 375.908 103.6 376.039 103.963 376.474 111.797 380.417 117 382.785 118.54 383.486 120.25 384.293 120.8 384.578 121.35 384.863 122.52 385.323 123.4 385.601 124.28 385.878 125.182 386.247 125.405 386.423 125.628 386.598 126.663 386.955 127.705 387.218 128.747 387.48 129.6 387.814 129.6 387.96 129.6 388.106 130.455 388.461 131.5 388.748 132.545 389.036 133.94 389.516 134.6 389.814 136.157 390.517 141.829 392.257 143.729 392.613 144.543 392.766 145.297 393.034 145.406 393.209 145.514 393.384 146.907 393.753 148.501 394.028 150.096 394.303 151.583 394.666 151.807 394.836 152.032 395.006 153.472 395.349 155.007 395.598 156.543 395.848 158.16 396.22 158.6 396.426 159.04 396.631 161.83 397.165 164.8 397.612 167.77 398.059 172.18 398.722 174.6 399.085 181.044 400.052 218.902 400.057 225.4 399.092 236 397.517 246.732 395.511 248.2 394.83 248.64 394.626 250.215 394.245 251.7 393.984 253.185 393.723 254.4 393.373 254.4 393.207 254.4 393.04 255.525 392.685 256.9 392.417 258.275 392.15 259.94 391.687 260.6 391.389 261.26 391.091 262.61 390.646 263.6 390.4 264.59 390.154 265.971 389.692 266.668 389.373 267.366 389.054 268.491 388.682 269.168 388.546 269.846 388.411 270.4 388.177 270.4 388.026 270.4 387.875 271.3 387.521 272.4 387.239 273.5 386.957 274.4 386.585 274.4 386.413 274.4 386.241 274.971 385.986 275.67 385.846 276.908 385.598 277.771 385.228 284.8 381.93 290.989 379.026 293.398 377.804 293.533 377.5 293.607 377.335 293.85 377.2 294.073 377.2 294.635 377.2 302.568 372.739 302.733 372.33 302.807 372.149 303.014 372 303.193 372 303.373 372 304.663 371.282 306.06 370.405 307.457 369.528 309.14 368.514 309.8 368.151 310.46 367.788 311.144 367.246 311.32 366.946 311.496 366.646 311.892 366.4 312.2 366.4 312.508 366.4 312.904 366.175 313.08 365.9 313.256 365.625 314.03 365.049 314.8 364.62 315.57 364.191 316.38 363.694 316.6 363.516 316.82 363.338 318.26 362.25 319.8 361.098 321.34 359.946 322.69 358.906 322.8 358.788 322.91 358.67 323.932 357.899 325.071 357.074 326.21 356.249 327.2 355.442 327.271 355.28 327.342 355.119 328.293 354.269 329.384 353.393 330.475 352.517 331.664 351.53 332.027 351.2 341.537 342.555 342.555 341.537 351.2 332.027 351.53 331.664 352.515 330.475 353.389 329.384 354.263 328.293 355.298 327.165 355.689 326.877 356.08 326.59 356.4 326.2 356.4 326.011 356.4 325.822 356.76 325.248 357.199 324.734 359.42 322.139 359.999 321.366 360 320.996 360 320.774 360.36 320.368 360.8 320.093 361.24 319.818 361.6 319.415 361.6 319.197 361.6 318.978 361.915 318.453 362.3 318.029 363.429 316.785 363.795 316.279 364.62 314.826 365.049 314.071 365.67 313.147 366 312.774 367.298 311.305 368.043 310.16 368.26 309.3 368.385 308.805 368.63 308.4 368.805 308.4 369.078 308.4 371.486 304.583 371.96 303.4 372.048 303.18 372.241 302.91 372.39 302.8 372.798 302.498 376.8 295.27 376.8 294.836 376.8 294.627 377.031 294.219 377.314 293.929 377.81 293.419 379.286 290.484 382.005 284.6 385.194 277.701 386.68 274.127 387.288 271.9 387.513 271.075 387.833 270.4 387.999 270.4 388.164 270.4 388.411 269.846 388.546 269.168 388.682 268.491 389.054 267.366 389.373 266.668 389.692 265.971 390.154 264.59 390.4 263.6 390.646 262.61 391.091 261.26 391.389 260.6 391.687 259.94 392.15 258.275 392.417 256.9 392.685 255.525 393.044 254.4 393.216 254.4 393.387 254.4 393.752 253.095 394.027 251.5 394.302 249.905 394.663 248.42 394.829 248.2 394.994 247.98 395.333 246.63 395.581 245.2 395.828 243.77 396.203 242.15 396.413 241.6 396.762 240.685 397.098 238.647 399.085 225.4 399.634 221.739 399.745 217.471 399.745 200 399.745 182.529 399.634 178.261 399.085 174.6 398.722 172.18 398.059 167.77 397.612 164.8 397.165 161.83 396.631 159.04 396.426 158.6 396.22 158.16 395.848 156.543 395.598 155.007 395.349 153.472 395 152.032 394.823 151.807 394.646 151.583 394.373 150.5 394.216 149.4 394.059 148.3 393.693 146.86 393.403 146.2 393.112 145.54 392.568 143.693 392.193 142.096 391.819 140.499 391.368 139.104 391.191 138.994 391.014 138.885 390.747 138.032 390.596 137.098 390.446 136.164 390.097 135.04 389.821 134.6 389.546 134.16 389.079 132.855 388.784 131.7 388.49 130.545 388.121 129.6 387.964 129.6 387.808 129.6 387.464 128.699 387.2 127.599 386.936 126.498 386.571 125.506 386.389 125.393 386.207 125.281 385.845 124.516 385.585 123.694 385.104 122.175 384.514 120.8 382.2 115.8 379.403 109.757 377.806 106.577 377.314 106.071 377.031 105.781 376.8 105.299 376.8 105 376.8 104.701 376.575 104.219 376.3 103.929 376.025 103.638 375.085 102.005 374.211 100.3 373.338 98.595 372.516 97.2 372.386 97.2 372.256 97.2 371.902 96.57 371.6 95.8 371.298 95.03 370.938 94.4 370.799 94.4 370.661 94.4 370.248 93.77 369.881 93 369.513 92.23 369.074 91.6 368.904 91.6 368.734 91.6 368.336 91.015 368.02 90.3 367.432 88.973 367.131 88.528 365.9 87.171 365.515 86.747 365.2 86.312 365.2 86.205 365.2 85.788 362.213 81.6 361.915 81.6 361.742 81.6 361.6 81.332 361.6 81.003 361.6 80.675 361.24 80.182 360.8 79.907 360.36 79.632 360 79.226 360 79.004 359.999 78.634 359.42 77.861 357.199 75.266 356.76 74.752 356.4 74.178 356.4 73.989 356.4 73.8 356.085 73.41 355.7 73.123 355.315 72.835 353.961 71.34 352.69 69.8 347.122 63.05 339.104 54.925 332.033 48.865 330.621 47.655 329.091 46.327 328.633 45.914 327.307 44.718 326.713 44.229 324.814 42.771 323.832 42.017 322.673 41.085 322.238 40.7 321.804 40.315 321.232 40 320.967 40 320.702 40 320.397 39.769 320.289 39.487 320.181 39.205 318.946 38.191 317.546 37.234 312.346 33.678 311.397 32.993 311.267 32.7 311.193 32.535 310.964 32.4 310.757 32.4 310.446 32.4 307.315 30.443 305.8 29.301 305.58 29.136 304.86 28.73 304.2 28.401 303.54 28.071 302.91 27.697 302.8 27.569 302.434 27.143 294.487 22.8 294.073 22.8 293.85 22.8 293.607 22.659 293.533 22.486 293.403 22.181 287.207 19.068 282.8 17.095 281.59 16.553 279.732 15.718 278.671 15.239 277.609 14.76 276.214 14.263 275.571 14.134 274.927 14.005 274.4 13.757 274.4 13.582 274.4 13.407 273.815 13.139 273.1 12.986 272.385 12.834 271.045 12.37 270.122 11.955 269.199 11.54 268.334 11.2 268.2 11.2 268.066 11.2 267.201 10.856 266.278 10.436 265.355 10.016 263.88 9.542 263 9.383 262.12 9.223 260.95 8.871 260.4 8.6 259.85 8.329 258.41 7.887 257.2 7.619 255.99 7.35 254.458 6.887 253.795 6.591 253.133 6.295 251.648 5.928 250.495 5.775 249.343 5.622 248.4 5.359 248.4 5.19 248.4 5.021 246.825 4.656 244.9 4.379 242.975 4.102 241.201 3.723 240.957 3.536 240.714 3.35 238.284 2.9 235.557 2.536 232.831 2.173 230.51 1.759 230.4 1.617 229.66 0.661 187.422-0.588 182.6 0.204M185 108.189C203.595 111.216 214.632 124.682 214.517 144.2 214.447 156.059 212.578 159.549 194.34 181.866 168.574 213.395 162.401 221.016 162.401 221.297 162.4 221.461 174.145 221.641 188.5 221.697L214.6 221.8 214.708 229.902 214.817 238.004 177.108 237.902 139.4 237.8 139.292 229.756 139.184 221.712 150.51 207.956C185.194 165.832 190.379 159.488 191.847 157.388 196.631 150.541 197.401 140.639 193.72 133.296 187.392 120.674 166.238 121.074 160.156 133.93 159.226 135.896 158.894 137.344 158.145 142.7L157.964 144 148.722 144 139.48 144 139.731 140.5C141.322 118.307 160.976 104.279 185 108.189M102.511 113.289C120.235 118.14 129.938 132.119 127.96 149.954 126.875 159.737 120.135 169.7 112.7 172.51 111.68 172.896 111.843 173.56 113.073 174.028 119.607 176.512 127.071 185.415 128.978 193 133.585 211.321 125.565 228.686 109.6 234.962 102.325 237.821 103.349 237.744 70.7 237.899L41.2 238.038 41.2 175.002 41.2 111.965 69.9 112.092 98.6 112.219 102.511 113.289M237.033 115.8C237.519 117.78 239.098 124.26 240.542 130.2 241.986 136.14 244.088 144.78 245.213 149.4 246.338 154.02 248.573 163.2 250.18 169.8 251.787 176.4 254.128 186.03 255.382 191.2 256.636 196.37 257.801 200.743 257.97 200.919 258.139 201.094 259.107 198.304 260.121 194.719 264.699 178.526 268.926 163.507 273.213 148.2 274.568 143.36 276.894 135.08 278.382 129.8 279.869 124.52 281.597 118.355 282.22 116.1L283.354 112 291.034 112C297.724 112 298.746 112.083 298.961 112.644 299.097 112.998 301.109 120.063 303.431 128.344 308.877 147.764 310.69 154.204 313.805 165.2 315.208 170.15 317.527 178.43 318.958 183.6 322.34 195.812 323.916 201.249 324.138 201.472 324.237 201.57 324.803 199.615 325.396 197.126 325.989 194.637 327.884 186.84 329.607 179.8 331.331 172.76 333.308 164.66 334 161.8 334.693 158.94 336.136 153 337.207 148.6 338.278 144.2 340.424 135.38 341.975 129 343.526 122.62 345.101 116.185 345.475 114.7L346.154 112 356.077 112C364.91 112 366 112.07 366 112.641 366 112.993 364.764 117.988 363.253 123.741 361.742 129.493 358.933 140.23 357.01 147.6 355.087 154.97 352.196 166.04 350.586 172.2 348.976 178.36 346.129 189.25 344.26 196.4 342.391 203.55 339.391 215.07 337.595 222 335.798 228.93 334.104 235.32 333.831 236.2L333.333 237.8 324.983 237.8 316.632 237.8 314.954 232C312.125 222.219 307.305 205.598 306.196 201.8 305.618 199.82 304.362 195.5 303.406 192.2 302.45 188.9 301.037 184.04 300.265 181.4 298.543 175.507 294.817 162.664 292.954 156.2 291.098 149.762 291.219 150.068 290.818 150.8 290.638 151.13 289.304 155.54 287.855 160.6 286.405 165.66 284.33 172.86 283.242 176.6 282.155 180.34 279.553 189.34 277.46 196.6 270.659 220.188 268.367 228.118 266.972 232.886 266.217 235.463 265.6 237.668 265.6 237.786 265.6 238.46 248.848 237.979 248.649 237.3 248.536 236.915 247.626 233.45 246.626 229.6 244.283 220.573 239.642 202.791 235.403 186.6 233.56 179.56 230.408 167.5 228.399 159.8 223.936 142.697 218.3 121.115 216.978 116.064 216.44 114.01 216 112.252 216 112.157 216 112.063 220.534 112.034 226.075 112.093L236.151 112.2 237.033 115.8M60.4 147.177 60.4 165.2 76.336 165.2C93.751 165.2 95.673 164.996 100.299 162.651 111.297 157.078 112.211 139.21 101.835 132.613 96.759 129.386 97.039 129.425 77.7 129.281L60.4 129.154 60.4 147.177M60.4 201.574 60.4 220.8 77.316 220.8C95.518 220.8 96.486 220.711 101.101 218.603 113.459 212.959 114.526 193.079 102.869 185.653 98.205 182.682 97.775 182.627 78.1 182.48L60.4 182.348 60.4 201.574M183.788 270.814C186.535 271.86 191.6 276.425 191.6 277.855 191.6 278.365 190.679 279.481 189.186 280.78L186.771 282.88 185.181 281.073C178.684 273.692 167.178 278.438 167.209 288.487 167.237 297.935 178.487 303.366 184.201 296.69 186.338 294.193 186.174 294.001 181.9 293.994 177.068 293.986 177.141 294.05 177.283 289.966L177.4 286.6 185.8 286.6 194.2 286.6 194.316 289.665C195.005 307.839 169.785 313.995 161.112 297.77 152.859 282.333 167.701 264.691 183.788 270.814M125.6 270.424C144.429 273.451 144.715 302.851 125.95 306.409 124.818 306.624 120.675 306.8 116.745 306.8L109.6 306.8 109.6 288.667C109.6 278.693 109.72 270.413 109.867 270.267 110.293 269.84 122.744 269.965 125.6 270.424M153.504 288.5 153.608 306.8 149.604 306.8 145.6 306.8 145.6 288.667C145.6 278.693 145.726 270.407 145.881 270.253 146.035 270.098 147.79 270.023 149.781 270.086L153.4 270.2 153.504 288.5M207.504 288.515 207.608 306.829 203.704 306.715 199.8 306.6 199.696 288.8C199.638 279.01 199.68 270.768 199.789 270.485 199.935 270.104 200.953 270 203.693 270.085L207.4 270.2 207.504 288.515M237 274 237 277.8 232.9 277.914 228.8 278.028 228.8 292.414 228.8 306.8 224.8 306.8 220.8 306.8 220.8 292.414 220.8 278.028 216.7 277.914 212.6 277.8 212.483 274.433C212.418 272.582 212.459 270.824 212.572 270.528 212.741 270.088 215.026 270.008 224.89 270.094L237 270.2 237 274M260.796 278.8C262.72 283.53 265.956 291.45 267.987 296.4 270.018 301.35 271.773 305.715 271.886 306.1 272.074 306.734 271.716 306.8 268.105 306.8L264.118 306.8 262.728 303.3 261.338 299.8 254.234 299.8 247.13 299.8 245.801 303.2 244.471 306.6 240.448 306.714 236.425 306.828 237.382 304.314C238.783 300.633 250.842 270.655 251.072 270.284 251.179 270.11 252.624 270.02 254.282 270.084L257.297 270.2 260.796 278.8M285.6 284.4 285.8 298.6 291.1 298.712 296.4 298.823 296.4 302.819 296.4 306.815 287.1 306.707 277.8 306.6 277.696 288.626C277.577 268.044 277.133 269.952 282 270.098L285.4 270.2 285.6 284.4M117.6 288.345 117.6 299.6 120.385 299.6C128.062 299.6 131.939 295.353 131.522 287.401 131.173 280.762 128.014 277.683 121.148 277.291L117.6 277.089 117.6 288.345M253.626 283.639C253.399 284.168 252.565 286.22 251.771 288.2 250.978 290.18 250.236 292.025 250.122 292.3 249.963 292.682 250.928 292.8 254.2 292.8 257.471 292.8 258.437 292.682 258.28 292.3 258.167 292.025 257.311 289.91 256.378 287.6 254.388 282.673 254.173 282.364 253.626 283.639" id="path1" fill="#04EBC3" fill-rule="evenodd"/><path d="M41.2 175.002 41.2 238.038 70.7 237.899C103.349 237.744 102.325 237.821 109.6 234.962 125.565 228.686 133.585 211.321 128.978 193 127.071 185.415 119.607 176.512 113.073 174.028 111.843 173.56 111.68 172.896 112.7 172.51 120.135 169.7 126.875 159.737 127.96 149.954 129.938 132.119 120.235 118.14 102.511 113.289L98.6 112.219 69.9 112.092 41.2 111.965 41.2 175.002M216 112.157C216 112.252 216.44 114.01 216.978 116.064 218.3 121.115 223.936 142.697 228.399 159.8 230.408 167.5 233.56 179.56 235.403 186.6 239.642 202.791 244.283 220.573 246.626 229.6 247.626 233.45 248.536 236.915 248.649 237.3 248.848 237.979 265.6 238.46 265.6 237.786 265.6 237.668 266.217 235.463 266.972 232.886 268.367 228.118 270.659 220.188 277.46 196.6 279.553 189.34 282.155 180.34 283.242 176.6 284.33 172.86 286.405 165.66 287.855 160.6 289.304 155.54 290.638 151.13 290.818 150.8 291.219 150.068 291.098 149.762 292.954 156.2 294.817 162.664 298.543 175.507 300.265 181.4 301.037 184.04 302.45 188.9 303.406 192.2 304.362 195.5 305.618 199.82 306.196 201.8 307.305 205.598 312.125 222.219 314.954 232L316.632 237.8 324.983 237.8 333.333 237.8 333.831 236.2C334.104 235.32 335.798 228.93 337.595 222 339.391 215.07 342.391 203.55 344.26 196.4 346.129 189.25 348.976 178.36 350.586 172.2 352.196 166.04 355.087 154.97 357.01 147.6 358.933 140.23 361.742 129.493 363.253 123.741 364.764 117.988 366 112.993 366 112.641 366 112.07 364.91 112 356.077 112L346.154 112 345.475 114.7C345.101 116.185 343.526 122.62 341.975 129 340.424 135.38 338.278 144.2 337.207 148.6 336.136 153 334.693 158.94 334 161.8 333.308 164.66 331.331 172.76 329.607 179.8 327.884 186.84 325.989 194.637 325.396 197.126 324.803 199.615 324.237 201.57 324.138 201.472 323.916 201.249 322.34 195.812 318.958 183.6 317.527 178.43 315.208 170.15 313.805 165.2 310.69 154.204 308.877 147.764 303.431 128.344 301.109 120.063 299.097 112.998 298.961 112.644 298.746 112.083 297.724 112 291.034 112L283.354 112 282.22 116.1C281.597 118.355 279.869 124.52 278.382 129.8 276.894 135.08 274.568 143.36 273.213 148.2 268.926 163.507 264.699 178.526 260.121 194.719 259.107 198.304 258.139 201.094 257.97 200.919 257.801 200.743 256.636 196.37 255.382 191.2 254.128 186.03 251.787 176.4 250.18 169.8 248.573 163.2 246.338 154.02 245.213 149.4 244.088 144.78 241.986 136.14 240.542 130.2 239.098 124.26 237.519 117.78 237.033 115.8L236.151 112.2 226.075 112.093C220.534 112.034 216 112.063 216 112.157M97.4 130.364C114.369 137.116 112.963 159.908 95.298 164.426 92.555 165.128 90.783 165.2 76.336 165.2L60.4 165.2 60.4 147.177 60.4 129.154 77.7 129.281C94.853 129.408 95.02 129.418 97.4 130.364M98.4 183.537C116.391 189.939 115.153 215.369 96.616 220.181 94.647 220.692 91.287 220.8 77.316 220.8L60.4 220.8 60.4 201.574 60.4 182.348 78.1 182.48C95.412 182.609 95.857 182.632 98.4 183.537M171.919 270.347C160.531 274.116 155.411 287.107 161.112 297.77 169.785 313.995 195.005 307.839 194.316 289.665L194.2 286.6 185.8 286.6 177.4 286.6 177.283 289.966C177.141 294.05 177.068 293.986 181.9 293.994 186.174 294.001 186.338 294.193 184.201 296.69 178.487 303.366 167.237 297.935 167.209 288.487 167.178 278.438 178.684 273.692 185.181 281.073L186.771 282.88 189.186 280.78C192.277 278.091 192.258 277.674 188.888 274.377 184.456 270.04 177.695 268.435 171.919 270.347M109.867 270.267C109.72 270.413 109.6 278.693 109.6 288.667L109.6 306.8 116.745 306.8C120.675 306.8 124.818 306.624 125.95 306.409 144.715 302.851 144.429 273.451 125.6 270.424 122.744 269.965 110.293 269.84 109.867 270.267M145.881 270.253C145.726 270.407 145.6 278.693 145.6 288.667L145.6 306.8 149.604 306.8 153.608 306.8 153.504 288.5 153.4 270.2 149.781 270.086C147.79 270.023 146.035 270.098 145.881 270.253M199.789 270.485C199.68 270.768 199.638 279.01 199.696 288.8L199.8 306.6 203.704 306.715 207.608 306.829 207.504 288.515 207.4 270.2 203.693 270.085C200.953 270 199.935 270.104 199.789 270.485M212.572 270.528C212.459 270.824 212.418 272.582 212.483 274.433L212.6 277.8 216.7 277.914 220.8 278.028 220.8 292.414 220.8 306.8 224.8 306.8 228.8 306.8 228.8 292.414 228.8 278.028 232.9 277.914 237 277.8 237 274 237 270.2 224.89 270.094C215.026 270.008 212.741 270.088 212.572 270.528M251.072 270.284C250.842 270.655 238.783 300.633 237.382 304.314L236.425 306.828 240.448 306.714 244.471 306.6 245.801 303.2 247.13 299.8 254.234 299.8 261.338 299.8 262.728 303.3 264.118 306.8 268.105 306.8C271.716 306.8 272.074 306.734 271.886 306.1 271.773 305.715 270.018 301.35 267.987 296.4 265.956 291.45 262.72 283.53 260.796 278.8L257.297 270.2 254.282 270.084C252.624 270.02 251.179 270.11 251.072 270.284M278.096 270.324C277.7 270.582 277.614 274.516 277.696 288.626L277.8 306.6 287.1 306.707 296.4 306.815 296.4 302.819 296.4 298.823 291.1 298.712 285.8 298.6 285.6 284.4 285.4 270.2 282 270.098C280.13 270.042 278.373 270.144 278.096 270.324M126.812 278.647C129.866 280.311 131.289 282.956 131.522 287.401 131.939 295.353 128.062 299.6 120.385 299.6L117.6 299.6 117.6 288.345 117.6 277.089 121.148 277.291C124.066 277.458 125.072 277.698 126.812 278.647M256.378 287.6C257.311 289.91 258.167 292.025 258.28 292.3 258.437 292.682 257.471 292.8 254.2 292.8 250.928 292.8 249.963 292.682 250.122 292.3 250.236 292.025 250.978 290.18 251.771 288.2 253.931 282.809 254.012 282.648 254.36 283.039 254.537 283.238 255.445 285.29 256.378 287.6" id="path2" fill="#171918" fill-rule="evenodd"/></g></svg>