<svg xmlns="http://www.w3.org/2000/svg" width="173.458" height="29.01" viewBox="0 0 173.458 29.01">
  <g id="logo-nopcommerce" transform="translate(-0.01 0.061)">
    <path id="Caminho_57" data-name="Caminho 57" d="M823.235,154.467a3.944,3.944,0,0,1,2.854-1.371,1.888,1.888,0,0,1,1.492.555,2.172,2.172,0,0,1,.49,1.491v6.767h1.917v-7.05a3.282,3.282,0,0,0-.893-2.447,3.351,3.351,0,0,0-2.461-.881,4.4,4.4,0,0,0-1.927.4,5.882,5.882,0,0,0-1.6,1.164l-.283-1.414h-1.5v10.226h1.917v-7.441Z" transform="translate(-773.655 -142.796)" fill="#363e4e"/>
    <path id="Caminho_58" data-name="Caminho 58" d="M1002.849,154.457a4.591,4.591,0,0,0-1.046-1.621,4.3,4.3,0,0,0-1.568-.979,5.782,5.782,0,0,0-1.972-.326,5.382,5.382,0,0,0-1.982.359,4.635,4.635,0,0,0-1.6,1.044,4.84,4.84,0,0,0-1.078,1.686,6.224,6.224,0,0,0-.392,2.285,6.054,6.054,0,0,0,.381,2.23,4.706,4.706,0,0,0,1.046,1.632,4.338,4.338,0,0,0,1.568,1,5.6,5.6,0,0,0,1.972.337,5.384,5.384,0,0,0,1.982-.359,4.565,4.565,0,0,0,1.6-1.055,4.936,4.936,0,0,0,1.078-1.708,6.308,6.308,0,0,0,.392-2.3A6.067,6.067,0,0,0,1002.849,154.457Zm-1.874,4.177a3.267,3.267,0,0,1-.664,1.175,2.307,2.307,0,0,1-.959.631,3.427,3.427,0,0,1-1.111.185,2.971,2.971,0,0,1-1.111-.218,2.65,2.65,0,0,1-.97-.675,3.409,3.409,0,0,1-.686-1.186,5.209,5.209,0,0,1-.261-1.752,5.73,5.73,0,0,1,.251-1.838,3.141,3.141,0,0,1,.664-1.165,2.253,2.253,0,0,1,.958-.609,3.626,3.626,0,0,1,1.111-.174,3.114,3.114,0,0,1,1.111.207,2.558,2.558,0,0,1,.97.664,3.429,3.429,0,0,1,.686,1.176,5.115,5.115,0,0,1,.262,1.74A5.761,5.761,0,0,1,1000.975,158.634Z" transform="translate(-935.572 -142.796)" fill="#363e4e"/>
    <path id="Caminho_59" data-name="Caminho 59" d="M1192.765,161.778a4.563,4.563,0,0,0,1.612-1,4.87,4.87,0,0,0,1.133-1.719,6.57,6.57,0,0,0,.425-2.48,5.407,5.407,0,0,0-1.176-3.742,4.12,4.12,0,0,0-3.224-1.306,3.673,3.673,0,0,0-1.742.392,6.265,6.265,0,0,0-1.329.935l-.283-1.327h-1.59v15.383h1.9v-5.527a3.787,3.787,0,0,0,1.1.523,4.568,4.568,0,0,0,1.34.2A5.4,5.4,0,0,0,1192.765,161.778Zm.479-7.735a4.314,4.314,0,0,1,.686,2.579,5.4,5.4,0,0,1-.283,1.871,3.564,3.564,0,0,1-.74,1.24,2.66,2.66,0,0,1-1.046.686,3.507,3.507,0,0,1-1.176.207,3.834,3.834,0,0,1-1.133-.174,3.54,3.54,0,0,1-1.068-.544v-5.461a4.579,4.579,0,0,1,1.046-.9,2.821,2.821,0,0,1,1.59-.446A2.443,2.443,0,0,1,1193.245,154.043Z" transform="translate(-1117.732 -142.796)" fill="#363e4e"/>
    <path id="Caminho_60" data-name="Caminho 60" d="M1370.871,101.051a3.6,3.6,0,0,1-1.318-.859,3.939,3.939,0,0,1-.882-1.447,6.78,6.78,0,0,1,.011-4.124,3.764,3.764,0,0,1,.893-1.4,3.442,3.442,0,0,1,1.329-.794,5.215,5.215,0,0,1,1.634-.25,4.987,4.987,0,0,1,1.514.218,6.292,6.292,0,0,1,1.187.5l.74-2.415a7.891,7.891,0,0,0-1.427-.555,8.338,8.338,0,0,0-2.342-.272,8.662,8.662,0,0,0-3.061.511,6.547,6.547,0,0,0-2.309,1.436,6.244,6.244,0,0,0-1.459,2.241,7.959,7.959,0,0,0-.512,2.905,7.776,7.776,0,0,0,.534,2.948,6.411,6.411,0,0,0,1.492,2.241,6.552,6.552,0,0,0,2.309,1.425,8.464,8.464,0,0,0,2.963.5,9.286,9.286,0,0,0,2.385-.261,5.935,5.935,0,0,0,1.4-.522l-.653-2.372a4.084,4.084,0,0,1-1.133.457,6.7,6.7,0,0,1-1.655.175A4.621,4.621,0,0,1,1370.871,101.051Z" transform="translate(-1285.668 -84.506)" fill="#363e4e"/>
    <path id="Caminho_61" data-name="Caminho 61" d="M1565.468,149.348a4.86,4.86,0,0,0-1.133-1.686,4.7,4.7,0,0,0-1.71-1.034,6.433,6.433,0,0,0-2.146-.348,6.027,6.027,0,0,0-2.157.381,5.035,5.035,0,0,0-1.742,1.1,5.1,5.1,0,0,0-1.166,1.763,6.25,6.25,0,0,0-.425,2.371,5.8,5.8,0,0,0,.414,2.252,4.763,4.763,0,0,0,1.133,1.665,4.922,4.922,0,0,0,1.71,1.034,6.26,6.26,0,0,0,2.146.358,6.03,6.03,0,0,0,2.157-.38,5.046,5.046,0,0,0,1.742-1.1,5.14,5.14,0,0,0,1.166-1.741,5.963,5.963,0,0,0,.425-2.306A6.068,6.068,0,0,0,1565.468,149.348Zm-3.072,3.873a2.691,2.691,0,0,1-.468.946,1.786,1.786,0,0,1-.675.522,1.994,1.994,0,0,1-.795.163,1.961,1.961,0,0,1-1.5-.739,3.458,3.458,0,0,1-.653-2.329,5.515,5.515,0,0,1,.174-1.512,2.8,2.8,0,0,1,.468-.968,1.65,1.65,0,0,1,.675-.523,2.135,2.135,0,0,1,.795-.152,1.967,1.967,0,0,1,.806.174,1.874,1.874,0,0,1,.7.554,2.829,2.829,0,0,1,.479.979,5.235,5.235,0,0,1,.174,1.447A5.1,5.1,0,0,1,1562.4,153.221Z" transform="translate(-1464.756 -137.85)" fill="#363e4e"/>
    <path id="Caminho_62" data-name="Caminho 62" d="M1765.7,149.826a2.8,2.8,0,0,1,.937-.8,2.29,2.29,0,0,1,1.089-.3,1.188,1.188,0,0,1,.936.392,1.511,1.511,0,0,1,.349,1.044v6.81h3.224v-7.224a2.385,2.385,0,0,1,.936-.761,2.6,2.6,0,0,1,1.089-.261,1.189,1.189,0,0,1,.937.392,1.513,1.513,0,0,1,.349,1.044v6.81h3.224v-7.137a3.178,3.178,0,0,0-3.507-3.546,4.21,4.21,0,0,0-1.884.435,5.708,5.708,0,0,0-1.579,1.153,3.144,3.144,0,0,0-3.071-1.589,4.084,4.084,0,0,0-1.851.414,5.627,5.627,0,0,0-1.525,1.131l-.37-1.306h-2.5v10.444h3.224v-7.137Z" transform="translate(-1660.207 -137.85)" fill="#363e4e"/>
    <path id="Caminho_63" data-name="Caminho 63" d="M2066.405,149.826a2.8,2.8,0,0,1,.937-.8,2.29,2.29,0,0,1,1.089-.3,1.189,1.189,0,0,1,.937.392,1.513,1.513,0,0,1,.349,1.044v6.81h3.224v-7.224a2.383,2.383,0,0,1,.936-.761,2.6,2.6,0,0,1,1.089-.261,1.19,1.19,0,0,1,.937.392,1.513,1.513,0,0,1,.349,1.044v6.81h3.224v-7.137a3.178,3.178,0,0,0-3.508-3.546,4.21,4.21,0,0,0-1.884.435,5.709,5.709,0,0,0-1.579,1.153,3.144,3.144,0,0,0-3.072-1.589,4.084,4.084,0,0,0-1.851.414,5.633,5.633,0,0,0-1.525,1.131l-.37-1.306h-2.505v10.444h3.224v-7.137Z" transform="translate(-1943.46 -137.85)" fill="#363e4e"/>
    <path id="Caminho_64" data-name="Caminho 64" d="M2364.408,151.3a5.082,5.082,0,0,0-1.285-3.72,4.613,4.613,0,0,0-3.442-1.306,5.548,5.548,0,0,0-2.146.4,4.779,4.779,0,0,0-1.667,1.142,5.155,5.155,0,0,0-1.078,1.773,6.527,6.527,0,0,0-.381,2.274,5.609,5.609,0,0,0,.468,2.393,4.658,4.658,0,0,0,1.263,1.654,5.236,5.236,0,0,0,1.852.968,7.773,7.773,0,0,0,2.232.315,9.636,9.636,0,0,0,2.211-.217,7.6,7.6,0,0,0,1.492-.5l-.588-2.219a5.346,5.346,0,0,1-1.133.413,6.32,6.32,0,0,1-1.568.173,4.15,4.15,0,0,1-2.135-.5,1.708,1.708,0,0,1-.849-1.589v-.087h6.752Zm-6.687-.783a2.374,2.374,0,0,1,.588-1.447,1.659,1.659,0,0,1,1.263-.533,1.442,1.442,0,0,1,.708.163,1.38,1.38,0,0,1,.479.435,1.934,1.934,0,0,1,.272.62,2.948,2.948,0,0,1,.087.718Z" transform="translate(-2217.792 -137.841)" fill="#363e4e"/>
    <path id="Caminho_65" data-name="Caminho 65" d="M2541.512,156.954v-5.222a3.109,3.109,0,0,1,.665-2.263,2.28,2.28,0,0,1,1.666-.653,3.3,3.3,0,0,1,.915.108,3.14,3.14,0,0,1,.61.24l.523-2.5a2.617,2.617,0,0,0-.643-.272,3.1,3.1,0,0,0-.882-.12,3.539,3.539,0,0,0-1.144.174,3.428,3.428,0,0,0-.9.457,3.107,3.107,0,0,0-.675.664,5.113,5.113,0,0,0-.479.773l-.327-1.828h-2.527v10.445Z" transform="translate(-2391.021 -137.841)" fill="#363e4e"/>
    <path id="Caminho_66" data-name="Caminho 66" d="M2667.741,154.68a2.443,2.443,0,0,1-.937-.544,2.861,2.861,0,0,1-.676-.979,3.668,3.668,0,0,1-.261-1.469,3.116,3.116,0,0,1,.784-2.317,2.789,2.789,0,0,1,2.048-.773,3.476,3.476,0,0,1,1.078.174,4.783,4.783,0,0,1,.969.435l.675-2.2a5.878,5.878,0,0,0-1.623-.587,7.906,7.906,0,0,0-1.47-.153,6.445,6.445,0,0,0-2.331.4,5.375,5.375,0,0,0-1.808,1.131,4.994,4.994,0,0,0-1.176,1.741,6.36,6.36,0,0,0,.022,4.569,4.864,4.864,0,0,0,1.187,1.7,4.968,4.968,0,0,0,1.786,1.033,7.047,7.047,0,0,0,2.255.348,7.232,7.232,0,0,0,1.917-.238,5.571,5.571,0,0,0,1.242-.457l-.588-2.176a5.789,5.789,0,0,1-.817.338,3.763,3.763,0,0,1-1.231.185A3.481,3.481,0,0,1,2667.741,154.68Z" transform="translate(-2508.1 -137.841)" fill="#363e4e"/>
    <path id="Caminho_67" data-name="Caminho 67" d="M2827.188,151.3a5.081,5.081,0,0,0-1.285-3.72,4.612,4.612,0,0,0-3.442-1.306,5.547,5.547,0,0,0-2.146.4,4.775,4.775,0,0,0-1.666,1.142,5.151,5.151,0,0,0-1.078,1.773,6.527,6.527,0,0,0-.381,2.274,5.609,5.609,0,0,0,.468,2.393,4.657,4.657,0,0,0,1.263,1.654,5.24,5.24,0,0,0,1.852.968,7.775,7.775,0,0,0,2.233.315,9.638,9.638,0,0,0,2.211-.217,7.605,7.605,0,0,0,1.492-.5l-.588-2.219a5.346,5.346,0,0,1-1.133.413,6.322,6.322,0,0,1-1.568.173,4.149,4.149,0,0,1-2.135-.5,1.708,1.708,0,0,1-.85-1.589v-.087h6.753Zm-6.687-.783a2.373,2.373,0,0,1,.588-1.447,1.658,1.658,0,0,1,1.263-.533,1.44,1.44,0,0,1,.708.163,1.381,1.381,0,0,1,.479.435,1.928,1.928,0,0,1,.272.62,2.948,2.948,0,0,1,.087.718Z" transform="translate(-2653.72 -137.841)" fill="#363e4e"/>
    <path id="Caminho_68" data-name="Caminho 68" d="M518.085,346.276a4.427,4.427,0,0,1-4.485-4.391,5.1,5.1,0,0,1,5.062-4.955,4.685,4.685,0,0,1,4.605,4.432A5.132,5.132,0,0,1,518.085,346.276Z" transform="translate(-483.79 -317.438)" fill="#40bdd7"/>
    <path id="Caminho_69" data-name="Caminho 69" d="M307.034,354.154a5.015,5.015,0,0,1,4.787-4.914,3.587,3.587,0,0,1,3.5,2.748,5.016,5.016,0,0,1-4.606,5.969A3.646,3.646,0,0,1,307.034,354.154Z" transform="translate(-289.209 -329.034)" fill="#40bdd7"/>
    <path id="Caminho_70" data-name="Caminho 70" d="M533.744,164.445a3.347,3.347,0,0,0-1.409-4.071,4.819,4.819,0,0,0-6.085,1.1,3.832,3.832,0,0,0-1.026,2.894,3.612,3.612,0,0,0,4.142,3.224A5.025,5.025,0,0,0,533.744,164.445Z" transform="translate(-494.723 -150.515)" fill="#40bdd7"/>
    <path id="Caminho_71" data-name="Caminho 71" d="M338.164,186.368a3.06,3.06,0,0,1-3.108-3.885,4.869,4.869,0,0,1,4.506-3.7,3.111,3.111,0,0,1,3.187,3.9A4.85,4.85,0,0,1,338.164,186.368Z" transform="translate(-315.52 -168.47)" fill="#40bdd7"/>
    <path id="Caminho_72" data-name="Caminho 72" d="M146.839,365.856a4.906,4.906,0,0,1,3.066-4.122,3.009,3.009,0,0,1,4.312,3.136,4.916,4.916,0,0,1-2.851,4.209C149.056,370.229,146.792,368.769,146.839,365.856Z" transform="translate(-138.309 -340.523)" fill="#40bdd7"/>
    <path id="Caminho_73" data-name="Caminho 73" d="M542.109-.055a2.946,2.946,0,0,1,1.668.494A2.791,2.791,0,0,1,544.8,4.276a4.993,4.993,0,0,1-5.318,2.446,2.871,2.871,0,0,1-1.84-4.555A4.946,4.946,0,0,1,542.109-.055Z" transform="translate(-505.903 0)" fill="#40bdd7"/>
    <path id="Caminho_74" data-name="Caminho 74" d="M.01,374.8a4.7,4.7,0,0,1,2.707-3.6,2.533,2.533,0,0,1,3.874,2.428,4.916,4.916,0,0,1-2.7,4.236C1.873,378.946.009,377.806.01,374.8Z" transform="translate(0 -349.374)" fill="#40bdd7"/>
    <path id="Caminho_75" data-name="Caminho 75" d="M362.994,34.906a2.615,2.615,0,0,1-2.637-3.471,4.7,4.7,0,0,1,5.072-3.1,2.549,2.549,0,0,1,1.96,3.359A4.785,4.785,0,0,1,362.994,34.906Z" transform="translate(-339.317 -26.675)" fill="#40bdd7"/>
    <path id="Caminho_76" data-name="Caminho 76" d="M189.036,202.23a2.553,2.553,0,0,1,2.489,3.138A4.624,4.624,0,0,1,187.809,209a2.518,2.518,0,0,1-2.992-2.523A4.5,4.5,0,0,1,189.036,202.23Z" transform="translate(-174.084 -190.554)" fill="#40bdd7"/>
    <path id="Caminho_77" data-name="Caminho 77" d="M213.229,59.665c.071-2.29,2.8-4.485,4.971-3.994a2.314,2.314,0,0,1,1.833,2.068c.207,2.291-2.681,4.8-4.944,4.3A2.278,2.278,0,0,1,213.229,59.665Z" transform="translate(-200.846 -52.433)" fill="#40bdd7"/>
    <path id="Caminho_78" data-name="Caminho 78" d="M48.383,223.356a2.177,2.177,0,0,1-2.2-2.352,4.669,4.669,0,0,1,3.712-4.29,2.217,2.217,0,0,1,2.66,2.064A4.584,4.584,0,0,1,48.383,223.356Z" transform="translate(-43.498 -204.166)" fill="#40bdd7"/>
    <path id="Caminho_79" data-name="Caminho 79" d="M86.585,87.005a4.275,4.275,0,0,1,3.691-3.789,1.934,1.934,0,0,1,2.114,2.35,4.437,4.437,0,0,1-3.578,3.422A1.887,1.887,0,0,1,86.585,87.005Z" transform="translate(-81.552 -78.441)" fill="#40bdd7"/>
    <path id="Caminho_80" data-name="Caminho 80" d="M518.085,346.276a4.427,4.427,0,0,1-4.485-4.391,5.1,5.1,0,0,1,5.062-4.955,4.685,4.685,0,0,1,4.605,4.432A5.132,5.132,0,0,1,518.085,346.276Z" transform="translate(-483.79 -317.438)" fill="#40bdd7"/>
    <path id="Caminho_81" data-name="Caminho 81" d="M307.034,354.154a5.015,5.015,0,0,1,4.787-4.914,3.587,3.587,0,0,1,3.5,2.748,5.016,5.016,0,0,1-4.606,5.969A3.646,3.646,0,0,1,307.034,354.154Z" transform="translate(-289.209 -329.034)" fill="#40bdd7"/>
    <path id="Caminho_82" data-name="Caminho 82" d="M533.744,164.445a3.347,3.347,0,0,0-1.409-4.071,4.819,4.819,0,0,0-6.085,1.1,3.832,3.832,0,0,0-1.026,2.894,3.612,3.612,0,0,0,4.142,3.224A5.025,5.025,0,0,0,533.744,164.445Z" transform="translate(-494.723 -150.515)" fill="#40bdd7"/>
    <path id="Caminho_83" data-name="Caminho 83" d="M338.164,186.368a3.06,3.06,0,0,1-3.108-3.885,4.869,4.869,0,0,1,4.506-3.7,3.111,3.111,0,0,1,3.187,3.9A4.85,4.85,0,0,1,338.164,186.368Z" transform="translate(-315.52 -168.47)" fill="#40bdd7"/>
    <path id="Caminho_84" data-name="Caminho 84" d="M146.839,365.856a4.906,4.906,0,0,1,3.066-4.122,3.009,3.009,0,0,1,4.312,3.136,4.916,4.916,0,0,1-2.851,4.209C149.056,370.229,146.792,368.769,146.839,365.856Z" transform="translate(-138.309 -340.523)" fill="#40bdd7"/>
    <path id="Caminho_85" data-name="Caminho 85" d="M542.109-.055a2.946,2.946,0,0,1,1.668.494A2.791,2.791,0,0,1,544.8,4.276a4.993,4.993,0,0,1-5.318,2.446,2.871,2.871,0,0,1-1.84-4.555A4.946,4.946,0,0,1,542.109-.055Z" transform="translate(-505.903 0)" fill="#40bdd7"/>
    <path id="Caminho_86" data-name="Caminho 86" d="M.01,374.8a4.7,4.7,0,0,1,2.707-3.6,2.533,2.533,0,0,1,3.874,2.428,4.916,4.916,0,0,1-2.7,4.236C1.873,378.946.009,377.806.01,374.8Z" transform="translate(0 -349.374)" fill="#40bdd7"/>
    <path id="Caminho_87" data-name="Caminho 87" d="M362.994,34.906a2.615,2.615,0,0,1-2.637-3.471,4.7,4.7,0,0,1,5.072-3.1,2.549,2.549,0,0,1,1.96,3.359A4.785,4.785,0,0,1,362.994,34.906Z" transform="translate(-339.317 -26.675)" fill="#40bdd7"/>
    <path id="Caminho_88" data-name="Caminho 88" d="M189.036,202.23a2.553,2.553,0,0,1,2.489,3.138A4.624,4.624,0,0,1,187.809,209a2.518,2.518,0,0,1-2.992-2.523A4.5,4.5,0,0,1,189.036,202.23Z" transform="translate(-174.084 -190.554)" fill="#40bdd7"/>
    <path id="Caminho_89" data-name="Caminho 89" d="M213.229,59.665c.071-2.29,2.8-4.485,4.971-3.994a2.314,2.314,0,0,1,1.833,2.068c.207,2.291-2.681,4.8-4.944,4.3A2.278,2.278,0,0,1,213.229,59.665Z" transform="translate(-200.846 -52.433)" fill="#40bdd7"/>
    <path id="Caminho_90" data-name="Caminho 90" d="M48.383,223.356a2.177,2.177,0,0,1-2.2-2.352,4.669,4.669,0,0,1,3.712-4.29,2.217,2.217,0,0,1,2.66,2.064A4.584,4.584,0,0,1,48.383,223.356Z" transform="translate(-43.498 -204.166)" fill="#40bdd7"/>
    <path id="Caminho_91" data-name="Caminho 91" d="M86.585,87.005a4.275,4.275,0,0,1,3.691-3.789,1.934,1.934,0,0,1,2.114,2.35,4.437,4.437,0,0,1-3.578,3.422A1.887,1.887,0,0,1,86.585,87.005Z" transform="translate(-81.552 -78.441)" fill="#40bdd7"/>
  </g>
</svg>
