<svg xmlns="http://www.w3.org/2000/svg" width="160" height="39.116" viewBox="0 0 160 39.116">
  <g id="logo-abcomm" transform="translate(-161.452 -579.216)">
    <path id="path12829" d="M166.883,580.216a5.42,5.42,0,0,0-5.431,5.431v11.148l7.361-11.846,2.245-.034L183,604.786l-3.131.068-9.731-16.775h-.272l-8.415,14.007v1.845a5.42,5.42,0,0,0,5.431,5.431h40.549V580.216H166.883Zm16.862,4.6,15.2.029c6.854.743,8.964,6.635,3.914,9.239a5.5,5.5,0,0,1,3.569,6.216s-.547,4.231-9.152,4.375l-13.412.029-.115-19.887Zm2.647,2.389.057,5.986L199,593.051a5.631,5.631,0,0,0,2.672-.891,2.454,2.454,0,0,0,.864-3.335c-.806-1.405-3.536-1.588-3.536-1.588l-12.605-.029Zm12.053,8.3-12.019.039.024,6.633L199,602.032a9.609,9.609,0,0,0,3.08-.79,2.559,2.559,0,0,0,1.373-3.605C202.306,595.551,198.445,595.5,198.445,595.5Z" transform="translate(0 -1)" fill="#016938"/>
    <path id="path12831" d="M390.713,580.216v10.128c2.048-3.324,6.455-5.6,11.57-5.663.229,0,.459,0,.69,0,6.885.181,10.528,3.426,11.9,6.869l-2.162.661c-1.446-3.21-5.454-5.45-10.163-5.428-5.89.027-10.844,3.578-10.821,8.1s4.811,7.91,10.7,7.9c5.536-.009,10.261-3.012,10.809-7.13l2.224.2c-.585,5.02-5.17,8.966-13.4,9.1-5.28.088-9.406-2.343-11.351-5.8v10.2H495.346a5.419,5.419,0,0,0,5.43-5.431V585.647a5.419,5.419,0,0,0-5.43-5.431H390.713Zm106.264,4.537.272,19.87h-2.578l-.2-15.123-9.9,14.852H482.94L472.7,589.637l.135,14.851h-2.916l-.2-14.987-10.172,14.716-1.491.068L447.54,589.568l-.068,14.512-2.237.069.2-19.327H447.4l10.918,16.411h.882l11.053-16.276h2.171l10.918,16.682h.746l10.918-16.817,1.966-.069Zm-66.844,0h0c8.648.111,13.617,4.512,13.676,10.159v.08c0,5.647-5.054,9.891-13.841,9.9-8.245.01-13.322-4.213-13.352-9.86s4.862-10.391,13.516-10.28Zm.184,2.033c-6.879-.262-11.012,3.974-10.988,7.9.026,4.264,3.519,7.968,10.737,8.175,7.352.211,11.3-3.875,11.3-8.138v-.062c.019-4.128-3.635-7.591-11.052-7.874Z" transform="translate(-181.47 -1)" fill="#ffca08"/>
    <text id="text12833" transform="translate(163.452 616.332)" fill="#016938" font-size="8" font-family="SegoeUI, Segoe UI"><tspan x="0" y="0">Associação Brasileira de Comércio Eletrônico</tspan></text>
  </g>
</svg>
