<svg xmlns="http://www.w3.org/2000/svg" width="126.923" height="47.088" viewBox="0 0 126.923 47.088">
  <g id="logo-google_analytics" transform="translate(-33.101 17.353)">
    <g id="Grupo_49" data-name="Grupo 49" transform="translate(73.743 -17.353)">
      <path id="Caminho_92" data-name="Caminho 92" d="M75.106,7.575l2.783,7.307H72.5l2.611-7.307ZM74.061,5.128l-6.088,16h2.261L71.8,16.783h6.783l1.565,4.347h2.261l-6.088-16H74.059Zm32.866,16.016h2.1v-16h-2.1v16ZM85.541,11.739A4.452,4.452,0,0,1,89.02,9.825c2.783,0,4.175,1.914,4.175,4.7V21.3H91.1V14.869c0-2.261-1.218-3.132-2.783-3.132a3.24,3.24,0,0,0-2.957,3.305v6.088h-2.1V10.014h2.1l.175,1.74Zm9.394,6.1c0-2.447,2.261-3.827,4.872-3.827a4.752,4.752,0,0,1,2.957.7v-.35a2.6,2.6,0,0,0-2.783-2.611,2.55,2.55,0,0,0-2.611,1.565l-1.914-.869c.35-1.044,1.74-2.611,4.522-2.611,2.611,0,4.872,1.565,4.872,4.7v6.611h-1.914V19.574h-.175a4.19,4.19,0,0,1-3.653,1.914c-2.261,0-4.175-1.392-4.175-3.653m7.827-1.392a4.372,4.372,0,0,0-2.611-.7c-2.1,0-2.957,1.218-2.957,2.1,0,1.218,1.218,1.74,2.261,1.74a3.392,3.392,0,0,0,3.305-3.132" transform="translate(-67.973 21.073)" fill="#757575"/>
      <path id="Caminho_93" data-name="Caminho 93" d="M106,25.4l2.447-5.74L104.1,9.568h2.1l3.305,7.654,3.305-7.654h2.1L108.128,25.4h-2.1Zm30.617-12.179a3.3,3.3,0,0,0-2.957-2.261,3.558,3.558,0,0,0-3.305,3.827,3.558,3.558,0,0,0,3.305,3.827,3.366,3.366,0,0,0,2.957-2.1l1.74,1.044a5.11,5.11,0,0,1-4.7,3.132,5.662,5.662,0,0,1-5.393-5.915c0-3.479,2.447-5.915,5.393-5.915a5.1,5.1,0,0,1,4.7,3.132l-1.74,1.218Z" transform="translate(-61.994 21.691)" fill="#757575" fill-rule="evenodd"/>
      <path id="Caminho_94" data-name="Caminho 94" d="M141.237,20.849c2.783,0,4.175-1.565,4.175-3.479,0-4.175-6.088-2.611-6.088-5.044,0-.869.7-1.392,1.914-1.392a3.463,3.463,0,0,1,2.957,1.392l1.218-1.218a6.474,6.474,0,0,0-4.347-2.1c-2.611,0-4,1.565-4,3.479,0,4,6.262,2.611,6.262,4.7,0,1.044-.7,1.74-2.1,1.74a3.418,3.418,0,0,1-2.783-1.74l-1.545,1.23c1.044,1.044,2.611,2.447,4.347,2.447Zm-19.83-.347h2.1V9.369h-2.1Z" transform="translate(-59.131 21.715)" fill="#757575"/>
      <path id="Caminho_95" data-name="Caminho 95" d="M123.514,4.7a1.392,1.392,0,0,1,0,2.783,1.5,1.5,0,0,1-1.392-1.392A1.5,1.5,0,0,1,123.514,4.7Zm-2.957,14.786.35,1.565h-2.1c-1.914,0-2.783-1.392-2.783-3.479V12.159h-2.1v-2.1h2.1V6.777h2.1v3.305h2.447v2.1h-2.447v5.74c0,1.565,1.218,1.565,2.447,1.565Z" transform="translate(-60.369 21.002)" fill="#757575" fill-rule="evenodd"/>
      <path id="Caminho_96" data-name="Caminho 96" d="M78.382-8.832v2.611H84.47A5.227,5.227,0,0,1,83.078-3.09a6.248,6.248,0,0,1-4.7,1.914,6.647,6.647,0,0,1-6.611-6.783,6.757,6.757,0,0,1,6.611-6.783A6.726,6.726,0,0,1,82.9-13l1.74-1.74a9.046,9.046,0,0,0-6.262-2.611,9.43,9.43,0,0,0-9.394,9.207,9.429,9.429,0,0,0,9.394,9.207,8.131,8.131,0,0,0,6.436-2.611,8.216,8.216,0,0,0,2.261-5.915A4.294,4.294,0,0,0,86.9-9.029H78.38Zm15.48-2.1a5.768,5.768,0,0,0-5.915,5.915A5.768,5.768,0,0,0,93.861.9a5.862,5.862,0,0,0,4.2-1.717,5.862,5.862,0,0,0,1.717-4.2A5.762,5.762,0,0,0,93.861-10.93Zm0,9.557a3.5,3.5,0,0,1-3.305-3.653,3.493,3.493,0,0,1,3.305-3.641,3.4,3.4,0,0,1,3.306,3.648,3.4,3.4,0,0,1-3.305,3.653Zm28.519-8.34a4.514,4.514,0,0,0-3.305-1.392,5.8,5.8,0,0,0-5.566,5.915A5.8,5.8,0,0,0,119.075.725a4.1,4.1,0,0,0,3.132-1.392h.175V.2c0,2.261-1.218,3.479-3.132,3.479a3.32,3.32,0,0,1-2.957-2.1l-2.261.869a5.757,5.757,0,0,0,5.219,3.479c3.132,0,5.74-1.74,5.74-6.262V-11.114h-2.447v1.392Zm-2.957,8.349a3.372,3.372,0,0,1-3.132-3.653,3.372,3.372,0,0,1,3.132-3.653,3.372,3.372,0,0,1,3.132,3.653A3.372,3.372,0,0,1,119.424-1.364Zm-12.7-9.557a5.768,5.768,0,0,0-5.915,5.915A5.768,5.768,0,0,0,106.723.909a5.862,5.862,0,0,0,4.2-1.717,5.862,5.862,0,0,0,1.717-4.2A5.663,5.663,0,0,0,106.723-10.921Zm0,9.557a3.5,3.5,0,0,1-3.305-3.653,3.5,3.5,0,0,1,3.305-3.653,3.4,3.4,0,0,1,3.305,3.653A3.4,3.4,0,0,1,106.723-1.364Zm20.2-15.818h2.611V.909h-2.611Zm9.741,15.829a3.366,3.366,0,0,1-2.957-1.74l8-3.305-.35-.7c-.522-1.392-2.1-3.827-5.044-3.827a5.591,5.591,0,0,0-5.566,5.915,5.862,5.862,0,0,0,1.717,4.2,5.862,5.862,0,0,0,4.2,1.717A6.328,6.328,0,0,0,141.711-1.7l-2.1-1.392a3.366,3.366,0,0,1-2.957,1.74Zm-.175-7.307a2.33,2.33,0,0,1,2.261,1.392L133.36-5.007C133.36-7.618,135.1-8.66,136.492-8.66Z" transform="translate(-67.805 17.353)" fill="#757575"/>
    </g>
    <g id="Grupo_51" data-name="Grupo 51" transform="translate(33.101 -16.357)">
      <path id="Caminho_97" data-name="Caminho 97" d="M25.821,6.45V37.006c0,3.419,2.361,5.324,4.861,5.324,2.315,0,4.861-1.62,4.861-5.324V6.682a4.867,4.867,0,0,0-4.861-5.093A4.941,4.941,0,0,0,25.821,6.45Z" transform="translate(-0.357 -1.589)" fill="#f9ab00"/>
      <g id="Grupo_50" data-name="Grupo 50" transform="translate(0 15.509)">
        <path id="Caminho_98" data-name="Caminho 98" d="M14.9,19.758V34.8c0,3.419,2.361,5.324,4.861,5.324,2.315,0,4.861-1.62,4.861-5.324V19.989A4.867,4.867,0,0,0,19.758,14.9,4.941,4.941,0,0,0,14.9,19.758Z" transform="translate(-2.165 -14.897)" fill="#e37400"/>
        <circle id="Elipse_13" data-name="Elipse 13" cx="4.861" cy="4.861" r="4.861" transform="translate(0 15.509)" fill="#e37400"/>
      </g>
    </g>
  </g>
</svg>
