<svg id="Logo-ECrown" xmlns="http://www.w3.org/2000/svg" width="63.972" height="31.96" viewBox="0 0 63.972 31.96">
  <g id="Grupo_4" data-name="Grupo 4" transform="translate(20.56 19.947)">
    <path id="Caminho_8" data-name="Caminho 8" d="M165.192,131.37l-6.777,6.255a2.963,2.963,0,0,1-1.516.527,1.4,1.4,0,0,1-.423,0,2.987,2.987,0,0,1-1.516-.527l-6.908-6.132-2.682,3.4,9.617,7.9a2.972,2.972,0,0,0,1.49.513c.072-.005.142-.013.211-.024.07.011.142.019.211.024a2.963,2.963,0,0,0,1.49-.513l9.6-8.087Z" transform="translate(-145.37 -131.37)" fill="#16213e"/>
    <path id="Caminho_9" data-name="Caminho 9" d="M235.62,143.817l.091-.067h0Z" transform="translate(-211.484 -140.439)" fill="#16213e"/>
  </g>
  <path id="Caminho_10" data-name="Caminho 10" d="M104.953,70.363,80.02,91.428l9.914,6.424,15.27-19.67a5.225,5.225,0,0,1,7.288,0l15.27,19.67,9.914-6.424L112.74,70.363A7.192,7.192,0,0,0,104.953,70.363Z" transform="translate(-76.937 -65.893)" fill="#16213e"/>
  <g id="Grupo_5" data-name="Grupo 5">
    <path id="Caminho_11" data-name="Caminho 11" d="M75.415,77.547l.094-.1.885-.925-3.3-8.839c-.217-.583.444-1.08.864-.647l6.335,5.482,3.375-3.477L71.192,57.262A1.61,1.61,0,0,0,68.5,58.757L71.1,82.05l4.314-4.5Z" transform="translate(-68.492 -56.785)" fill="#16213e"/>
  </g>
  <g id="Grupo_6" data-name="Grupo 6" transform="translate(48.795 0.003)">
    <path id="Caminho_12" data-name="Caminho 12" d="M259.2,77.554l-.094-.1-.885-.925,3.3-8.839c.217-.583-.444-1.08-.864-.647l-6.335,5.482-3.375-3.477,12.476-11.78a1.61,1.61,0,0,1,2.688,1.495l-2.6,23.293L259.2,77.554Z" transform="translate(-250.95 -56.795)" fill="#16213e"/>
  </g>
  <path id="Caminho_13" data-name="Caminho 13" d="M198.8,140.161l6.475-5.458-2.789-3.332L196.28,137.1Z" transform="translate(-162.105 -111.423)" fill="#16213e" opacity="0.2"/>
  <path id="Caminho_14" data-name="Caminho 14" d="M154.609,137.668l-6.576-5.838-2.682,3.394,6.967,5.726Z" transform="translate(-124.796 -111.76)" fill="#16213e" opacity="0.2"/>
</svg>
