<svg xmlns="http://www.w3.org/2000/svg" width="128.211" height="48.143" viewBox="0 0 128.211 48.143">
  <g id="logo-amazon-web-services" transform="translate(-1.578 -2.062)">
    <path id="Caminho_120" data-name="Caminho 120" d="M39.89,18.156c-2.509,0-5.311.967-5.9,4.149a.448.448,0,0,0,.377.549l2.572.308c.238-.012.4-.271.445-.515a2.013,2.013,0,0,1,2.127-1.612,1.717,1.717,0,0,1,1.475.686,3.543,3.543,0,0,1,.342,1.954v.377a17.907,17.907,0,0,0-4.972.926A4.6,4.6,0,0,0,33.548,29.4c0,2.813,1.724,4.218,3.944,4.218a5.164,5.164,0,0,0,4.355-1.954,6.47,6.47,0,0,0,1.509,1.783.528.528,0,0,0,.617-.068v.034C44.5,32.934,45.457,32.061,46,31.6a.521.521,0,0,0,0-.72,3.728,3.728,0,0,1-.994-2.5V24.157c0-1.786.151-3.433-1.131-4.663a5.9,5.9,0,0,0-3.98-1.338Zm34.564,0c-2.511,0-5.31.967-5.9,4.149a.447.447,0,0,0,.377.549l2.572.308c.238-.012.4-.271.445-.515a2.014,2.014,0,0,1,2.127-1.612,1.715,1.715,0,0,1,1.475.686,3.536,3.536,0,0,1,.308,1.954v.377a17.679,17.679,0,0,0-4.938.926A4.6,4.6,0,0,0,68.112,29.4c0,2.813,1.725,4.218,3.944,4.218a5.169,5.169,0,0,0,4.355-1.954,6.451,6.451,0,0,0,1.509,1.783.528.528,0,0,0,.617-.068v.034c.527-.481,1.485-1.354,2.023-1.817a.526.526,0,0,0,0-.72,3.728,3.728,0,0,1-.994-2.5V24.157c0-1.786.115-3.433-1.165-4.663a5.818,5.818,0,0,0-3.946-1.338Zm-19.443.137a3.48,3.48,0,0,0-3.463,2.572h-.034V19.048a.518.518,0,0,0-.481-.481H48.565a.522.522,0,0,0-.515.515V32.969a.533.533,0,0,0,.481.481h2.64a.52.52,0,0,0,.515-.515V25.563c0-1.608-.078-3.806,1.817-3.806,1.871,0,1.612,2.259,1.612,3.806v7.373a.525.525,0,0,0,.481.515h2.64a.52.52,0,0,0,.515-.515V25.563a8.45,8.45,0,0,1,.24-2.64,1.779,1.779,0,0,1,1.578-1.165,1.375,1.375,0,0,1,1.543,1.2,18.351,18.351,0,0,1,.068,2.606v7.373a.525.525,0,0,0,.481.515H65.3a.52.52,0,0,0,.515-.515V24.158c0-1.491.15-3.184-.686-4.355a3.848,3.848,0,0,0-6.686,1.063c-.74-1.753-1.782-2.573-3.431-2.573Zm44.886,0c-3.815,0-5.932,3.354-5.932,7.681,0,4.3,2.094,7.749,5.932,7.749,3.692,0,6.035-3.373,6.035-7.613,0-4.381-2.122-7.817-6.035-7.817Zm15.052,0c-1.823,0-2.864.912-3.6,2.811h-.034V18.978a.509.509,0,0,0-.481-.377H108.4a.507.507,0,0,0-.515.445V32.933a.527.527,0,0,0,.481.515h2.606a.522.522,0,0,0,.515-.515V25.458a6.422,6.422,0,0,1,.445-2.64,1.691,1.691,0,0,1,1.509-1.1c1.819,0,1.646,2.218,1.646,3.737V33a.52.52,0,0,0,.481.445h2.64a.522.522,0,0,0,.515-.445V24.258c0-1.344,0-3.212-.686-4.321a3.458,3.458,0,0,0-3.087-1.644Zm-31.684.24a.487.487,0,0,0-.481.515v1.988a.487.487,0,0,0,.481.515h4.526L82.615,29.2a2.524,2.524,0,0,0-.342,1.372v2.023c0,.292.317.609.617.445A9.746,9.746,0,0,1,92.045,33c.324.177.652-.155.652-.445V30.432a.9.9,0,0,0-.481-.755,9.413,9.413,0,0,0-4.938-1.1L91.771,22a2.787,2.787,0,0,0,.652-1.234V19.048a.484.484,0,0,0-.481-.515ZM99.9,21.139a1.679,1.679,0,0,1,1.749,1.338,13.154,13.154,0,0,1,.377,3.669c0,1.782-.083,4.731-2.127,4.731-2.066,0-2.057-3.652-2.057-5.349S97.954,21.139,99.9,21.139ZM41.3,26.214V26.8a5.452,5.452,0,0,1-.481,2.88A2.13,2.13,0,0,1,39,30.912c-1.009,0-1.612-.819-1.612-1.988C37.387,26.617,39.391,26.214,41.3,26.214Zm34.564,0V26.8a5.451,5.451,0,0,1-.481,2.88,2.127,2.127,0,0,1-1.817,1.234c-1.011,0-1.612-.819-1.612-1.988C71.952,26.617,73.953,26.214,75.86,26.214Z" transform="translate(3.11 1.566)" fill="#201c1d"/>
    <path id="Caminho_121" data-name="Caminho 121" d="M92.935,32.5v1.988h1.338V32.5Zm-38.782.342V47h1.234V45.735a3.053,3.053,0,0,0,.926,1.131,2.116,2.116,0,0,0,1.234.377,2.881,2.881,0,0,0,2.366-1.406,6.9,6.9,0,0,0,1.029-4.047,8.165,8.165,0,0,0-.445-2.88,3.966,3.966,0,0,0-1.2-1.783,2.705,2.705,0,0,0-1.68-.617,2.195,2.195,0,0,0-1.2.342,3.162,3.162,0,0,0-.926,1.063V32.842H54.152ZM66.84,36.169a2.776,2.776,0,0,0-2.983,2.949,2.98,2.98,0,0,0,.308,1.338,2.43,2.43,0,0,0,.823.96,9.33,9.33,0,0,0,2.091.891,4.7,4.7,0,0,1,1.338.583,1.121,1.121,0,0,1,.411.926,1.549,1.549,0,0,1-.481,1.165,1.834,1.834,0,0,1-1.338.445,1.9,1.9,0,0,1-1.406-.515,2.622,2.622,0,0,1-.617-1.612l-1.338.274c.3,2.2,1.4,3.293,3.292,3.292a3.1,3.1,0,0,0,2.366-.891,3.346,3.346,0,0,0,.891-2.4,3.2,3.2,0,0,0-.274-1.372,2.164,2.164,0,0,0-.755-.891,10.813,10.813,0,0,0-2.161-.891,6.616,6.616,0,0,1-1.44-.617,1.077,1.077,0,0,1-.411-.891,1.21,1.21,0,0,1,.411-.96,1.953,1.953,0,0,1,1.3-.377q1.534,0,1.714,1.68l1.3-.206A4.207,4.207,0,0,0,69.41,37.4a2.565,2.565,0,0,0-1.029-.926,3.347,3.347,0,0,0-1.541-.308Zm8.2,0a3.2,3.2,0,0,0-2.675,1.372,6.657,6.657,0,0,0-1.029,4.047,6.44,6.44,0,0,0,1.029,3.944,3.234,3.234,0,0,0,2.709,1.338,3.14,3.14,0,0,0,2.229-.823,4.526,4.526,0,0,0,1.268-2.469l-1.372-.24c-.394,1.4-1.12,2.089-2.127,2.091a1.941,1.941,0,0,1-1.612-.857,4.619,4.619,0,0,1-.755-2.606h5.9v-.481a6.459,6.459,0,0,0-1.029-3.944,3.046,3.046,0,0,0-2.535-1.372Zm8.126,0a1.224,1.224,0,0,0-.857.342,4.427,4.427,0,0,0-.857,1.44V36.373h-1.2V46.626h1.338V41.278a8.588,8.588,0,0,1,.24-2.127,1.758,1.758,0,0,1,.515-.891,1.153,1.153,0,0,1,.789-.308,1.593,1.593,0,0,1,.96.377l.445-1.612a2.2,2.2,0,0,0-1.373-.549Zm16.39,0a3.133,3.133,0,0,0-2.606,1.338,6.614,6.614,0,0,0-1.029,4.012,6.694,6.694,0,0,0,1.029,4.012,3.01,3.01,0,0,0,2.537,1.338,2.914,2.914,0,0,0,2.195-.96,4.86,4.86,0,0,0,1.131-2.811l-1.3-.206a3.463,3.463,0,0,1-.686,1.92,1.665,1.665,0,0,1-1.3.617A1.872,1.872,0,0,1,97.9,44.5a5.61,5.61,0,0,1-.617-3.018,5.228,5.228,0,0,1,.652-2.949,1.975,1.975,0,0,1,1.646-.96,1.478,1.478,0,0,1,1.131.515,3.169,3.169,0,0,1,.652,1.578l1.3-.274a4.1,4.1,0,0,0-1.063-2.435,2.817,2.817,0,0,0-2.056-.788Zm7.647,0a3.2,3.2,0,0,0-2.675,1.372,6.657,6.657,0,0,0-1.029,4.047,6.441,6.441,0,0,0,1.029,3.944,3.235,3.235,0,0,0,2.709,1.338,3.146,3.146,0,0,0,2.229-.823,4.54,4.54,0,0,0,1.268-2.469l-1.372-.24c-.394,1.4-1.088,2.089-2.091,2.091a2,2,0,0,1-1.646-.857,4.628,4.628,0,0,1-.755-2.606h5.9v-.481a6.459,6.459,0,0,0-1.029-3.944,3.044,3.044,0,0,0-2.536-1.372Zm7.921,0a2.776,2.776,0,0,0-2.983,2.949,2.969,2.969,0,0,0,.274,1.338,2.412,2.412,0,0,0,.823.96,9.306,9.306,0,0,0,2.091.891,5.12,5.12,0,0,1,1.372.583,1.121,1.121,0,0,1,.411.926,1.549,1.549,0,0,1-.481,1.165,1.832,1.832,0,0,1-1.338.445,1.893,1.893,0,0,1-1.406-.515,2.626,2.626,0,0,1-.652-1.612l-1.338.274c.3,2.2,1.4,3.293,3.292,3.292a3.183,3.183,0,0,0,2.4-.891,3.342,3.342,0,0,0,.891-2.4A3.2,3.2,0,0,0,118.2,42.2a2.232,2.232,0,0,0-.789-.891,10.2,10.2,0,0,0-2.127-.891,7.314,7.314,0,0,1-1.475-.617,1.077,1.077,0,0,1-.411-.891,1.239,1.239,0,0,1,.445-.96,1.957,1.957,0,0,1,1.3-.377q1.534,0,1.714,1.68l1.3-.206a4.207,4.207,0,0,0-.481-1.646,2.565,2.565,0,0,0-1.029-.926,3.337,3.337,0,0,0-1.539-.308Zm-30.587.205,2.983,10.253h1.268l2.983-10.253H90.4L88.649,42.65c-.212.758-.4,1.413-.515,1.954-.146-.681-.285-1.4-.481-2.091l-1.714-6.138H84.534Zm8.4,0V46.627h1.338V36.374H92.935Zm-43.959.137a3.125,3.125,0,0,0-2.606,1.406,6.7,6.7,0,0,0-1.063,4.047,6.361,6.361,0,0,0,1.029,3.908,3.273,3.273,0,0,0,2.709,1.372,3.092,3.092,0,0,0,2.195-.857,4.544,4.544,0,0,0,1.234-2.469l-1.338-.206c-.39,1.4-1.1,2.089-2.091,2.091a1.942,1.942,0,0,1-1.612-.857,4.654,4.654,0,0,1-.755-2.606h5.829l.034-.481a6.617,6.617,0,0,0-1.029-3.978,3.055,3.055,0,0,0-2.536-1.37Zm-15.054.24L36.323,47h1.406l1.578-7.887.274,1.749L40.849,47h1.372l2.435-10.253H43.387L42.05,42.684,41.6,44.672l-.411-1.988-1.165-5.932H38.656l-1.234,6-.411,2.127-.481-2.195-1.234-5.932H33.922Zm85.347.1v.481h1.3v3.429h.515V37.336h1.3v-.481h-3.122Zm3.635,0v3.908h.481V37.438l1.131,3.326H125l1.131-3.258v3.258h.515V36.855h-.72L125,39.6c-.093.274-.16.473-.206.617l-.206-.583-.926-2.777H122.9Zm-47.9.72a1.931,1.931,0,0,1,1.646.96,4.079,4.079,0,0,1,.549,1.988H72.772a3.574,3.574,0,0,1,.72-2.127A1.887,1.887,0,0,1,75,37.575Zm32.164,0a1.934,1.934,0,0,1,1.646.96,4.079,4.079,0,0,1,.549,1.988h-4.423a3.574,3.574,0,0,1,.72-2.127A1.889,1.889,0,0,1,107.165,37.575Zm-58.19.377a1.88,1.88,0,0,1,1.612.96,4.115,4.115,0,0,1,.549,1.988H46.781a3.688,3.688,0,0,1,.686-2.161A1.85,1.85,0,0,1,48.976,37.952Zm8.5,0a1.8,1.8,0,0,1,1.509.96,5.56,5.56,0,0,1,.583,2.949,5.528,5.528,0,0,1-.617,2.949,1.807,1.807,0,0,1-1.475.994,1.665,1.665,0,0,1-1.1-.411,2.6,2.6,0,0,1-.755-1.2,7.941,7.941,0,0,1-.274-2.4A5.2,5.2,0,0,1,56,38.946a1.814,1.814,0,0,1,1.475-.994Z" transform="translate(3.146 2.961)"/>
    <path id="Caminho_122" data-name="Caminho 122" d="M17.848,30.043l-5.109,2.195,4.731,2.023,5.486-2.023Zm-7.681,2.743L10,42.661l7.475,3.292V35.7l-7.3-2.914Zm15.362,0-6.755,2.572v9.669l6.755-2.743v-9.5ZM33.588,2.062,28.444,4.257,33.21,6.28,38.7,4.257,33.588,2.062ZM26.455,4.977v9.875l6.377,1.852.206-8.984Zm14.265.549L34.685,8.1v9.7l6.035-2.743ZM9.43,15.961,4.321,18.156l4.731,2.023,5.486-2.023L9.43,15.961ZM1.749,18.7,1.578,28.58l7.475,3.292V21.619Zm15.362,0-6.755,2.572v9.669L17.111,28.2ZM25.889,15.6,20.78,17.791l4.731,2.023L31,17.791,25.889,15.6ZM18.208,18.34l-.171,9.875,7.475,3.292V21.256Zm15.362,0-6.755,2.572v9.669l6.755-2.743ZM49.664,2.062,44.555,4.257,49.286,6.28l5.486-2.023L49.664,2.062ZM41.983,4.805l-.171,9.875,7.475,3.292V7.721l-7.3-2.915Zm15.362,0L50.59,7.377v9.669L57.345,14.3v-9.5Z" fill="#f7a80d"/>
  </g>
</svg>
