<svg id="logo-frenet" xmlns="http://www.w3.org/2000/svg" xmlns:xlink="http://www.w3.org/1999/xlink" width="60.455" height="42.818" viewBox="0 0 60.455 42.818">
  <defs>
    <clipPath id="clip-path">
      <rect id="Retângulo_68" data-name="Retângulo 68" width="60.455" height="42.818"/>
    </clipPath>
  </defs>
  <path id="Caminho_102" data-name="Caminho 102" d="M2.641,101.61,0,116.465H3.317l1.026-5.8H9.954l.512-2.9H4.855l.569-3.254h7.029l.508-2.9Z" transform="translate(0 -73.688)" fill="#2a3580"/>
  <g id="Grupo_58" data-name="Grupo 58">
    <g id="Grupo_52" data-name="Grupo 52" clip-path="url(#clip-path)">
      <path id="Caminho_103" data-name="Caminho 103" d="M46.493,115.731q.751,0,1.221.011c.313.006.644.024.992.052l-.474,2.7c-.209-.014-.906-.055-1.087-.062s-.355-.011-.522-.011a4.169,4.169,0,0,0-.969.094,1.338,1.338,0,0,0-.63.334,1.726,1.726,0,0,0-.4.636,6.013,6.013,0,0,0-.264,1.022l-1.1,6.2H39.946l1.14-6.405a8.185,8.185,0,0,1,.7-2.284,3.989,3.989,0,0,1,1.134-1.4,3.923,3.923,0,0,1,1.563-.7,9.726,9.726,0,0,1,2.01-.188" transform="translate(-28.969 -83.929)" fill="#2a3580"/>
    </g>
    <g id="Grupo_53" data-name="Grupo 53" clip-path="url(#clip-path)">
      <path id="Caminho_104" data-name="Caminho 104" d="M74.928,121.818l.005.334a1.427,1.427,0,0,0,.489,1.127,2.557,2.557,0,0,0,1.54.354q1.147,0,2-.021t1.793-.084l-.422,2.367c-.431.041-1.423.1-2.028.115s-1.248.021-1.929.021a6.882,6.882,0,0,1-2.165-.292,3.49,3.49,0,0,1-1.391-.813,3.055,3.055,0,0,1-.752-1.242,5.371,5.371,0,0,1-.246-1.554,9.165,9.165,0,0,1,.156-1.815,9.025,9.025,0,0,1,.868-2.816,5.3,5.3,0,0,1,1.379-1.7,4.434,4.434,0,0,1,1.748-.834,8.93,8.93,0,0,1,2-.219,5.236,5.236,0,0,1,3.175.793,2.747,2.747,0,0,1,1.073,2.274c-.011.181-.026.365-.043.553a5.649,5.649,0,0,1-.084.574,3.084,3.084,0,0,1-1.515,2.232,7.407,7.407,0,0,1-3.462.647h-2.19Zm2.838-4.715a2.17,2.17,0,0,0-1.6.532,3.931,3.931,0,0,0-.844,1.888h1.815a7.344,7.344,0,0,0,.865-.042,1.727,1.727,0,0,0,.571-.157.9.9,0,0,0,.35-.292,1.56,1.56,0,0,0,.2-.448,1.694,1.694,0,0,0,.074-.542.849.849,0,0,0-.325-.689,1.843,1.843,0,0,0-1.11-.25" transform="translate(-52.087 -83.214)" fill="#2a3580"/>
    </g>
    <g id="Grupo_54" data-name="Grupo 54" clip-path="url(#clip-path)">
      <path id="Caminho_105" data-name="Caminho 105" d="M156.062,121.818l.006.334a1.426,1.426,0,0,0,.489,1.127,2.557,2.557,0,0,0,1.54.354q1.148,0,2-.021t1.793-.084l-.422,2.367c-.431.041-1.423.1-2.028.115s-1.248.021-1.929.021a6.881,6.881,0,0,1-2.165-.292,3.49,3.49,0,0,1-1.391-.813,3.055,3.055,0,0,1-.752-1.242,5.354,5.354,0,0,1-.246-1.554,9.224,9.224,0,0,1,.156-1.815,9.039,9.039,0,0,1,.869-2.816,5.3,5.3,0,0,1,1.379-1.7,4.432,4.432,0,0,1,1.748-.834,8.924,8.924,0,0,1,2-.219,5.235,5.235,0,0,1,3.174.793,2.745,2.745,0,0,1,1.072,2.274c-.011.181-.025.365-.043.553a5.649,5.649,0,0,1-.084.574,3.082,3.082,0,0,1-1.515,2.232,7.406,7.406,0,0,1-3.462.647h-2.19ZM158.9,117.1a2.172,2.172,0,0,0-1.6.532,3.927,3.927,0,0,0-.843,1.888h1.815a7.347,7.347,0,0,0,.865-.042,1.731,1.731,0,0,0,.571-.157.894.894,0,0,0,.35-.292,1.524,1.524,0,0,0,.2-.448,1.686,1.686,0,0,0,.074-.542.85.85,0,0,0-.325-.689,1.838,1.838,0,0,0-1.109-.25" transform="translate(-110.926 -83.214)" fill="#2a3580"/>
    </g>
    <g id="Grupo_55" data-name="Grupo 55" clip-path="url(#clip-path)">
      <path id="Caminho_106" data-name="Caminho 106" d="M111.794,125.99h-3.317l1.217-6.8a7.641,7.641,0,0,1,.621-2.076,3.924,3.924,0,0,1,1.082-1.377,4.112,4.112,0,0,1,1.625-.761,9.7,9.7,0,0,1,2.249-.229,5.734,5.734,0,0,1,3.406.855,3.111,3.111,0,0,1,1.2,2.629,4.536,4.536,0,0,1-.031.605q-.037.313-.093.667l-1.138,6.488H115.3l1.178-6.635c.025-.139.044-.268.056-.386a2.687,2.687,0,0,0,.015-.324,1.121,1.121,0,0,0-.381-.928,1.761,1.761,0,0,0-1.079-.281,3.561,3.561,0,0,0-.9.094,1.355,1.355,0,0,0-.589.313,1.619,1.619,0,0,0-.387.584,4.425,4.425,0,0,0-.245.928Z" transform="translate(-78.668 -83.214)" fill="#2a3580"/>
    </g>
    <g id="Grupo_56" data-name="Grupo 56" clip-path="url(#clip-path)">
      <path id="Caminho_107" data-name="Caminho 107" d="M196.421,110.638l-.7,4.005a3.11,3.11,0,0,0-.071.71.969.969,0,0,0,.295.751,1.524,1.524,0,0,0,1,.25h1.137q.344,0,.626-.01c.188-.007.316-.01.386-.01l-.456,2.608h-.865c-.188,0-.4,0-.626.01s-.462.01-.7.01h-.563a3.849,3.849,0,0,1-2.716-.813,3.06,3.06,0,0,1-.885-2.274,5.074,5.074,0,0,1,.031-.626q.035-.333.092-.689l1.614-9.137,3.394-.4-.532,3h3.019l-.46,2.608Z" transform="translate(-139.44 -76.165)" fill="#2a3580"/>
    </g>
    <g id="Grupo_57" data-name="Grupo 57" clip-path="url(#clip-path)">
      <path id="Caminho_108" data-name="Caminho 108" d="M23.09,25.531h3.394l2.4-2.4.781-.781.781.781,2.4,2.4H46.428l-2.4-2.4-7.572-7.572,2.386-2.385L48.8,23.131l2.4,2.4H66.425l-2.4-2.4L46.455,5.561l-1.7-1.7-.126-.125A13.654,13.654,0,0,0,39.786.244,3.956,3.956,0,0,0,37.59.09c-1.744.4-3.068,2.061-4.722,3.715-.371.371-.957.952-1.7,1.69-.525.519-1.13,1.116-1.8,1.772l-.6.6-1.7,1.7L13.505,23.131l-2.4,2.4H23.09Zm-6.19-2.4,9.045-9.045c2.893-2.844,5.354-5.27,8.219-8.136,3.689-3.689,4.385-4.855,8.748-.492L60.584,23.131H52.194L40.539,11.476l-1.7-1.7-1.7,1.7-2.385,2.386-1.7,1.7,1.7,1.7,5.874,5.874H33.841l-2.479-2.478-1.7-1.7-1.7,1.7L25.49,23.13H16.9Z" transform="translate(-8.053 0)" fill="#2aabe2" fill-rule="evenodd"/>
    </g>
  </g>
</svg>
