<svg id="logo__instagram" xmlns="http://www.w3.org/2000/svg" width="24.931" height="24.931" viewBox="0 0 24.931 24.931">
  <path id="Caminho_141" data-name="Caminho 141" d="M12.466,0C9.08,0,8.656.014,7.326.075A9.149,9.149,0,0,0,4.3.654,6.11,6.11,0,0,0,2.092,2.092,6.11,6.11,0,0,0,.654,4.3,9.148,9.148,0,0,0,.075,7.326C.014,8.656,0,9.08,0,12.466s.014,3.81.075,5.139a9.148,9.148,0,0,0,.579,3.026,6.111,6.111,0,0,0,1.438,2.208A6.11,6.11,0,0,0,4.3,24.277a9.15,9.15,0,0,0,3.026.579c1.33.061,1.754.075,5.14.075s3.81-.014,5.14-.075a9.15,9.15,0,0,0,3.026-.579,6.374,6.374,0,0,0,3.646-3.646,9.149,9.149,0,0,0,.579-3.026c.061-1.33.075-1.754.075-5.139s-.014-3.81-.075-5.14A9.149,9.149,0,0,0,24.277,4.3a6.11,6.11,0,0,0-1.438-2.208A6.111,6.111,0,0,0,20.631.654,9.148,9.148,0,0,0,17.605.075C16.276.014,15.851,0,12.466,0Zm0,2.246c3.328,0,3.723.013,5.037.073a6.9,6.9,0,0,1,2.315.429,3.862,3.862,0,0,1,1.433.932,3.862,3.862,0,0,1,.932,1.433,6.9,6.9,0,0,1,.429,2.315c.06,1.314.073,1.709.073,5.037s-.013,3.723-.073,5.037a6.9,6.9,0,0,1-.429,2.315,4.128,4.128,0,0,1-2.366,2.366,6.9,6.9,0,0,1-2.315.429c-1.314.06-1.708.073-5.037.073s-3.723-.013-5.037-.073a6.9,6.9,0,0,1-2.315-.429,3.862,3.862,0,0,1-1.433-.932,3.862,3.862,0,0,1-.932-1.433A6.9,6.9,0,0,1,2.319,17.5c-.06-1.314-.073-1.709-.073-5.037s.013-3.723.073-5.037a6.9,6.9,0,0,1,.429-2.315A3.862,3.862,0,0,1,3.68,3.68a3.863,3.863,0,0,1,1.433-.932,6.9,6.9,0,0,1,2.315-.429c1.314-.06,1.709-.073,5.037-.073Z" transform="translate(0 0)" fill="#fff"/>
  <path id="Caminho_142" data-name="Caminho 142" d="M130.941,135.1a4.155,4.155,0,1,1,4.155-4.155A4.155,4.155,0,0,1,130.941,135.1Zm0-10.556a6.4,6.4,0,1,0,6.4,6.4A6.4,6.4,0,0,0,130.941,124.54Z" transform="translate(-118.476 -118.476)" fill="#fff"/>
  <path id="Caminho_143" data-name="Caminho 143" d="M364.924,90.123a1.5,1.5,0,1,1-1.5-1.5A1.5,1.5,0,0,1,364.924,90.123Z" transform="translate(-344.308 -84.311)" fill="#fff"/>
</svg>
