<svg xmlns="http://www.w3.org/2000/svg" width="203.851" height="31.96" viewBox="0 0 203.851 31.96">
  <g id="logotipo__ecrown-pb" transform="translate(-68.492 -56.785)">
    <g id="Grupo_3" data-name="Grupo 3" transform="translate(141.985 63.212)">
      <g id="Grupo_2" data-name="Grupo 2" transform="translate(20.929)">
        <g id="Grupo_1" data-name="Grupo 1" transform="translate(10.169)">
          <path id="Caminho_1" data-name="Caminho 1" d="M470.483,80.82a10.316,10.316,0,0,1,5.466,1.4l-.324,3.7a8.248,8.248,0,0,0-4.889-1.511c-3.209,0-6.606,1.7-6.977,5.964-.361,4.116,2.613,5.964,5.859,5.964a11.616,11.616,0,0,0,5.408-1.4l-.326,3.739a14.348,14.348,0,0,1-6.111,1.246c-4.833,0-9.521-2.944-8.956-9.4C460.219,83.764,465.65,80.82,470.483,80.82Z" transform="translate(-459.587 -80.82)" fill="#fff"/>
          <path id="Caminho_2" data-name="Caminho 2" d="M537.692,81.13l-.348,3.963a7.119,7.119,0,0,0-7.483,3.549l-.96,10.986H524.86l1.586-18.121h3.586l-.262,2.982A8.833,8.833,0,0,1,537.692,81.13Z" transform="translate(-507.404 -81.018)" fill="#fff"/>
          <path id="Caminho_3" data-name="Caminho 3" d="M581.827,80.82c5.1,0,9.529,3.284,8.98,9.553s-5.555,9.55-10.652,9.55c-5.06,0-9.529-3.284-8.98-9.55S576.77,80.82,581.827,80.82Zm-.324,3.7a6.079,6.079,0,0,0-6.25,5.851c-.31,3.549,1.829,5.851,5.226,5.851a6.07,6.07,0,0,0,6.212-5.851C587,86.821,584.862,84.519,581.5,84.519Z" transform="translate(-541.299 -80.82)" fill="#fff"/>
          <path id="Caminho_4" data-name="Caminho 4" d="M675.985,82.65,668.4,100.771h-4.34l-3.169-12.987-5.44,12.987h-4.3L646.69,82.65h4.266l2.878,13.7,5.616-13.7h3.776l3.255,13.7,5.239-13.7Z" transform="translate(-596.653 -82.161)" fill="#fff"/>
          <path id="Caminho_5" data-name="Caminho 5" d="M773.521,80.82c4.568,0,7.2,3.1,6.828,7.4l-.981,11.213h-4.041l.936-10.684c.257-2.944-1.433-4.34-3.848-4.34a7.087,7.087,0,0,0-5.322,3.019l-1.051,12.005H762l1.586-18.121h3.586l-.219,2.492A9.108,9.108,0,0,1,773.521,80.82Z" transform="translate(-681.125 -80.82)" fill="#fff"/>
        </g>
        <path id="Caminho_6" data-name="Caminho 6" d="M428.2,113.8h-6.044a.588.588,0,0,1-.594-.65l.144-1.642a.724.724,0,0,1,.706-.65h6.044a.588.588,0,0,1,.594.65l-.144,1.642A.724.724,0,0,1,428.2,113.8Z" transform="translate(-421.562 -102.826)" fill="#fff"/>
      </g>
      <path id="Caminho_7" data-name="Caminho 7" d="M353.36,80.82a10.092,10.092,0,0,0-10.01,9.553c-.559,6.381,3.883,9.55,9.432,9.55a16.3,16.3,0,0,0,6.6-1.246l.3-3.474a14.039,14.039,0,0,1-5.851,1.284c-3.322,0-6.376-1.359-6.544-4.605a15.6,15.6,0,0,1,.278-3.3,5.506,5.506,0,0,1,5.68-4.4c3.963,0,4.675,3.1,4.308,4.68h-8a15.948,15.948,0,0,0-.262,3.019h11.625C362.551,86.634,360.57,80.82,353.36,80.82Z" transform="translate(-343.302 -80.82)" fill="#fff"/>
    </g>
    <g id="Grupo_7" data-name="Grupo 7" transform="translate(68.492 56.785)">
      <g id="Grupo_4" data-name="Grupo 4" transform="translate(20.56 19.947)">
        <path id="Caminho_8" data-name="Caminho 8" d="M165.192,131.37l-6.777,6.255a2.963,2.963,0,0,1-1.516.527,1.4,1.4,0,0,1-.423,0,2.987,2.987,0,0,1-1.516-.527l-6.908-6.132-2.682,3.4,9.617,7.9a2.972,2.972,0,0,0,1.49.513c.072-.005.142-.013.211-.024.07.011.142.019.211.024a2.963,2.963,0,0,0,1.49-.513l9.6-8.087Z" transform="translate(-145.37 -131.37)" fill="#fff"/>
        <path id="Caminho_9" data-name="Caminho 9" d="M235.62,143.817l.091-.067h0Z" transform="translate(-211.484 -140.439)" fill="#fff"/>
      </g>
      <path id="Caminho_10" data-name="Caminho 10" d="M104.953,70.363,80.02,91.428l9.914,6.424,15.27-19.67a5.225,5.225,0,0,1,7.288,0l15.27,19.67,9.914-6.424L112.74,70.363A7.192,7.192,0,0,0,104.953,70.363Z" transform="translate(-76.937 -65.893)" fill="#fff"/>
      <g id="Grupo_5" data-name="Grupo 5">
        <path id="Caminho_11" data-name="Caminho 11" d="M75.415,77.547l.094-.1.885-.925-3.3-8.839c-.217-.583.444-1.08.864-.647l6.335,5.482,3.375-3.477L71.192,57.262A1.61,1.61,0,0,0,68.5,58.757L71.1,82.05l4.314-4.5Z" transform="translate(-68.492 -56.785)" fill="#fff"/>
      </g>
      <g id="Grupo_6" data-name="Grupo 6" transform="translate(48.795 0.003)">
        <path id="Caminho_12" data-name="Caminho 12" d="M259.2,77.554l-.094-.1-.885-.925,3.3-8.839c.217-.583-.444-1.08-.864-.647l-6.335,5.482-3.375-3.477,12.476-11.78a1.61,1.61,0,0,1,2.688,1.495l-2.6,23.293L259.2,77.554Z" transform="translate(-250.95 -56.795)" fill="#fff"/>
      </g>
      <path id="Caminho_13" data-name="Caminho 13" d="M198.8,140.161l6.475-5.458-2.789-3.332L196.28,137.1Z" transform="translate(-162.105 -111.423)" fill="#fff" opacity="0.2"/>
      <path id="Caminho_14" data-name="Caminho 14" d="M154.609,137.668l-6.576-5.838-2.682,3.394,6.967,5.726Z" transform="translate(-124.796 -111.76)" fill="#fff" opacity="0.2"/>
    </g>
  </g>
</svg>
