<svg xmlns="http://www.w3.org/2000/svg" width="82.866" height="58.052" viewBox="0 0 82.866 58.052">
  <g id="logo-abrinq" transform="translate(-8.504 -34.816)">
    <path id="Caminho_134" data-name="Caminho 134" d="M47.6,92.168c.123-.256.7-1.789.788-1.913.006-.015-.084-.251.281-.221a.756.756,0,0,1,.639.619c.132.455.2,1.262.363,1.662a.166.166,0,0,1-.044.2c-.05.031-.134.048-.274-.072a.743.743,0,0,1-.183-.4,1.975,1.975,0,0,0-.959-.019,3.719,3.719,0,0,1-.248.521c-.042.041-.1.052-.2-.017-.134-.092-.236-.187-.165-.357Zm1.465-.573c-.036-.127-.085-.457-.092-.5a5.4,5.4,0,0,0-.136-.587c-.008-.029-.012-.011-.016,0s-.335.762-.419,1.019A2.4,2.4,0,0,1,49.061,91.595Zm5.686.573c.124-.256.7-1.789.788-1.913.006-.015-.084-.251.281-.221a.756.756,0,0,1,.64.619c.132.455.2,1.262.363,1.662a.165.165,0,0,1-.045.2c-.049.031-.133.048-.273-.072a.743.743,0,0,1-.184-.4,1.978,1.978,0,0,0-.96-.019,3.738,3.738,0,0,1-.247.521c-.042.041-.1.052-.2-.017-.133-.092-.235-.187-.164-.357Zm1.465-.573c-.036-.127-.085-.457-.092-.5a5.392,5.392,0,0,0-.135-.587c-.008-.029-.013-.011-.016,0s-.335.762-.419,1.019a2.4,2.4,0,0,1,.663.073Zm10.88.573c.124-.256.7-1.789.788-1.913.006-.015-.084-.251.281-.221a.756.756,0,0,1,.64.619c.132.455.2,1.262.363,1.662a.165.165,0,0,1-.045.2c-.049.031-.133.048-.273-.072a.743.743,0,0,1-.184-.4,1.978,1.978,0,0,0-.96-.019,3.737,3.737,0,0,1-.247.521c-.042.041-.1.052-.2-.017-.134-.092-.235-.187-.164-.357Zm1.465-.573c-.036-.127-.085-.457-.092-.5a5.62,5.62,0,0,0-.135-.587c-.008-.029-.013-.011-.017,0s-.335.762-.419,1.019a2.4,2.4,0,0,1,.663.073Zm-30.012.581c.123-.256.7-1.789.788-1.913.006-.014-.084-.251.281-.221a.755.755,0,0,1,.639.619c.132.455.2,1.26.364,1.661a.166.166,0,0,1-.045.2c-.049.031-.134.048-.274-.072a.747.747,0,0,1-.184-.405,1.984,1.984,0,0,0-.959-.018,3.733,3.733,0,0,1-.248.521c-.042.041-.1.052-.2-.016C38.576,92.44,38.475,92.345,38.545,92.176ZM40.01,91.6c-.036-.127-.084-.457-.091-.5a5.384,5.384,0,0,0-.136-.587c-.008-.029-.012-.011-.016,0s-.335.762-.419,1.019A2.38,2.38,0,0,1,40.01,91.6Zm-2.055-.256c-.032.475-.3.8-1.066.762.031-.232.051-1.406.031-1.593C37.035,90.506,38.011,90.52,37.955,91.348Zm-1.472.732a.185.185,0,0,0-.05.331,1.5,1.5,0,0,0,.833.1,1.126,1.126,0,0,0,.884-.4,1.282,1.282,0,0,0,.107-1.235,1.417,1.417,0,0,0-1.061-.726c-.3-.06-.863-.037-.944.112s.061.219.223.294c0,.253.02,1.314.009,1.524Zm-14.941-.732c-.032.475-.3.8-1.066.762.031-.232.051-1.406.031-1.593C20.621,90.506,21.6,90.52,21.542,91.348Zm-1.472.732a.185.185,0,0,0-.05.331,1.5,1.5,0,0,0,.833.1,1.128,1.128,0,0,0,.884-.4,1.282,1.282,0,0,0,.107-1.235,1.417,1.417,0,0,0-1.061-.726c-.3-.06-.863-.037-.944.112s.061.219.223.294c0,.253.02,1.314.009,1.524ZM63.1,91.348c-.032.475-.3.8-1.066.762.03-.232.05-1.406.03-1.593C62.185,90.506,63.161,90.52,63.1,91.348Zm-1.472.732a.185.185,0,0,0-.051.331,1.508,1.508,0,0,0,.834.1,1.126,1.126,0,0,0,.883-.4,1.282,1.282,0,0,0,.106-1.235,1.416,1.416,0,0,0-1.06-.726c-.3-.06-.863-.037-.945.112s.061.219.224.294c0,.253.018,1.314.009,1.524Zm-35.4.006a2.814,2.814,0,0,1-.053-.53.943.943,0,0,0,.26.01c.135-.012.286-.019.363-.023.115,0,.235-.033.245-.123.01-.248-.091-.223-.24-.222-.041,0-.437,0-.606.017,0-.035.011-.51.02-.637.092-.02.69-.04.711-.04a.08.08,0,0,1,.061.017c.03.021.3.163.272-.1-.035-.285-.467-.317-.69-.317s-.706.043-.816.046c-.083,0-.151.008-.143.1s.07.139.182.249q-.017.495-.012.99a4.869,4.869,0,0,0,.038.5.2.2,0,0,0-.034.047c-.145.053-.014.321.2.394.112.007.811.039.971.044.175.006.428-.038.383-.2s-.169-.277-.286-.269c-.094.006-.119.06-.261.062q-.284,0-.567-.018Zm-14.99.031a2.921,2.921,0,0,1-.054-.548.916.916,0,0,0,.265.011c.138-.012.291-.019.37-.023.117,0,.24-.034.25-.127.01-.257-.092-.231-.246-.229-.041,0-.445,0-.619.017,0-.037.012-.527.021-.658.093-.021.7-.041.724-.041a.079.079,0,0,1,.062.017c.031.021.311.168.277-.108-.036-.3-.477-.327-.7-.327s-.72.045-.832.048c-.085,0-.154.008-.146.108s.072.143.186.257q-.017.511-.012,1.023a4.737,4.737,0,0,0,.039.517.223.223,0,0,0-.035.049c-.148.054-.014.331.207.406.115.007.827.041.99.046.179.006.437-.041.391-.2s-.173-.285-.292-.278c-.1.007-.121.062-.266.064S11.323,92.126,11.243,92.117Zm47.613,0a2.959,2.959,0,0,1-.053-.548.91.91,0,0,0,.265.011c.138-.012.292-.019.37-.023.117,0,.24-.034.249-.127.01-.257-.092-.231-.245-.229-.041,0-.446,0-.619.017,0-.037.012-.527.021-.658.093-.021.7-.041.724-.041a.08.08,0,0,1,.063.017c.03.021.31.168.276-.108-.035-.3-.476-.327-.7-.327s-.72.045-.832.048c-.086,0-.155.008-.147.108s.072.143.186.257q-.017.511-.012,1.023c.007.261.024.369.039.517a.218.218,0,0,0-.034.049c-.148.054-.014.331.207.406.115.007.827.041.99.046.179.006.437-.041.39-.2s-.172-.285-.292-.278c-.1.007-.122.062-.266.064s-.5-.01-.578-.019Zm24.792,0a2.96,2.96,0,0,1-.054-.548.917.917,0,0,0,.265.011c.138-.012.292-.019.37-.023.116,0,.24-.034.249-.127.01-.257-.093-.231-.246-.229-.041,0-.445,0-.618.017,0-.037.012-.527.02-.658.093-.021.7-.041.725-.041a.078.078,0,0,1,.062.017c.031.021.311.168.277-.108-.036-.3-.477-.327-.7-.327s-.721.045-.833.048c-.085,0-.155.008-.147.108s.073.143.187.257q-.017.511-.012,1.023a4.764,4.764,0,0,0,.039.517.208.208,0,0,0-.035.049c-.147.054-.014.331.208.406.114.007.827.041.99.046.179.006.437-.041.39-.2s-.173-.285-.292-.278c-.1.007-.122.062-.267.064q-.288,0-.576-.019Zm6.58,0a2.959,2.959,0,0,1-.053-.548.915.915,0,0,0,.265.011c.137-.012.291-.019.369-.023.117,0,.24-.034.25-.127.009-.257-.093-.231-.246-.229-.041,0-.446,0-.619.017,0-.037.012-.527.021-.658.092-.021.7-.041.724-.041a.08.08,0,0,1,.063.017c.03.021.31.168.276-.108-.035-.3-.476-.327-.7-.327s-.72.045-.832.048c-.086,0-.155.008-.147.108s.072.143.186.257q-.017.511-.012,1.023c.007.261.024.369.039.517a.189.189,0,0,0-.034.049c-.148.054-.014.331.207.406.114.007.827.041.99.046.179.006.437-.041.39-.2s-.172-.285-.292-.278c-.1.007-.122.062-.266.064S90.309,92.126,90.228,92.117Zm-13.249,0a2.959,2.959,0,0,1-.053-.548.915.915,0,0,0,.265.011c.137-.012.291-.019.369-.023.117,0,.24-.034.249-.127.01-.257-.092-.231-.245-.229-.041,0-.445,0-.619.017,0-.037.012-.527.021-.658.093-.021.7-.041.724-.041a.08.08,0,0,1,.063.017c.03.021.31.168.276-.108-.035-.3-.475-.327-.7-.327s-.72.045-.832.048c-.086,0-.155.008-.147.108s.073.143.186.257q-.017.511-.012,1.023a4.965,4.965,0,0,0,.04.517.208.208,0,0,0-.035.049c-.148.054-.014.331.207.406.115.007.827.041.991.046s.436-.041.389-.2-.172-.285-.291-.278c-.1.007-.123.062-.267.064q-.289,0-.578-.019ZM27.812,90.271c-.014-.176.257-.215.43.025a.219.219,0,0,1,.05.123c.009.249.069,1.525.031,1.956-.006.055,0,.154-.1.16s-.191-.03-.359-.224a.253.253,0,0,1-.024-.193c.026-.792-.027-1.607-.028-1.846Zm-5.414.015c-.014-.176.257-.215.43.025a.214.214,0,0,1,.05.123c.009.249.069,1.525.031,1.956-.005.055,0,.154-.1.159s-.192-.03-.359-.224a.252.252,0,0,1-.024-.192c.026-.792-.027-1.607-.028-1.846Zm24.21-.02c-.015-.176.257-.216.43.025a.218.218,0,0,1,.05.123c.009.249.069,1.524.031,1.955-.006.055,0,.155-.1.16s-.192-.03-.36-.224a.255.255,0,0,1-.024-.193C46.662,91.319,46.608,90.5,46.608,90.265Zm-16.678.29c.017.429.058,1.427.025,1.8-.005.054,0,.154-.1.159s-.192-.03-.359-.223a.254.254,0,0,1-.024-.193c.019-.571,0-1.155-.018-1.525-.132.012-.356.016-.417.016a.31.31,0,0,1-.187-.065.47.47,0,0,1-.181-.3c-.013-.133.256-.071.62-.105a5.08,5.08,0,0,1,.873,0,.527.527,0,0,1,.232.082.346.346,0,0,1,.135.274c0,.138-.165.093-.247.089s-.255-.011-.352-.011Zm58.782,0c.017.429.057,1.427.025,1.8-.006.054,0,.154-.1.159s-.191-.03-.359-.223a.252.252,0,0,1-.024-.193c.018-.571,0-1.155-.018-1.525-.131.012-.356.016-.416.016a.31.31,0,0,1-.187-.065.472.472,0,0,1-.181-.3c-.013-.133.256-.071.62-.105a5.074,5.074,0,0,1,.872,0,.517.517,0,0,1,.232.082.343.343,0,0,1,.136.274c0,.138-.165.093-.247.089s-.255-.011-.353-.011ZM9.245,91.771c0,.21,0,.493-.007.613-.005.054,0,.154-.1.159s-.191-.029-.359-.224a.341.341,0,0,1-.029-.226c-.008-.559-.018-1.026,0-1.435-.127-.056-.335-.25-.208-.4a1.323,1.323,0,0,1,.853-.2c.365.026,1.01.191,1.031.744.023.629-.944.954-1.183.973ZM9.96,90.72c-.076-.3-.528-.228-.753-.2.008.186.021.505.029.835.485-.1.8-.33.724-.633Zm15.063,1.33c.091.116.142.211.29.241s0,.3-.251.281c-.3-.029-.576-.569-.777-.819a.819.819,0,0,1-.231.056c0,.21,0,.493-.007.613-.005.054,0,.154-.1.159s-.191-.03-.359-.224a.345.345,0,0,1-.029-.226c-.008-.558-.018-1.026,0-1.434-.127-.056-.335-.251-.208-.4a1.325,1.325,0,0,1,.852-.2c.366.026,1.01.191,1.031.744a.857.857,0,0,1-.5.72,3.132,3.132,0,0,0,.288.494Zm-.254-1.293c-.076-.3-.528-.228-.753-.2.008.186.021.506.029.835C24.53,91.292,24.845,91.06,24.769,90.756Zm21.072,1.266c.091.116.143.211.289.241s.005.305-.251.281c-.3-.029-.576-.569-.776-.82a.8.8,0,0,1-.231.057c0,.21,0,.493-.007.614-.005.054,0,.154-.1.159s-.192-.03-.359-.224a.344.344,0,0,1-.029-.226c-.008-.559-.017-1.026,0-1.434-.127-.056-.335-.251-.208-.4a1.323,1.323,0,0,1,.853-.2c.365.026,1.01.191,1.031.744a.856.856,0,0,1-.5.72,3.081,3.081,0,0,0,.288.495Zm-.254-1.293c-.076-.3-.528-.228-.753-.2.008.186.021.505.03.835.485-.1.8-.329.724-.632ZM12.774,92.069a10.945,10.945,0,0,1-.016-1.831c-.014-.182.269-.225.446.023a.264.264,0,0,1,.059.151,8.484,8.484,0,0,0,.041,1.7c.08.009.337.021.481.019s.17-.058.267-.064c.119-.008.246.114.292.278s-.212.209-.39.2c-.163-.005-.9-.038-1.012-.044-.166-.017-.36-.316-.168-.432Zm61.805,0a10.947,10.947,0,0,1-.016-1.831c-.014-.182.269-.225.446.023a.264.264,0,0,1,.059.151,8.44,8.44,0,0,0,.042,1.7c.08.009.336.021.481.019s.169-.058.266-.064c.119-.008.246.114.292.278s-.212.209-.39.2c-.163-.005-.9-.038-1.011-.044-.166-.017-.361-.316-.169-.432ZM50.074,90.4a5.635,5.635,0,0,1,.036,1.257c-.015.168-.029.461-.036.569a.373.373,0,0,0,.239.32c.122.045.243.029.248-.1s.064-1.191.043-1.4a5.522,5.522,0,0,0,.763,1.106,3.816,3.816,0,0,0,.321.311c.152.127.41.093.412-.09,0-.215-.018-1.859-.018-1.952a.358.358,0,0,0-.292-.342c-.208-.041-.194.131-.192.176,0,.161.016,1.415.01,1.613-.249-.2-.792-1.314-1.153-1.61-.189-.155-.316-.069-.331-.038-.011,0-.077.031-.05.18Zm35.05,0a5.664,5.664,0,0,1,.036,1.257c-.016.168-.029.461-.036.569a.372.372,0,0,0,.239.32c.122.045.244.029.248-.1s.064-1.191.043-1.4a5.473,5.473,0,0,0,.764,1.106,3.672,3.672,0,0,0,.32.311c.152.127.411.093.412-.09,0-.215-.018-1.859-.018-1.952a.358.358,0,0,0-.292-.342c-.207-.041-.194.131-.192.176,0,.161.017,1.415.01,1.613-.248-.2-.792-1.314-1.152-1.61-.19-.155-.317-.069-.331-.038-.012,0-.078.031-.05.18Zm-70.274.975c.025-.472.3-.981.588-.969s.558.332.532.994-.381.887-.609.887S14.85,91.991,14.85,91.374Zm.67,1.175c.417,0,.96-.262.944-1.206a1.113,1.113,0,0,0-.731-1.149.981.981,0,0,0-.523-.153c-.427,0-.873.55-.873,1.287C14.347,92.407,15.042,92.553,15.52,92.549Zm66.609-.7a.609.609,0,0,1-.525.435c-.23,0-.517-.3-.517-.92.026-.475.306-.987.593-.976.208.008.4.165.49.515.051.207.587.293.486-.013a1.116,1.116,0,0,0-.412-.637,1.239,1.239,0,0,0-.795-.231c-.458.022-.879.554-.879,1.3.01,1.086.71,1.233,1.191,1.229a.9.9,0,0,0,.883-.67c.111-.43-.472-.167-.516-.029Zm-38.816,0a.608.608,0,0,1-.525.435c-.23,0-.516-.3-.516-.92.025-.475.306-.987.592-.976.208.008.4.165.49.515.051.207.587.293.487-.013a1.111,1.111,0,0,0-.412-.637,1.237,1.237,0,0,0-.795-.231c-.457.022-.88.554-.88,1.3.01,1.086.711,1.233,1.192,1.229a.9.9,0,0,0,.883-.67C43.94,91.445,43.357,91.709,43.313,91.846Zm10.68,0a.6.6,0,0,1-.521.431c-.228,0-.512-.3-.512-.913.026-.472.3-.98.587-.969.207.008.4.164.487.512.05.206.582.29.482-.014a1.111,1.111,0,0,0-.409-.632,1.235,1.235,0,0,0-.789-.229c-.454.022-.873.551-.873,1.288.008.752.348,1.051.716,1.16a.777.777,0,0,0-.125.291c-.009.06.02.077.134.092.145.018.156-.041.153-.052s.042-.085.09-.139a1.706,1.706,0,0,0,.108-.134l.108,0a.889.889,0,0,0,.877-.665c.11-.427-.468-.165-.513-.029ZM17.5,92.53a1.687,1.687,0,0,1-.537-.1c-.194-.077-.306-.174-.319-.319s.1-.183.3-.152c.273.043.335.138.536.147a.455.455,0,0,0,.365-.1.3.3,0,0,0,.081-.243c-.117-.387-1.311-.607-1.257-1.168.023-.238.429-.5.781-.52.531-.032,1.015.254.948.448-.031.089-.273.084-.42.031s-.256-.084-.267-.088a.8.8,0,0,0-.357-.046c-.266.086-.132.335.183.521.207.122.407.252.529.326a1.254,1.254,0,0,1,.314.267.522.522,0,0,1-.085.762.911.911,0,0,1-.5.216,1.622,1.622,0,0,1-.292.019ZM31.256,91.4c.025-.471.3-.98.588-.969s.558.332.532,1-.38.886-.608.886-.513-.295-.513-.913Zm.669,1.175c.417,0,.96-.262.944-1.205a1.113,1.113,0,0,0-.731-1.149.975.975,0,0,0-.523-.154c-.427,0-.873.55-.873,1.288.01,1.079.706,1.224,1.183,1.22Zm32.35-1.2c.025-.471.3-.98.588-.969s.558.333.532,1-.381.886-.609.886-.512-.295-.512-.913Zm.669,1.175c.418,0,.96-.262.945-1.206a1.112,1.112,0,0,0-.731-1.149.971.971,0,0,0-.523-.154c-.426,0-.872.551-.872,1.288C63.772,92.414,64.467,92.559,64.944,92.556Zm6.32-1.208c-.031.475-.3.8-1.067.762.031-.232.051-1.406.031-1.593C70.344,90.506,71.32,90.52,71.264,91.348Zm-1.472.732a.185.185,0,0,0-.05.331,1.508,1.508,0,0,0,.834.1,1.127,1.127,0,0,0,.883-.4,1.284,1.284,0,0,0,.107-1.235A1.418,1.418,0,0,0,70.5,90.15c-.305-.06-.863-.037-.944.112s.061.219.223.294c0,.253.02,1.314.009,1.524Zm2.725-.7c.025-.471.3-.98.587-.969s.558.333.533,1-.381.886-.609.886-.512-.295-.512-.913Zm.669,1.175c.417,0,.96-.262.945-1.206A1.113,1.113,0,0,0,73.4,90.2a.975.975,0,0,0-.523-.154c-.427,0-.873.551-.873,1.288C72.012,92.414,72.708,92.559,73.186,92.556Zm-39.276-.04a1.693,1.693,0,0,1-.537-.1c-.194-.078-.305-.174-.319-.319s.1-.183.3-.152c.273.043.335.139.536.147a.457.457,0,0,0,.366-.1.3.3,0,0,0,.081-.243c-.116-.387-1.311-.607-1.257-1.167.023-.239.429-.5.782-.52.531-.032,1.015.254.947.448-.031.089-.273.085-.42.032s-.256-.084-.267-.088a.792.792,0,0,0-.358-.046c-.266.086-.132.336.183.521.207.122.407.252.53.327a1.251,1.251,0,0,1,.314.266.522.522,0,0,1-.085.762.913.913,0,0,1-.5.216,1.6,1.6,0,0,1-.292.019Zm45.366.02a1.686,1.686,0,0,1-.537-.1c-.194-.078-.306-.174-.32-.319s.1-.183.295-.152c.273.043.336.139.537.147a.455.455,0,0,0,.365-.1.3.3,0,0,0,.081-.243c-.117-.387-1.311-.607-1.257-1.167.023-.239.429-.5.782-.52.531-.032,1.014.254.947.448-.03.089-.273.085-.419.032s-.256-.084-.268-.089a.8.8,0,0,0-.357-.046c-.266.086-.132.336.183.521.207.122.407.252.529.327a1.231,1.231,0,0,1,.314.266.521.521,0,0,1-.085.762.911.911,0,0,1-.5.216A1.57,1.57,0,0,1,79.275,92.536ZM37.7,43.6A111.328,111.328,0,0,1,49,34.827a5.873,5.873,0,0,1,1.942.925c6.286,2.589,11.379,4.838,18.22,7.149a.568.568,0,0,1,.149.7A33.553,33.553,0,0,1,65.4,48.22c4.128.118,10.536.263,14.419.263.37,0,.154-.863.8-1.078.526-.175.751.43.751.984.185.37,1.075.147,1.075.517,0,.739-1.119.407-1.2.813a59.183,59.183,0,0,0-.312,6.552c0,.091.072,4.189.148,4.189a5.625,5.625,0,0,1,2.258.727c.564.446.773,1.248-.178,1.931a1.285,1.285,0,0,1,.535,1.026c.014.653-.439.691-.476.892-.078.426.327.516.327,1.01,0,.927-1.084.888-.654,1.4a1.273,1.273,0,0,1-.326,1.6,3.225,3.225,0,0,1-1.879.616s.022.6.008.781a95.875,95.875,0,0,0-.078,14.581,12.031,12.031,0,0,1-2.774-.062c-.185,0-4.533-.045-5.151-.045-9.614-.8-16.023.169-26.131-1.125a33.761,33.761,0,0,0-3.513-.039c-6.444-.049-15.669-.023-18.165.131a31.209,31.209,0,0,0-3.449.416c-.739.37-2.172.416-2.358-.139-.185-2.588-.375-8.1-.56-10.918a6.393,6.393,0,0,0,.011-1.1,1.5,1.5,0,0,1-1.572-.6c-.386-.564.162-1.13.162-1.685,0-.366-.572-.365-.67-1.089-.056-.415.4-.824.139-1.156a1.254,1.254,0,0,1-.37-1.155c.056-.345.65-.8.65-.8a1.439,1.439,0,0,1-.073-2.227c.594-.571,1.177-.489,1.386-.74.925-1.109-.578-10.868-.393-13.548.029-.413-.554-.555-.924-.739-.185-.185.189-.7.37-.74a5.126,5.126,0,0,1,2.034.277,18.064,18.064,0,0,0,5.113-.092c3-.323,5.911.023,8.135-.185a4.023,4.023,0,0,0,1.017-.324A52.051,52.051,0,0,0,37.7,43.6Z" fill-rule="evenodd"/>
    <path id="Caminho_135" data-name="Caminho 135" d="M70.188,40.545c-4.411,3.86-8.29,7.082-12.387,10.724-.309.275.56.816,1.017.971,4.391,1.479,7.742,3.153,12.179,4.817,1.295.37,2.589,1.109,3.883,1.479a13.676,13.676,0,0,1,1.91.74c1.048.308,1.755.991,2.366.5,4.806-3.883,8.412-7.58,12.664-11.463.739-.925,1.48-1.664,2.219-2.589v-.739c-.925-1.294-2.589-1.294-3.883-1.849a3.427,3.427,0,0,0-1.294-.37A17.553,17.553,0,0,0,84.979,41.1c-2.034-.924-4.068-1.294-5.917-2.4-.925-.37-1.664-.554-2.4-.924a2.757,2.757,0,0,0-2.219-.185A21.887,21.887,0,0,0,70.188,40.545Z" transform="translate(-26.019 -1.385)" fill="#fff22d" fill-rule="evenodd"/>
    <path id="Caminho_136" data-name="Caminho 136" d="M85.02,44.81c.739.041,1.742.218,2.465.308,1.479.185,3.143,1.479,4.622,2.589a7.582,7.582,0,0,1,1.618,7.442c-1.638,4.052-8.644,5.069-13.451,3.96a7.8,7.8,0,0,1-4.992-3.451,4.192,4.192,0,0,1-.416-2.958c.185-.554.231-.832.416-1.387.739-1.294,1.109-2.5,2.4-3.605a19.143,19.143,0,0,1,4.252-2.958C83.972,43.824,83.911,44.749,85.02,44.81Z" transform="translate(-34.997 -5.034)" fill-rule="evenodd"/>
    <path id="Caminho_137" data-name="Caminho 137" d="M88.394,47.9c-2.055-.467-4.252-.924-5.794-.37-2.8,1.01-5.516,4.037-5.978,6.718-.519,3.013,2.2,5.916,6.1,5.916,0,0,.91.226,1.171.246a9.377,9.377,0,0,0,3.76-.185,8.435,8.435,0,0,0,2.095-.431c1.849-.74,3.513-1.849,4.068-3.7,1.3-4.067-1.355-7.272-5.422-8.2Z" transform="translate(-35.967 -6.587)" fill="#fff" fill-rule="evenodd"/>
    <path id="Caminho_138" data-name="Caminho 138" d="M91.427,54.194c.185.37-.215.77-.586.77-.554-.185-.8-.832-.246-1.2C90.964,53.578,91.241,53.824,91.427,54.194Zm-3.605-.431c.234.117.246.832.061,1.017a.708.708,0,0,1-.955-.37C86.743,53.855,87.451,53.578,87.821,53.763Zm-3.2,3.636c-.126.752-.912,1.886.061,2.1a18.948,18.948,0,0,0,8.074.277c1.137-.273,1.541-1.2,1.541-2.5h.37c.369,1.479-.529,3.02-1.822,3.02-2.774.185-6.026.679-8.717-.616a1.652,1.652,0,0,1-.37-2.4c.184,0,.893-.061.862.124Z" transform="translate(-39.585 -9.98)" fill-rule="evenodd"/>
    <path id="Caminho_139" data-name="Caminho 139" d="M82.009,64.653c-2.139-.089-4.336.2-6.371.011-4.253,3.883-7.58,7.488-11.647,10.724-.2.163-.547-.93-.916-1.115-.739-.37-2.1-.678-3.021-1.048-6.287-2.219-12.141-4.992-18.25-7.267-.245-.091-.739-.554-.555-.554a8.923,8.923,0,0,0,2.4-1.572s-1.294.084-1.479.092c-3.561.155-7.107.349-11.907.786a18.236,18.236,0,0,0,.554,4.437c.331,1.49-.116,6.242.052,7.693.02.169-.161.956.017.956s1.152.009,1.406.643c.3.742-.475,1.426-.475,1.426s1.456-.119,1.7.889a1.512,1.512,0,0,1-.456,1.354,1.707,1.707,0,0,1,.342,1.158c-.076.709-1.084,1.323-1.084,1.323a1.094,1.094,0,0,1,.683,1.114c0,1.1-1.911,1.219-2.05,1.635,0,0-.046,2.393,0,3.549.059,1.489.271,7.083.548,7.685,2.034-.185,5.3-.324,7.331-.324,5.295-.181,10.571-.15,15.841-.022,10.907.53,24.9,1.023,36.3,1.023,0-2.123.084-9.248.089-13.115a8.811,8.811,0,0,0-.029-1.264,2.046,2.046,0,0,1-1.278-.981.911.911,0,0,1,.327-1.337s-.981-.446-.7-1.3a1.643,1.643,0,0,1,1.11-.924s-.82-.492-.791-1.138c.047-1.039,1.349-1.233,1.284-1.266-.9-.442-1.225-1.511-.007-1.9.148-.047.416-.085.416-.238,0-1.971.326-8.978-.017-10.837C88.8,64.958,83.9,64.732,82.009,64.653Z" transform="translate(-11.501 -15.335)" fill="#33a457" fill-rule="evenodd"/>
    <path id="Caminho_140" data-name="Caminho 140" d="M28.74,92.825c-.231.046-1.159.327-1.664.475-.712.209-.386,1.159-.03,1.189a2.981,2.981,0,0,0,2.466-1.129C29.727,93.007,29.145,92.744,28.74,92.825Zm.356,2.317c-.843.422-1.684.353-2.377.862a.441.441,0,0,0,.069.705c.792.394,3.189-.231,4.067-1.109.293-.292-.066-.9-.6-.844a3.7,3.7,0,0,0-1.158.387ZM28.36,97.45c-1.047.307-1.522.367-1.344.961.238.794,3.328.148,3.6-.936C30.92,96.272,29.092,97.234,28.36,97.45Zm-.323,2.264c-.538.134-.8.242-.925.555-.287.706.924.778,1.3.608.921-.416,1.888-.423,1.7-1.163C29.978,99.16,28.776,99.53,28.037,99.714ZM92.492,91.36c-.247-.863-2.916-.876-3.224-.229-.242.507,1.433.684,1.618.7.831.092,1.766.087,1.606-.476Zm-1.62,1.389c-.615-.148-2.28-.238-2.28.743,0,.37.968.53,1.151.55,1,.1,2.763.312,2.853-.49C92.641,93.141,91.615,92.928,90.872,92.75ZM90.694,95.1c-.9.156-2.28-.246-2.437.624,0,0-.059.4.557.579.859.248,3.272.071,3.365-.669C92.272,95.17,91.734,94.917,90.694,95.1Zm-.307,2.217a4.232,4.232,0,0,1-1.659-.03c-.263-.049-.571.472-.263.695a2.77,2.77,0,0,0,2.825.289A.628.628,0,0,0,91.8,97.6c-.185-.739-.839-.375-1.417-.286ZM42.652,108.778c.4-.869,2.265-6.081,2.533-6.5.021-.049-.268-.855.905-.75.573.054,1.6.449,2.055,2.1.427,1.544.653,4.285,1.168,5.646a.59.59,0,0,1-.146.686c-.157.106-.43.161-.88-.245a2.608,2.608,0,0,1-.59-1.376,6.037,6.037,0,0,0-3.083-.065,12.418,12.418,0,0,1-.794,1.772c-.137.138-.324.178-.644-.057C42.752,109.675,42.424,109.353,42.652,108.778Zm4.708-1.948c-.112-.432-.269-1.554-.294-1.707a19.718,19.718,0,0,0-.437-2c-.024-.1-.038-.037-.051-.007,0,0-1.077,2.59-1.348,3.464A7.256,7.256,0,0,1,47.36,106.83Zm6.332-3.85c1.274.526,2.254,2.118.9,3.345a2.49,2.49,0,0,1-.536.355,1.269,1.269,0,0,1,.213.049,1.816,1.816,0,0,1,1.053.979c.436.934-.342,1.73-1.253,2.085-1.027.4-2.982.324-3.748-.438-.1-.1-.107-.276.053-.324.034-.147-.022-.1.011-.245-.052-1.01-.05-2.135-.01-3.232.038-.465.109-1.079.146-1.544a2.055,2.055,0,0,1-.453-.308c-.586-.623.34-.925,1.141-1.021A4.725,4.725,0,0,1,53.692,102.98Zm-1.385.691a.38.38,0,0,0-.351.2,14.73,14.73,0,0,0-.191,2.15c0,.024-.027.2.018.21a2.048,2.048,0,0,0,.539.01,3.038,3.038,0,0,0,1.12-.394,1.193,1.193,0,0,0,0-2.028A2.766,2.766,0,0,0,52.307,103.671Zm.332,3.551c-.225.021-.549.076-.875.132a11.749,11.749,0,0,0,.068,1.442.217.217,0,0,0,.131.16,1.552,1.552,0,0,0,.771.132,1.97,1.97,0,0,0,1.17-.314C54.733,108.011,53.845,107.134,52.639,107.223Zm9.841-3.889c-.04-.52.718-.636,1.2.073a.674.674,0,0,1,.141.361c.025.738.192,4.508.087,5.782-.016.162-.007.455-.281.472-.3.015-.534-.09-1.008-.661a.793.793,0,0,1-.064-.57C62.631,106.451,62.481,104.04,62.48,103.334Zm-1.887,5.126c.256.344.4.625.812.714.381.083.013.9-.7.83-.84-.085-1.611-1.681-2.171-2.423a2.178,2.178,0,0,1-.645.166c0,.622.011,1.459-.019,1.813-.014.16,0,.456-.281.471-.292.016-.534-.089-1-.661a1.094,1.094,0,0,1-.08-.67c-.021-1.651-.05-3.033.006-4.239-.354-.165-.936-.74-.583-1.194a3.559,3.559,0,0,1,2.387-.6c1.022.079,2.823.564,2.879,2.2a2.53,2.53,0,0,1-1.4,2.127,9.078,9.078,0,0,0,.8,1.461Zm-.709-3.821c-.212-.9-1.476-.675-2.105-.6.02.55.059,1.5.083,2.467,1.353-.287,2.234-.973,2.022-1.869Zm5.31-.93a17.792,17.792,0,0,1,.1,3.718c-.042.5-.082,1.36-.1,1.68a1.092,1.092,0,0,0,.666.947c.343.132.681.081.7-.294s.179-3.523.122-4.142a16.206,16.206,0,0,0,2.136,3.269,10.635,10.635,0,0,0,.891.918c.428.377,1.148.277,1.152-.266,0-.636-.05-5.493-.05-5.77a1.048,1.048,0,0,0-.817-1.01c-.581-.121-.543.387-.54.52.017.476.047,4.181.029,4.768-.7-.6-2.211-3.883-3.221-4.757-.528-.459-.884-.206-.924-.11C65.3,103.176,65.113,103.268,65.193,103.709Zm10,5.326a1.279,1.279,0,0,1-.763.286c-.64,0-1.433-.872-1.433-2.7.073-1.4.852-2.9,1.644-2.864s1.561.984,1.49,2.941a3.98,3.98,0,0,1-.349,1.589,1.523,1.523,0,0,0-1.15-.184C74.417,108.235,73.977,108.818,75.2,109.035Zm1.849-.228a4.481,4.481,0,0,0,.466-2.272c-.043-2.788-1.831-3.251-2.043-3.4a2.633,2.633,0,0,0-1.462-.454c-1.193,0-2.441,1.627-2.441,3.8.029,3.186,1.972,3.618,3.308,3.607a2.311,2.311,0,0,0,1.483-.5c.516.368.78.63,1.047.472a.561.561,0,0,0,.173-.746,1.014,1.014,0,0,0-.53-.516ZM59.665,98.168c.344-.756,1.969-5.287,2.2-5.653.017-.044-.234-.744.788-.653.5.048,1.392.391,1.787,1.829.368,1.342.565,3.726,1.014,4.91a.511.511,0,0,1-.125.6c-.138.091-.374.139-.763-.214a2.243,2.243,0,0,1-.516-1.2,5.263,5.263,0,0,0-2.68-.057,11.614,11.614,0,0,1-.69,1.54c-.12.12-.285.156-.56-.048C59.753,98.948,59.468,98.667,59.665,98.168Zm4.094-1.694c-.1-.376-.233-1.351-.254-1.485a17.641,17.641,0,0,0-.381-1.737c-.022-.084-.035-.032-.044-.006,0,0-.937,2.253-1.169,3.011A6.312,6.312,0,0,1,63.758,96.474Zm-5.64-.647c-.09,1.4-.852,2.367-2.981,2.251.086-.686.143-4.156.086-4.71C55.546,93.341,58.273,93.383,58.118,95.827ZM54,97.992c-.567.176-.37.821-.139.976a3.974,3.974,0,0,0,2.326.287,3.087,3.087,0,0,0,2.468-1.171,3.732,3.732,0,0,0-2.665-5.8c-.854-.177-2.412-.11-2.64.332s.168.648.622.868C53.971,94.236,54.031,97.372,54,97.992ZM38.424,95.776c.367-.012.756-.114.789-.42.04-.81-.293-.758-.775-.753-.129,0-1.4,0-1.95.058,0-.122.037-1.735.066-2.167.294-.069,2.216-.133,2.283-.133a.246.246,0,0,1,.2.057c.1.069.979.554.873-.355-.112-.971-1.5-1.077-2.217-1.077s-2.272.147-2.623.157c-.267.009-.485.07-.459.4s.229.486.587.776c-.025.527-.134,2.551-.115,3.365.019.858.111,1.634.16,2.117a.512.512,0,0,0-.116.6c.563,1.05.894,1,1.294.7s.1-1.463.057-1.75-.048-1.137-.048-1.53a2.837,2.837,0,0,0,.835.034Q37.842,95.8,38.424,95.776Zm8.451-2.836a17.493,17.493,0,0,1,.1,3.717c-.043.5-.083,1.36-.1,1.68a1.092,1.092,0,0,0,.667.947c.341.132.68.081.7-.293s.177-3.524.121-4.143a15.99,15.99,0,0,0,2.135,3.269,10.309,10.309,0,0,0,.894.918c.425.377,1.145.276,1.149-.265,0-.637-.048-5.494-.048-5.771a1.049,1.049,0,0,0-.817-1.01c-.582-.121-.544.388-.538.521.013.475.047,4.181.028,4.767-.7-.6-2.215-3.883-3.22-4.756-.53-.459-.886-.2-.926-.11C46.98,92.406,46.795,92.5,46.875,92.94Zm32.9,2.932c.07-1.394.85-2.9,1.643-2.863s1.56.982,1.49,2.941-1.064,2.62-1.7,2.62S79.777,97.7,79.777,95.872Zm1.873,3.473c1.163-.01,2.678-.775,2.639-3.562s-1.833-3.252-2.045-3.4a2.617,2.617,0,0,0-1.46-.454c-1.2,0-2.442,1.626-2.442,3.805.031,3.186,1.974,3.617,3.309,3.607ZM41.928,93.468c-.021.456-.448,2.9-.063,3.8a1.422,1.422,0,0,0,1.53.88c.513-.067.982-.5.928-2.266s-.085-2.455-.107-2.8a1.109,1.109,0,0,1,.3-.855c.233-.216.728-.363,1.245.548.2.356-.224.656-.213.845,0,.383.158,2.406.118,3.145-.055.97-.175,2.215-1.579,2.5a3.185,3.185,0,0,1-1.547-.133,2.869,2.869,0,0,1-1.494-1.084c-.79-1.162-.536-3.44-.465-4.822.025-.338-.182-.806.219-.985.3-.134.748.179,1.067.622a.978.978,0,0,1,.063.6ZM70.1,97.243a1.705,1.705,0,0,1-1.458,1.274c-.637,0-1.429-.873-1.429-2.7.07-1.395.847-2.9,1.644-2.864.578.025,1.122.483,1.357,1.512.144.608,1.629.859,1.352-.04a3.276,3.276,0,0,0-1.142-1.867,3.324,3.324,0,0,0-2.2-.678c-1.271.065-2.441,1.626-2.441,3.805.02,2.223.972,3.1,2,3.43a2.238,2.238,0,0,0-.348.861c-.029.179.053.228.373.273.405.053.434-.121.427-.155-.015-.069.12-.25.252-.411a4.435,4.435,0,0,0,.3-.4c.1,0,.2.006.3.005a2.5,2.5,0,0,0,2.449-1.964c.309-1.261-1.311-.488-1.432-.084Zm2,.979c.343-.756,1.969-5.287,2.2-5.653.017-.043-.234-.743.787-.653.495.047,1.39.391,1.786,1.829.37,1.342.565,3.727,1.014,4.91a.513.513,0,0,1-.124.6c-.138.091-.377.138-.766-.214a2.269,2.269,0,0,1-.513-1.2,5.25,5.25,0,0,0-2.679-.057,11.048,11.048,0,0,1-.695,1.54c-.118.121-.281.157-.557-.049C72.178,99,71.89,98.722,72.092,98.222Zm4.093-1.693c-.1-.376-.235-1.351-.256-1.484a16.758,16.758,0,0,0-.379-1.737c-.023-.086-.035-.033-.047-.007,0,0-.935,2.253-1.169,3.011A6.344,6.344,0,0,1,76.184,96.529Zm.083-5.87a10.757,10.757,0,0,0-2.376.24c-.392.088-.577.194-.589.5-.008.384.476.294.545.267a3.705,3.705,0,0,1,.963-.04,11.867,11.867,0,0,0,1.5-.017c.39-.056.825.039.764-.608-.031-.34-.385-.336-.81-.34Z" transform="translate(-9.549 -29.513)" fill="#fff" fill-rule="evenodd"/>
  </g>
</svg>
